<?xml version="1.0" standalone="no"?>
<!DOCTYPE svg PUBLIC "-//W3C//DTD SVG 1.1//EN" "http://www.w3.org/Graphics/SVG/1.1/DTD/svg11.dtd" >
<svg>
<metadata>
Created by FontForge 20110222 at Tue Mar  5 05:44:08 2013
 By Orthosie Webmaster
Created by gluk with FontForge 2.0 (http://fontforge.sf.net)

</metadata>
<defs>
<font id="RawengulkUltralight" horiz-adv-x="535" >
  <font-face 
    font-family="RawengulkUltralight"
    font-weight="200"
    font-stretch="normal"
    units-per-em="1000"
    panose-1="4 0 3 0 0 0 0 0 0 0"
    ascent="786"
    descent="-214"
    x-height="464"
    cap-height="679"
    bbox="-357 -223 964 893"
    underline-thickness="8"
    underline-position="-143"
    unicode-range="U+0020-FB04"
  />
<missing-glyph horiz-adv-x="428" 
d="M71 464h286v-428h-286v428zM107 429v-358h214v358h-214z" />
    <glyph glyph-name="uniFB01" unicode="fi" horiz-adv-x="464" 
d="M321 661v-18h-9v12q-32 19 -66 19q-54 0 -92 -37.5t-38 -91.5v-81h170v-9h-170v-455h-9v455h-71v9h71v81q0 57 41 97.5t98 40.5q42 0 75 -22zM374 609q0 5 4.5 9.5t9.5 4.5t9 -4.5t4 -9.5t-4 -9t-9 -4t-9.5 4t-4.5 9zM383 457h-17v9h26v-464h-9v455z" />
    <glyph glyph-name="uniFB02" unicode="fl" horiz-adv-x="464" 
d="M321 661v-18h-9v12q-32 19 -66 19q-54 0 -92 -37.5t-38 -91.5v-81h170v-9h-170v-455h-9v455h-71v9h71v81q0 57 41 97.5t98 40.5q42 0 75 -22zM392 670h-17v9h26v-679h-9v670z" />
    <glyph glyph-name="uniFB03" unicode="ffi" horiz-adv-x="750" 
d="M321 661v-18h-9v12q-32 19 -66 19q-54 0 -92 -37.5t-38 -91.5v-81h134v-9h-134v-455h-9v455h-71v9h71v81q0 57 41 97.5t98 40.5q42 0 75 -22zM660 609q0 5 4.5 9.5t9.5 4.5t9 -4.5t4 -9.5t-4 -9t-9 -4t-9.5 4t-4.5 9zM669 457h-17v9h26v-464h-9v455zM607 661v-18h-9v12
q-32 19 -66 19q-54 0 -92 -37.5t-38 -91.5v-81h170v-9h-170v-455h-9v455h-71v9h71v81q0 57 41 97.5t98 40.5q42 0 75 -22z" />
    <glyph glyph-name="uniFB04" unicode="ffl" horiz-adv-x="750" 
d="M321 661v-18h-9v12q-32 19 -66 19q-54 0 -92 -37.5t-38 -91.5v-81h134v-9h-134v-455h-9v455h-71v9h71v81q0 57 41 97.5t98 40.5q42 0 75 -22zM678 670h-17v9h26v-679h-9v670zM607 661v-18h-9v12q-32 19 -66 19q-54 0 -92 -37.5t-38 -91.5v-81h170v-9h-170v-455h-9v455
h-71v9h71v81q0 57 41 97.5t98 40.5q42 0 75 -22z" />
    <glyph glyph-name=".notdef" horiz-adv-x="428" 
d="M71 464h286v-428h-286v428zM107 429v-358h214v358h-214z" />
    <glyph glyph-name=".null" horiz-adv-x="26" 
 />
    <glyph glyph-name="nonmarkingreturn" horiz-adv-x="321" 
 />
    <glyph glyph-name="space" unicode=" " horiz-adv-x="357" 
 />
    <glyph glyph-name="exclam" unicode="!" horiz-adv-x="151" 
d="M62 9q0 5 4.5 9t9.5 4t9 -4t4 -9t-4 -9t-9 -4t-9.5 4t-4.5 9zM71 679h27v-9h-18v-491h-9v500z" />
    <glyph glyph-name="quotedbl" unicode="&#x22;" horiz-adv-x="214" 
d="M70 679l8 2q2 -8 2 -34q0 -53 -10 -85l-8 -28l-9 3l9 28q9 30 9 82q0 25 -1 32zM150 679l8 2q3 -12 3 -34q0 -49 -11 -85l-8 -28l-9 3l9 28q10 33 10 82q0 18 -2 32z" />
    <glyph glyph-name="numbersign" unicode="#" horiz-adv-x="375" 
d="M129 533l8 -1l-9 -112h133l10 113l9 -1l-10 -112h87v-9h-87l-15 -170h87v-9h-88l-11 -124h-9l11 124h-134l-11 -124h-9l11 124h-84v9h85l15 170h-86v9h87zM112 241h134l15 170h-134z" />
    <glyph glyph-name="dollar" unicode="$" horiz-adv-x="580" 
d="M290 696h9v-52q54 -2 111.5 -22t97.5 -60l1 -1v-24h-9v20q-37 36 -92 56t-109 22v-286q40 -12 61 -19.5t55 -21t53 -26.5t39 -32t29 -42.5t9 -52.5q0 -66 -64.5 -109.5t-181.5 -44.5v-55h-9v55q-71 0 -144.5 35.5t-108.5 70.5l-1 1v18h9v-14q35 -35 106 -68.5t139 -33.5
v332q-42 13 -66.5 21.5t-57 24t-50.5 31.5t-31 39.5t-13 52.5q0 55 65.5 94t152.5 39v52zM290 351v284q-85 0 -147.5 -37.5t-62.5 -86.5q0 -27 12.5 -49t29.5 -37t48 -30t55.5 -23.5t64.5 -20.5zM299 339v-329q114 1 175.5 42.5t61.5 102.5q0 32 -14.5 58.5t-33.5 43.5
t-56 34t-61.5 25.5t-71.5 22.5z" />
    <glyph glyph-name="percent" unicode="%" horiz-adv-x="616" 
d="M147 638q-49 0 -75.5 -30t-26.5 -72t26.5 -72.5t75.5 -30.5t76 30.5t27 72.5t-27 72t-76 30zM259 536q0 -46 -29.5 -79t-82.5 -33t-82 33t-29 79t29 78.5t82 32.5t82.5 -33t29.5 -78zM469 210q-49 0 -76 -30.5t-27 -72.5t27 -72.5t76 -30.5t75.5 30.5t26.5 72.5
t-26.5 72.5t-75.5 30.5zM580 107q0 -46 -29 -78.5t-82 -32.5t-82.5 32.5t-29.5 78.5t29.5 79t82.5 33t82 -33t29 -79zM63 33l-6 6l500 571l6 -6z" />
    <glyph glyph-name="ampersand" unicode="&#x26;" horiz-adv-x="651" 
d="M536 0q-33 0 -73 44h-1q-76 -48 -169 -48q-126 0 -191.5 54.5t-65.5 127.5q0 54 37.5 104.5t103.5 79.5q-34 50 -34 101v1q0 68 48.5 116.5t116.5 48.5t116.5 -44t48.5 -107v-5h-40v9h31q-2 57 -47.5 98t-108.5 41q-64 0 -110 -46t-46 -111v-1q0 -45 26.5 -87t107.5 -129
l178 -191q107 71 107 198q0 11 -4 27t-14 37t-32 36t-52 16v-31h-9v40h4q34 0 59 -15.5t36 -38.5t16 -41t5 -30q0 -132 -110 -205q38 -40 66 -40h80v-9h-80zM45 178q0 -69 62.5 -121.5t185.5 -52.5q87 0 163 47l-177 190q-68 72 -97 114q-64 -28 -100.5 -76.5t-36.5 -100.5z
" />
    <glyph glyph-name="quotesingle" unicode="'" horiz-adv-x="133" 
d="M70 679l8 2q2 -8 2 -34q0 -53 -10 -85l-8 -28l-9 3l9 28q9 30 9 82q0 25 -1 32z" />
    <glyph glyph-name="parenleft" unicode="(" horiz-adv-x="223" 
d="M36 259q0 154 42 291t117 186l4 -8q-72 -47 -113 -181t-41 -288q0 -153 40.5 -279.5t113.5 -172.5l-4 -7q-76 49 -117.5 177.5t-41.5 281.5z" />
    <glyph glyph-name="parenright" unicode=")" horiz-adv-x="223" 
d="M28 -200l-4 7q73 46 114 172.5t41 279.5q0 154 -41.5 288t-113.5 181l4 8q75 -49 117.5 -186.5t42.5 -290.5q0 -152 -42 -281t-118 -178z" />
    <glyph glyph-name="asterisk" unicode="*" horiz-adv-x="285" 
d="M247 560l3 -8l-100 -36l63 -86l-8 -6l-62 86l-63 -86l-7 6l63 86l-101 36l3 8l100 -36v105h9v-105z" />
    <glyph glyph-name="plus" unicode="+" horiz-adv-x="437" 
d="M223 330h179v-9h-179v-178h-9v178h-178v9h178v179h9v-179z" />
    <glyph glyph-name="comma" unicode="," horiz-adv-x="133" 
d="M54 9q0 5 4 9t9 4t9 -4t4 -9q0 -41 -42 -91l-6 4q15 18 25 40t10 34q-5 0 -9 4t-4 9z" />
    <glyph glyph-name="hyphen" unicode="-" horiz-adv-x="285" 
d="M250 277h-214v9h214v-9z" />
    <glyph glyph-name="period" unicode="." horiz-adv-x="125" 
d="M45 9q0 5 4 9t9 4t9 -4t4 -9t-4 -9t-9 -4t-9 4t-4 9z" />
    <glyph glyph-name="slash" unicode="/" horiz-adv-x="517" 
d="M27 -49l-7 5l469 732l8 -5z" />
    <glyph glyph-name="zero" unicode="0" horiz-adv-x="544" 
d="M272 647q96 0 166.5 -84.5t70.5 -231.5q0 -154 -71 -244.5t-166 -90.5t-165.5 90.5t-70.5 243.5q0 147 70 232t166 85zM45 330q0 -151 68 -238.5t159 -87.5t159.5 88t68.5 239q0 143 -68 225t-160 82q-91 0 -159 -82.5t-68 -225.5z" />
    <glyph glyph-name="one" unicode="1" horiz-adv-x="187" 
d="M116 0h-9v632l-71 -80l-7 6l76 85h11v-643z" />
    <glyph glyph-name="two" unicode="2" horiz-adv-x="437" 
d="M219 647q76 0 129.5 -53.5t53.5 -129.5v-1q0 -48 -33.5 -102t-107.5 -128l-216 -221v-3h348v19h9v-28h-366v16l218 224q74 76 106.5 127t32.5 96v1q0 72 -51 123t-123 51t-123 -51t-51 -123h-9q0 76 53.5 129.5t129.5 53.5z" />
    <glyph glyph-name="three" unicode="3" horiz-adv-x="437" 
d="M219 362q57 0 97.5 40.5t40.5 97.5t-40.5 97.5t-97.5 40.5t-98 -40.5t-41 -97.5h-9q0 61 43.5 104t104.5 43t104 -43t43 -104q0 -53 -33 -92.5t-84 -50.5q66 -11 109.5 -60.5t43.5 -117.5q0 -76 -53.5 -129.5t-129.5 -53.5t-129.5 53.5t-53.5 129.5h9q0 -72 51 -123.5
t123 -51.5t123 51.5t51 123.5q0 73 -51 123.5t-123 50.5v9z" />
    <glyph glyph-name="four" unicode="4" horiz-adv-x="428" 
d="M357 429h9v-286h45v-9h-45v-134h-9v134h-321v16v1q118 178 161.5 282t43.5 210h9q0 -108 -44 -213.5t-161 -282.5v-4h312v286z" />
    <glyph glyph-name="five" unicode="5" horiz-adv-x="437" 
d="M45 98q24 -42 72 -68t95 -26q70 0 125.5 56t55.5 163q0 104 -54 161.5t-120 57.5q-48 0 -103 -35t-71 -87l-1 -3l-8 2l21 324h305v-27h-9v18h-287l-21 -292q23 48 75.5 78.5t98.5 30.5q70 0 126.5 -60.5t56.5 -167.5q0 -111 -58 -169t-132 -58q-50 0 -101 26.5t-75 71.5
v1v2v19h9v-18z" />
    <glyph glyph-name="six" unicode="6" horiz-adv-x="437" 
d="M228 451q69 0 121.5 -60t52.5 -168t-52.5 -167.5t-121.5 -59.5q-71 0 -131.5 60t-60.5 167q0 39 1 69t5 76.5t10.5 81.5t20.5 74.5t32.5 64.5t48 42t65.5 17q91 0 146 -73l1 -1v-20h-9v17q-52 68 -138 68q-160 0 -174 -341q20 72 73.5 112.5t109.5 40.5zM45 223
q0 -103 57.5 -161t125.5 -58q65 0 115 57.5t50 161.5q0 105 -50 162t-115 57q-67 0 -125 -58t-58 -161z" />
    <glyph glyph-name="seven" unicode="7" horiz-adv-x="410" 
d="M305 523l79 108v3h-357v-18h-9v27h375v-15l-81 -110q-76 -104 -109 -242.5t-33 -275.5h-9q0 138 33.5 277.5t110.5 245.5z" />
    <glyph glyph-name="eight" unicode="8" horiz-adv-x="437" 
d="M71 500q0 61 43.5 104t104.5 43t104 -43t43 -104q0 -53 -33 -92.5t-84 -50.5q66 -11 109.5 -60.5t43.5 -117.5q0 -76 -53.5 -129.5t-129.5 -53.5t-129.5 53.5t-53.5 129.5q0 68 43.5 117.5t109.5 60.5q-51 11 -84.5 50.5t-33.5 92.5zM45 179q0 -72 51 -123.5t123 -51.5
t123 51.5t51 123.5q0 73 -51 123.5t-123 50.5t-123 -50.5t-51 -123.5zM80 500q0 -57 41 -97.5t98 -40.5t97.5 40.5t40.5 97.5t-40.5 97.5t-97.5 40.5t-98 -40.5t-41 -97.5z" />
    <glyph glyph-name="nine" unicode="9" horiz-adv-x="437" 
d="M210 192q-69 0 -121.5 60t-52.5 168t52.5 167.5t121.5 59.5q71 0 131.5 -60t60.5 -167q0 -38 -1 -68t-5 -76.5t-10.5 -81.5t-20.5 -74.5t-32.5 -64.5t-48 -42t-65.5 -17q-94 0 -147 72l-1 2v19h9v-17q52 -68 139 -68q163 0 174 341q-20 -72 -73.5 -112.5t-109.5 -40.5z
M393 420q0 103 -57.5 160.5t-125.5 57.5q-65 0 -115 -57t-50 -161q0 -105 50 -162t115 -57q67 0 125 58t58 161z" />
    <glyph glyph-name="colon" unicode=":" horiz-adv-x="125" 
d="M45 9q0 5 4 9t9 4t9 -4t4 -9t-4 -9t-9 -4t-9 4t-4 9zM45 402q0 5 4 9t9 4t9 -4t4 -9t-4 -9t-9 -4t-9 4t-4 9z" />
    <glyph glyph-name="semicolon" unicode=";" horiz-adv-x="133" 
d="M54 402q0 5 4 9t9 4t9 -4t4 -9t-4 -9t-9 -4t-9 4t-4 9zM54 9q0 5 4 9t9 4t9 -4t4 -9q0 -41 -42 -91l-6 4q15 18 25 40t10 34q-5 0 -9 4t-4 9z" />
    <glyph glyph-name="less" unicode="&#x3c;" horiz-adv-x="303" 
d="M279 496l4 -8l-238 -161v-11l238 -169l-4 -7l-243 171v21z" />
    <glyph glyph-name="equal" unicode="=" horiz-adv-x="464" 
d="M429 393h-393v9h393v-9zM429 223h-393v9h393v-9z" />
    <glyph glyph-name="greater" unicode="&#x3e;" horiz-adv-x="303" 
d="M25 496l243 -164v-21l-243 -171l-4 7l238 169v11l-238 161z" />
    <glyph glyph-name="question" unicode="?" horiz-adv-x="401" 
d="M170 9q0 5 4 9t9 4t9 -4t4 -9t-4 -9t-9 -4t-9 4t-4 9zM179 262q0 31 18.5 54t44.5 39.5t52 34.5t44.5 49t18.5 74q0 65 -46 111t-110 46t-110 -46t-46 -111h-9q0 68 48.5 117t116.5 49t116.5 -49t48.5 -117q0 -44 -18.5 -76.5t-44.5 -51t-52 -34.5t-44.5 -38t-18.5 -51
v-74h-9v74z" />
    <glyph glyph-name="at" unicode="@" horiz-adv-x="776" 
d="M343 -116q-103 0 -178.5 45t-111 115.5t-35.5 155.5q0 162 121 283.5t299 121.5q78 0 141 -26.5t101.5 -70t58.5 -96t20 -107.5q0 -65 -21.5 -119t-54.5 -86t-69 -49t-69 -17q-77 0 -77 66v9q-22 -37 -58.5 -58.5t-70.5 -21.5q-50 0 -90.5 39.5t-40.5 112.5
q0 112 69.5 186.5t142.5 74.5h122l-61 -309q-4 -16 -4 -33q0 -57 68 -57q31 0 65.5 16.5t66.5 47t52.5 82.5t20.5 116q0 54 -19.5 105t-57 93t-98.5 67.5t-137 25.5q-174 0 -292.5 -118.5t-118.5 -277.5q0 -128 83 -217.5t233 -89.5q105 0 200 47l4 -8q-96 -48 -204 -48z
M472 135l59 298h-111q-69 0 -136 -71t-67 -181q0 -69 37.5 -106t84.5 -37q34 0 71 23t57 64z" />
    <glyph glyph-name="A" unicode="A" horiz-adv-x="589" 
d="M295 669l-185 -473h370zM484 188h-378l-73 -188h-20v9h15l263 674h7l269 -681l-8 -4z" />
    <glyph glyph-name="B" unicode="B" horiz-adv-x="589" 
d="M554 183q0 -76 -57.5 -129.5t-161.5 -53.5h-264v670h-17v9h209q103 0 161 -43.5t58 -105.5q0 -49 -38.5 -91t-105.5 -59v-1q98 -4 157 -63.5t59 -132.5zM80 379h183q98 0 154 46t56 105q0 58 -55 99t-155 41h-183v-291zM326 371h-246v-362h255q100 0 155 51t55 123
t-60 130t-159 58z" />
    <glyph glyph-name="C" unicode="C" horiz-adv-x="607" 
d="M379 -4q-143 0 -243 100t-100 243t100.5 243.5t242.5 100.5q105 0 195 -64l2 -2v-28h-9v23q-88 62 -188 62q-139 0 -236.5 -98t-97.5 -237t97.5 -237t236.5 -98q108 0 194 62l6 -7q-88 -63 -200 -63z" />
    <glyph glyph-name="D" unicode="D" horiz-adv-x="660" 
d="M54 679h241q136 0 233 -101.5t97 -238.5t-97 -238t-233 -101h-224v670h-17v9zM80 9h215q133 0 227 98t94 232t-94.5 232.5t-226.5 98.5h-215v-661z" />
    <glyph glyph-name="E" unicode="E" horiz-adv-x="553" 
d="M80 670v-340h241v-9h-241v-312h429v18h9v-27h-447v670h-17v9h437v-27h-9v18h-402z" />
    <glyph glyph-name="F" unicode="F" horiz-adv-x="553" 
d="M71 0v670h-17v9h464v-27h-9v18h-429v-340h277v-9h-277v-321h-9z" />
    <glyph glyph-name="G" unicode="G" horiz-adv-x="642" 
d="M612 321v-321h-9v96q-42 -45 -102 -72.5t-122 -27.5q-143 0 -243 100t-100 243t100.5 243.5t242.5 100.5q103 0 191 -63l1 -2v-29h-9v25q-85 60 -183 60q-139 0 -236.5 -98t-97.5 -237t97.5 -237t236.5 -98q62 0 122.5 29t101.5 76v203h-152v9h161z" />
    <glyph glyph-name="H" unicode="H" horiz-adv-x="607" 
d="M80 0h-9v679h9v-340h447v340h9v-679h-9v330h-447v-330z" />
    <glyph glyph-name="I" unicode="I" horiz-adv-x="151" 
d="M80 0h-9v679h9v-679z" />
    <glyph glyph-name="J" unicode="J" horiz-adv-x="348" 
d="M71 679h224v-536q0 -68 -44.5 -107.5t-106.5 -39.5q-86 0 -126 60v11h9v-9q18 -26 50 -40t67 -14q58 0 100 37.5t42 101.5v527h-215v9z" />
    <glyph glyph-name="K" unicode="K" horiz-adv-x="571" 
d="M464 46q31 -37 81 -37v-9q-53 0 -87 40l-257 301l-121 -143v-198h-9v679h9v-467l397 467h32v-9h-28l-274 -323z" />
    <glyph glyph-name="L" unicode="L" horiz-adv-x="553" 
d="M80 9h429v18h9v-27h-447v679h9v-670z" />
    <glyph glyph-name="M" unicode="M" horiz-adv-x="883" 
d="M759 683h9l89 -683l-8 -1l-88 667l-310 -670h-18l-310 669l-80 -665h-25v9h17l81 674h9l314 -679h6z" />
    <glyph glyph-name="N" unicode="N" horiz-adv-x="616" 
d="M545 679v-683h-10l-455 670v-662h-9v666h-17v9h28l454 -669v669h9z" />
    <glyph glyph-name="O" unicode="O" horiz-adv-x="758" 
d="M379 674q-139 0 -236.5 -98t-97.5 -237t97.5 -237t236.5 -98t237 98t98 237t-98 237t-237 98zM379 683q142 0 243 -101t101 -243t-101 -242.5t-243 -100.5t-242.5 100.5t-100.5 242.5t100.5 243t242.5 101z" />
    <glyph glyph-name="P" unicode="P" horiz-adv-x="571" 
d="M312 241q89 0 152 63t63 151q0 89 -63.5 152t-151.5 63h-232v-429h232zM80 232v-232h-9v670h-17v9h258q92 0 158 -66t66 -158t-66 -157.5t-158 -65.5h-232z" />
    <glyph glyph-name="Q" unicode="Q" horiz-adv-x="758" 
d="M379 683q142 0 243 -101t101 -243q0 -141 -99.5 -241t-239.5 -102q-164 0 -232 -98l30 -34q35 41 97 41q46 0 146 -30t130 -30q27 0 45.5 18.5t18.5 38.5h9q0 -24 -22 -45t-51 -21q-31 0 -131 30t-145 30q-60 0 -93 -42l-3 -4l-42 47l2 3q57 84 178 100
q-122 21 -203.5 116.5t-81.5 222.5q0 142 100.5 243t242.5 101zM379 674q-139 0 -236.5 -98t-97.5 -237t97.5 -237t236.5 -98h1q139 0 236.5 98t97.5 237t-98 237t-237 98z" />
    <glyph glyph-name="R" unicode="R" horiz-adv-x="571" 
d="M80 312v-312h-9v670h-17v9h241q101 0 157.5 -54t56.5 -129t-56.5 -129t-157.5 -54h-31v-1q27 -8 45.5 -27t41.5 -59l112 -176q16 -25 30 -33t37 -8h24v-9h-24q-24 0 -40.5 9.5t-33.5 36.5l-112 175q-34 58 -61 74.5t-95 16.5h-108zM295 321q97 0 151 52t54 123
t-53.5 122.5t-151.5 51.5h-215v-349h215z" />
    <glyph glyph-name="S" unicode="S" horiz-adv-x="580" 
d="M45 100q34 -34 104 -65t141 -31q115 0 180.5 43t65.5 105q0 32 -14 59t-32.5 45t-54 37.5t-61 30t-71.5 27.5q-123 46 -164 74q-68 46 -68 111q0 67 64 107t155 40q57 0 115.5 -20.5t98.5 -60.5v-2v-29h-8v25q-40 39 -96.5 58.5t-109.5 19.5q-88 0 -149 -38t-61 -100
q0 -23 7.5 -42t26 -35.5t34 -28t48.5 -26.5t51 -22t59 -22q45 -17 70.5 -27.5t62.5 -30.5t56.5 -39t34.5 -48t15 -63q0 -67 -68.5 -111.5t-186.5 -44.5q-74 0 -146.5 32t-106.5 67l-1 1v29h9v-25z" />
    <glyph glyph-name="T" unicode="T" horiz-adv-x="580" 
d="M36 679h509v-27h-9v18h-241v-670h-9v670h-241v-18h-9v27z" />
    <glyph glyph-name="U" unicode="U" horiz-adv-x="616" 
d="M545 232q0 -98 -69.5 -167t-167.5 -69t-167.5 69t-69.5 167v438h-17v9h26v-447q0 -94 67 -161t161 -67t161 67t67 161v447h9v-447z" />
    <glyph glyph-name="V" unicode="V" horiz-adv-x="580" 
d="M571 677l-268 -681h-7l-264 674h-14v9h20l261 -668l264 669z" />
    <glyph glyph-name="W" unicode="W" horiz-adv-x="919" 
d="M465 512v95h9v-95l182 -501l247 669l8 -3l-251 -681h-8l-182 501l-186 -501h-8l-244 674h-14v9h21l241 -668z" />
    <glyph glyph-name="X" unicode="X" horiz-adv-x="589" 
d="M541 681l7 -5l-247 -325l265 -348l-7 -6l-264 347l-265 -347l-7 6l267 348l-244 319h-19v9h23l245 -320z" />
    <glyph glyph-name="Y" unicode="Y" horiz-adv-x="580" 
d="M562 670l-258 -424v-246h-9v246l-261 424h-16v9h21l260 -422l255 414v8h8v-9z" />
    <glyph glyph-name="Z" unicode="Z" horiz-adv-x="571" 
d="M518 679v-10l-471 -660h480v18h9v-27h-500v9l471 661h-445v-18h-8v27h464z" />
    <glyph glyph-name="bracketleft" unicode="[" horiz-adv-x="196" 
d="M80 741v-946h81v-9h-90v964h90v-9h-81z" />
    <glyph glyph-name="backslash" unicode="\" 
d="M505 -45l-7 -4l-469 732l8 5z" />
    <glyph glyph-name="bracketright" unicode="]" horiz-adv-x="214" 
d="M134 741h-98v9h107v-964h-107v9h98v946z" />
    <glyph glyph-name="asciicircum" unicode="^" horiz-adv-x="446" 
d="M32 427l-6 6l196 246h9l190 -247l-8 -5l-187 243z" />
    <glyph glyph-name="underscore" unicode="_" horiz-adv-x="678" 
d="M643 -179h-607v9h607v-9z" />
    <glyph glyph-name="grave" unicode="`" horiz-adv-x="214" 
d="M154 551l-100 99l7 6l99 -99z" />
    <glyph glyph-name="a" unicode="a" horiz-adv-x="500" 
d="M107 412v19l2 1q62 37 154 37q75 0 125 -35.5t50 -112.5v-312h17v-9h-26v91q-29 -44 -89 -69.5t-121 -25.5q-78 0 -130.5 39t-52.5 105q0 53 47.5 86t135.5 33h210v62q0 40 -15 68.5t-40 43t-52.5 21t-58.5 6.5q-87 0 -147 -34v-14h-9zM429 250h-210q-85 0 -129.5 -30.5
t-44.5 -79.5q0 -62 49.5 -99t124.5 -37q65 0 126.5 28.5t83.5 75.5v142z" />
    <glyph glyph-name="b" unicode="b" 
d="M45 679h26v-377q20 74 76 120.5t134 46.5q96 0 157.5 -69t61.5 -168t-61.5 -167.5t-157.5 -68.5q-78 0 -134 46t-76 120v-162h-9v670h-17v9zM71 232q0 -96 58.5 -162t151.5 -66t151.5 66t58.5 162t-58.5 162t-151.5 66t-151.5 -66t-58.5 -162z" />
    <glyph glyph-name="c" unicode="c" horiz-adv-x="482" 
d="M272 -4q-98 0 -167 69t-69 167t69.5 167.5t166.5 69.5q95 0 164 -66l2 -1v-23h-9v18q-68 63 -157 63q-94 0 -160.5 -66.5t-66.5 -161.5t66.5 -161.5t160.5 -66.5q98 0 166 73l8 -6q-70 -75 -174 -75z" />
    <glyph glyph-name="d" unicode="d" 
d="M464 232q0 96 -58.5 162t-151.5 66t-151 -65.5t-58 -162.5t58 -162.5t151 -65.5t151.5 66t58.5 162zM446 670v9h27v-670h18v-9h-27v162q-20 -74 -76 -120t-134 -46q-96 0 -157 68.5t-61 167.5q0 100 61 168.5t157 68.5q78 0 134 -46.5t76 -120.5v368h-18z" />
    <glyph glyph-name="e" unicode="e" horiz-adv-x="500" 
d="M250 241q22 0 45.5 7.5t50.5 25.5t40.5 27.5t42.5 34.5t30 26q-31 45 -80.5 71.5t-106.5 26.5q-91 0 -157 -63.5t-70 -155.5h205zM45 232q0 -95 66.5 -161.5t160.5 -66.5q98 0 166 73l8 -6q-70 -75 -174 -75q-98 0 -167 69t-69 167q0 97 69.5 167t166.5 70
q59 0 111.5 -28.5t85.5 -76.5l2 -3l-3 -2l-39 -33q-39 -33 -58 -46.5t-55.5 -30.5t-66.5 -17h-204z" />
    <glyph glyph-name="f" unicode="f" horiz-adv-x="357" 
d="M36 455v9h71v81q0 57 41 97.5t98 40.5q37 0 69 -19t50 -50l1 -1v-20h-9v17q-39 64 -111 64q-54 0 -92 -37.5t-38 -91.5v-81h170v-9h-170v-455h-9v455h-71z" />
    <glyph glyph-name="g" unicode="g" horiz-adv-x="491" 
d="M104 35q-32 -21 -54.5 -62.5t-22.5 -81.5q0 -96 128 -96h196q56 0 84.5 23.5t28.5 57.5q0 30 -21.5 56.5t-58.5 35.5zM85 312q0 -70 46 -108.5t110 -38.5t110 38.5t46 108.5t-46.5 109t-109.5 39q-64 0 -110 -39t-46 -109zM70 81q0 -30 36 -38l281 -67q39 -9 62.5 -38
t23.5 -62q0 -38 -31 -64t-91 -26h-196q-71 0 -104 29.5t-33 75.5q0 40 22 81.5t54 65.5q-33 12 -33 43q0 44 66 115q-51 44 -51 116q0 74 49 115.5t116 41.5q59 0 103 -31h120v-9h-108q50 -43 50 -117t-49 -115t-116 -41q-62 0 -108 35q-19 -18 -41 -51.5t-22 -58.5z" />
    <glyph glyph-name="h" unicode="h" 
d="M308 469q76 0 120.5 -39.5t44.5 -108.5v-312h18v-9h-27v321q0 65 -42 102t-114 37q-93 0 -160.5 -71t-67.5 -175v-214h-9v670h-17v9h26v-394q22 82 85 133t143 51z" />
    <glyph glyph-name="i" unicode="i" horiz-adv-x="151" 
d="M62 607q0 5 4.5 9.5t9.5 4.5t9 -4.5t4 -9.5t-4 -9t-9 -4t-9.5 4t-4.5 9zM71 455h-17v9h26v-464h-9v455z" />
    <glyph glyph-name="j" unicode="j" horiz-adv-x="142" 
d="M62 607q0 5 4.5 9.5t9.5 4.5t9 -4.5t4 -9.5t-4 -9t-9 -4t-9.5 4t-4.5 9zM54 464h26v-558q0 -50 -35 -85t-85 -35q-66 0 -102 56l-1 1v14h9v-11l1 -1q33 -50 93 -50q46 0 78.5 32.5t32.5 78.5v549h-17v9z" />
    <glyph glyph-name="k" unicode="k" horiz-adv-x="526" 
d="M71 0v670h-17v9h26v-582l348 367h36v-9h-33l-197 -208l177 -197q37 -41 89 -41v-9q-56 0 -96 44l-176 197l-148 -157v-84h-9z" />
    <glyph glyph-name="l" unicode="l" horiz-adv-x="142" 
d="M71 670h-17v9h26v-679h-9v670z" />
    <glyph glyph-name="m" unicode="m" horiz-adv-x="857" 
d="M290 469q73 0 110.5 -38.5t37.5 -109.5v-31q20 81 76 130t133 49q73 0 110.5 -38.5t37.5 -109.5v-312h17v-9h-26v321q0 139 -139 139q-91 0 -150 -70t-59 -176v-214h-9v214v107q0 139 -139 139q-91 0 -150.5 -70t-59.5 -176v-214h-9v455h-13v9h22v-174q20 81 76.5 130
t133.5 49z" />
    <glyph glyph-name="n" unicode="n" 
d="M308 469q76 0 120.5 -39.5t44.5 -108.5v-312h18v-9h-27v321q0 65 -42 102t-114 37q-93 0 -160.5 -71t-67.5 -175v-214h-9v455h-17v9h26v-179q22 82 85 133t143 51z" />
    <glyph glyph-name="o" unicode="o" horiz-adv-x="544" 
d="M272 469q98 0 167.5 -69.5t69.5 -167.5t-69.5 -167t-167.5 -69t-167 69t-69 167t69 167.5t167 69.5zM45 232q0 -95 66.5 -161.5t160.5 -66.5t161 67t67 161t-67 161t-161 67t-160.5 -66.5t-66.5 -161.5z" />
    <glyph glyph-name="p" unicode="p" 
d="M71 455h-17v9h26v-168q18 77 74 125t136 48q96 0 157.5 -68.5t61.5 -168.5q0 -99 -61.5 -167.5t-157.5 -68.5q-80 0 -136 48t-74 125v-383h-9v669zM80 232q0 -96 59 -162t151 -66t151 66t59 162t-59 162t-151 66t-151 -66t-59 -162z" />
    <glyph glyph-name="q" unicode="q" 
d="M464 232q0 96 -58.5 162t-151.5 66t-151 -65.5t-58 -162.5t58 -162.5t151 -65.5t151.5 66t58.5 162zM464 464h9v-669h18v-9h-27v376q-20 -74 -76 -120t-134 -46q-96 0 -157 68.5t-61 167.5q0 100 61 168.5t157 68.5q78 0 134 -46.5t76 -120.5v162z" />
    <glyph glyph-name="r" unicode="r" horiz-adv-x="321" 
d="M281 469h5v-31h-9v22q-67 -3 -132 -82t-65 -190v-188h-9v455h-17v9h26v-200q21 89 82.5 147t118.5 58z" />
    <glyph glyph-name="s" unicode="s" horiz-adv-x="437" 
d="M45 73q53 -69 174 -69q82 0 128 30.5t46 72.5q0 41 -33 69.5t-80.5 44.5t-95 32.5t-80.5 44.5t-33 68q0 38 44.5 70.5t103.5 32.5q91 0 146 -55l1 -1v-20h-9v16q-52 51 -138 51q-57 0 -98 -30.5t-41 -63.5q0 -38 33 -64t80.5 -42t95 -33t80.5 -47t33 -73q0 -47 -49 -79
t-134 -32q-127 0 -182 73l-1 1v19h9v-16z" />
    <glyph glyph-name="t" unicode="t" horiz-adv-x="392" 
d="M107 134q0 -54 38.5 -92t91.5 -38q72 0 111 64v12h9v-14v-1q-18 -31 -50 -50t-70 -19q-57 0 -98 40.5t-41 97.5v321h-62v9h62v107h9v-107h214v-9h-214v-321z" />
    <glyph glyph-name="u" unicode="u" 
d="M237 -4q-76 0 -121 39t-45 108v312h-17v9h26v-321q0 -65 42.5 -102t114.5 -37q93 0 160 71t67 175v214h9v-455h18v-9h-27v180q-22 -82 -85 -133t-142 -51z" />
    <glyph glyph-name="v" unicode="v" horiz-adv-x="517" 
d="M500 464v-20l-224 -453h-7l-229 464h-18v9h24l226 -460l219 443v17h9z" />
    <glyph glyph-name="w" unicode="w" horiz-adv-x="785" 
d="M768 464v-19l-197 -454h-8l-157 362l-156 -362h-9l-201 464h-18v9h25l199 -460l155 361l1 1v80h9v-80v-1l156 -361l192 443v17h9z" />
    <glyph glyph-name="x" unicode="x" horiz-adv-x="482" 
d="M434 467l7 -5l-194 -220l212 -239l-7 -6l-211 239l-211 -239l-7 6l212 239l-189 213h-19v9h24l190 -215z" />
    <glyph glyph-name="y" unicode="y" horiz-adv-x="526" 
d="M18 455v9h26l218 -490l238 496l9 -5l-288 -595q-41 -84 -105 -84q-57 0 -95 56v15h8v-14q34 -48 87 -48q59 0 97 78l44 90l-219 492h-20z" />
    <glyph glyph-name="z" unicode="z" horiz-adv-x="500" 
d="M54 438v26h392v-11l-401 -444h410v18h9v-27h-428v12l401 443h-375v-17h-8z" />
    <glyph glyph-name="braceleft" unicode="{" horiz-adv-x="196" 
d="M71 -103v274q0 45 -22.5 65t-44.5 20h-4v23h4q22 0 44.5 20t22.5 65v274q0 46 32 79t76 33v-9q-40 0 -69.5 -30.5t-29.5 -72.5v-274q0 -47 -22.5 -69t-48.5 -24v-6q25 -2 48 -24.5t23 -69.5v-274q0 -42 29 -72t70 -30v-9q-44 0 -76 32.5t-32 78.5z" />
    <glyph glyph-name="bar" unicode="|" horiz-adv-x="151" 
d="M71 643h9v-822h-9v822z" />
    <glyph glyph-name="braceright" unicode="}" horiz-adv-x="196" 
d="M125 -103q0 -46 -31.5 -78.5t-75.5 -32.5v9q40 0 69 30t29 72v274q0 47 23 69.5t49 24.5v6q-26 2 -49 24t-23 69v274q0 42 -29 72.5t-69 30.5v9q44 0 75.5 -33t31.5 -79v-274q0 -45 22.5 -65t44.5 -20h4v-23h-4q-22 0 -44.5 -20t-22.5 -65v-274z" />
    <glyph glyph-name="asciitilde" unicode="~" horiz-adv-x="357" 
d="M102 372q18 0 37 -9l84 -39q15 -9 33 -9q33 0 44 33l10 -1q-13 -41 -54 -41q-16 0 -38 10l-84 39q-13 8 -32 8q-35 0 -46 -32l-9 1q14 40 55 40z" />
    <glyph glyph-name="exclamdown" unicode="&#xa1;" horiz-adv-x="151" 
d="M90 455q0 -5 -4.5 -9t-9.5 -4t-9 4t-4 9t4 9t9 4t9.5 -4t4.5 -9zM81 -215h-27v9h18v491h9v-500z" />
    <glyph glyph-name="cent" unicode="&#xa2;" horiz-adv-x="482" 
d="M259 571h9v-67h4q95 0 164 -66h2v-23h-9v18q-68 63 -157 63h-4v-456h4q99 0 166 72l8 -6q-70 -75 -174 -75h-4v-85h-9v85q-93 5 -158 74t-65 163t65 162.5t158 73.5v67zM259 40v456q-90 -5 -152 -71t-62 -157t62 -157t152 -71z" />
    <glyph glyph-name="sterling" unicode="&#xa3;" horiz-adv-x="517" 
d="M18 9q52 2 88.5 39.5t36.5 89.5v183h-72v9h72v179q0 58 40.5 98t97.5 40q38 0 70 -18.5t50 -50.5h1v-16h-9v12l-1 2q-38 62 -111 62q-53 0 -91 -38t-38 -91v-179h169v-9h-169v-183q0 -38 -19.5 -70.5t-51.5 -50.5l-15 -8h407v18h9v-27h-464v9z" />
    <glyph glyph-name="currency" unicode="&#xa4;" horiz-adv-x="303" 
d="M154 421q40 0 70 -25l10 -6l45 45l6 -6l-45 -45l6 -10q23 -29 23 -68q0 -36 -21 -66l-6 -9l41 -42l-7 -6l-41 41l-9 -7q-33 -25 -72 -25t-67 22l-10 7l-42 -41l-6 6l42 41l-7 10q-24 29 -24 69q0 39 25 72l7 9l-45 45l7 6l45 -45l9 7q30 21 66 21zM229 381q-31 31 -75 31
q-43 0 -74 -31t-31 -75q0 -43 31 -74t74 -31q44 0 75 31t31 74q0 44 -31 75z" />
    <glyph glyph-name="yen" unicode="&#xa5;" horiz-adv-x="580" 
d="M446 259v-9h-140l-2 -4v-67h142v-9h-142v-170h-9v170h-152v9h152v67l-3 4h-149v9h144l-253 411h-16v9h21l259 -420h2l260 422l7 -4l-256 -418h135z" />
    <glyph glyph-name="brokenbar" unicode="&#xa6;" horiz-adv-x="151" 
d="M80 143v-357h-9v357h9zM71 321v358h9v-358h-9z" />
    <glyph glyph-name="section" unicode="&#xa7;" horiz-adv-x="571" 
d="M272 670q-79 0 -117.5 -34.5t-38.5 -89.5q0 -54 40.5 -90.5t98 -58.5t115.5 -45t98.5 -65.5t40.5 -105.5q0 -46 -32 -82t-93 -55q80 -49 80 -125q0 -58 -41 -95.5t-124 -37.5q-68 0 -116.5 48.5t-48.5 116.5h9q0 -65 45.5 -110.5t110.5 -45.5q79 0 117.5 34.5t38.5 89.5
q0 40 -21.5 70t-56.5 49t-77 35t-83.5 33.5t-76.5 39t-56.5 56.5t-21.5 81t32.5 82.5t93.5 55.5q-81 50 -81 125q0 58 41 95.5t124 37.5q68 0 117 -49t49 -117h-9q0 65 -46 111t-111 46zM374 50q64 19 95 53.5t31 77.5t-19.5 75.5t-55 54.5t-71 36.5t-82.5 33t-75 33.5
q-64 -18 -95 -53t-31 -78t19.5 -75.5t55 -54.5t71 -36.5t82.5 -33t75 -33.5z" />
    <glyph glyph-name="dieresis" unicode="&#xa8;" horiz-adv-x="357" 
d="M71 594q0 5 4.5 9t9.5 4t9 -4t4 -9t-4 -9.5t-9 -4.5t-9.5 4.5t-4.5 9.5zM259 594q0 5 4 9t9 4t9.5 -4t4.5 -9t-4.5 -9.5t-9.5 -4.5t-9 4.5t-4 9.5z" />
    <glyph glyph-name="copyright" unicode="&#xa9;" horiz-adv-x="821" 
d="M420 129q-87 0 -148.5 61.5t-61.5 148.5t61.5 148.5t148.5 61.5q75 0 136 -51l2 -1v-19h-9v14l-2 2q-56 46 -127 46q-83 0 -142 -59t-59 -142t59 -142t142 -59q85 0 144 60l7 -6q-62 -63 -151 -63zM415 4q107 0 188 44q82 44 134 125q49 78 49 168t-49 168
q-51 79 -134 125q-85 46 -188 46t-188 -46q-83 -46 -134 -125q-48 -76 -48 -168t48 -168q52 -82 135 -125q83 -44 187 -44zM415 -5q-107 0 -192 46q-86 45 -137 128q-50 78 -50 172t50 172q50 80 137 128q89 48 192 48t192 -48q89 -49 138 -128q50 -78 50 -172t-50 -172
q-49 -79 -138 -128q-83 -46 -192 -46z" />
    <glyph glyph-name="ordfeminine" unicode="&#xaa;" horiz-adv-x="392" 
d="M348 321h-27v65q-22 -32 -62 -50.5t-83 -18.5q-60 0 -100 28.5t-40 78.5q0 41 37 69.5t103 28.5h145v49q0 56 -34.5 79.5t-85.5 23.5q-78 0 -121 -32v-8h-9v12l2 2q43 35 128 35q56 0 92.5 -27t36.5 -85v-241h18v-9zM321 402v111h-145q-63 0 -97 -26t-34 -63
q0 -45 37.5 -71.5t93.5 -26.5q47 0 87.5 20.5t57.5 55.5z" />
    <glyph glyph-name="guillemotleft" unicode="&#xab;" horiz-adv-x="339" 
d="M179 231l123 -149l-7 -6l-125 151v10l125 153l7 -6l-123 -150v-3zM45 231l123 -149l-7 -6l-125 151v10l125 153l7 -6l-123 -150v-3z" />
    <glyph glyph-name="logicalnot" unicode="&#xac;" 
d="M36 339h428v-214h-9v205h-419v9z" />
    <glyph glyph-name="uni00AD" unicode="&#xad;" horiz-adv-x="285" 
d="M250 277h-214v9h214v-9z" />
    <glyph glyph-name="registered" unicode="&#xae;" horiz-adv-x="830" 
d="M415 4q107 0 188 44q82 44 134 125q49 78 49 168t-49 168q-51 79 -134 125q-85 46 -188 46t-188 -46q-83 -46 -134 -125q-48 -76 -48 -168t48 -168q52 -82 135 -125q83 -44 187 -44zM429 330q58 0 90 30.5t32 72.5t-32 72.5t-90 30.5h-126v-206h126zM571 134
q-27 0 -45 28l-72 113q-21 32 -35.5 39t-56.5 7h-59v-187h-9v411h135q62 0 96.5 -33.5t34.5 -78.5q0 -44 -32.5 -77t-90.5 -35h-11q19 -14 36 -41l71 -114q15 -23 38 -23h21v-9h-21zM415 -5q-107 0 -192 46q-86 45 -137 128q-50 78 -50 172t50 172q50 80 137 128
q89 48 192 48t192 -48q89 -49 138 -128q50 -78 50 -172t-50 -172q-49 -79 -138 -128q-83 -46 -192 -46z" />
    <glyph glyph-name="macron" unicode="&#xaf;" horiz-adv-x="357" 
d="M321 607h-285v9h285v-9z" />
    <glyph glyph-name="degree" unicode="&#xb0;" horiz-adv-x="250" 
d="M125 679q34 0 61.5 -27t27.5 -63q0 -35 -27.5 -62t-61.5 -27t-61.5 27t-27.5 62q0 36 27.5 63t61.5 27zM125 509q30 0 55 24.5t25 55.5t-25 56t-55 25t-55 -25t-25 -56t25 -55.5t55 -24.5z" />
    <glyph glyph-name="plusminus" unicode="&#xb1;" horiz-adv-x="437" 
d="M223 366h179v-9h-179v-178h-9v178h-178v9h178v179h9v-179zM402 71h-366v9h366v-9z" />
    <glyph glyph-name="two.superior" unicode="&#xb2;" horiz-adv-x="294" 
d="M259 429h-223v19l134 136q44 44 62 73t18 57q0 43 -30 73t-73 30q-41 0 -71 -28.5t-31 -69.5h-9q1 45 33.5 76t77.5 31q47 0 79.5 -33t32.5 -79q0 -31 -19 -61.5t-64 -75.5l-131 -132v-7h205v17h9v-26z" />
    <glyph glyph-name="three.superior" unicode="&#xb3;" horiz-adv-x="294" 
d="M36 538h9q0 -43 30 -74t72 -31t72.5 31t30.5 74t-30 73.5t-73 30.5v9q34 0 58 24.5t24 58.5t-24 58.5t-58 24.5t-57.5 -24.5t-23.5 -58.5h-9q0 37 26.5 64.5t63.5 27.5t64 -27.5t27 -64.5q0 -27 -14 -49.5t-37 -33.5l-9 -4l10 -4q32 -12 51.5 -40.5t19.5 -64.5
q0 -47 -33 -80.5t-79 -33.5t-78.5 33.5t-32.5 80.5z" />
    <glyph glyph-name="acute" unicode="&#xb4;" horiz-adv-x="214" 
d="M61 551l-7 6l100 99l6 -6z" />
    <glyph glyph-name="uni00B5" unicode="&#xb5;" 
d="M79 26q0 -23 5.5 -60.5t5.5 -52.5q0 -33 -16 -58l-7 5q14 22 14 53q0 14 -5 51.5t-5 61.5v429h-17v9h26v-321q0 -65 42.5 -102t114.5 -37q93 0 160 71t67 175v214h9v-455h18v-9h-27v180q-22 -82 -85 -133t-142 -51q-60 0 -101.5 25.5t-56.5 71.5v-67z" />
    <glyph glyph-name="paragraph" unicode="&#xb6;" horiz-adv-x="401" 
d="M170 384h9v250h-9q-52 0 -89 -37q-36 -36 -36 -88q0 -53 36 -89t89 -36zM188 634v-813h-9v554h-9q-56 0 -95 39t-39 95t39 95t95 39h160v-822h-9v813h-133z" />
    <glyph glyph-name="periodcentered" unicode="&#xb7;" horiz-adv-x="125" 
d="M45 237q0 5 4 9t9 4t9 -4t4 -9t-4 -9.5t-9 -4.5t-9 4.5t-4 9.5z" />
    <glyph glyph-name="cedilla" unicode="&#xb8;" horiz-adv-x="401" 
d="M161 -55q16 9 35 9q27 0 42 -18.5t15 -44.5q0 -28 -18.5 -49t-51.5 -21q-34 0 -56 25l7 5q19 -22 49 -22q29 0 45 18.5t16 43.5q0 23 -13.5 38.5t-34.5 15.5q-17 0 -38 -13h-2l-15 5l22 73l8 -2l-19 -68z" />
    <glyph glyph-name="one.superior" unicode="&#xb9;" horiz-adv-x="151" 
d="M34 769l-6 6l41 47h11v-393h-9v382z" />
    <glyph glyph-name="ordmasculine" unicode="&#xba;" horiz-adv-x="437" 
d="M402 500q0 -76 -53.5 -129.5t-129.5 -53.5t-129.5 53.5t-53.5 129.5t53.5 129.5t129.5 53.5t129.5 -53.5t53.5 -129.5zM219 674q-72 0 -123 -51t-51 -123t51 -123t123 -51t123 51t51 123t-51 123t-123 51z" />
    <glyph glyph-name="guillemotright" unicode="&#xbb;" horiz-adv-x="339" 
d="M161 231v3l-124 150l7 6l126 -153v-10l-126 -151l-7 6zM295 231v3l-124 150l7 6l126 -153v-10l-126 -151l-7 6z" />
    <glyph glyph-name="onequarter" unicode="&#xbc;" horiz-adv-x="625" 
d="M20 33l-6 6l500 571l6 -6zM544 215h9v-148h36v-9h-36v-93h-9v93h-196v11q74 111 102 171t29 118h9q-1 -60 -28.5 -118.5t-98.5 -165.5l-5 -7h188v148zM34 626l-6 6l41 47h11v-393h-9v382z" />
    <glyph glyph-name="onehalf" unicode="&#xbd;" horiz-adv-x="625" 
d="M20 33l-6 6l500 571l6 -6zM580 -35h-223v19l134 136q44 44 62 73t18 57q0 43 -30 73t-73 30q-41 0 -71 -28.5t-31 -69.5h-9q1 45 33.5 76t77.5 31q46 0 79 -33t33 -79q0 -31 -19 -61.5t-64 -75.5l-131 -132v-7h205v17h9v-26zM34 626l-6 6l41 47h11v-393h-9v382z" />
    <glyph glyph-name="threequarters" unicode="&#xbe;" horiz-adv-x="732" 
d="M128 33l-7 6l500 571l7 -6zM652 215h9v-148h36v-9h-36v-93h-9v93h-196v11q74 111 102 171t29 118h9q-1 -60 -28.5 -118.5t-98.5 -165.5l-5 -7h188v148zM36 395h9q0 -43 30 -74t72 -31t72.5 31t30.5 74t-30 73.5t-73 30.5v9q34 0 58 24.5t24 58.5t-24 58.5t-58 24.5
t-57.5 -24.5t-23.5 -58.5h-9q0 37 26.5 64.5t63.5 27.5t64 -27.5t27 -64.5q0 -57 -51 -83l-9 -4l10 -4q32 -12 51.5 -40.5t19.5 -64.5q0 -47 -33 -80.5t-79 -33.5t-78.5 33.5t-32.5 80.5z" />
    <glyph glyph-name="questiondown" unicode="&#xbf;" horiz-adv-x="401" 
d="M232 455q0 -5 -4 -9t-9 -4t-9 4t-4 9t4 9t9 4t9 -4t4 -9zM223 202q0 -31 -18.5 -54t-44.5 -39.5t-52 -34.5t-44.5 -49t-18.5 -74q0 -65 46 -111t110 -46t110 46t46 111h9q0 -68 -48.5 -117t-116.5 -49t-116.5 49t-48.5 117q0 44 18.5 76.5t44.5 51t52 34.5t44.5 38
t18.5 51v74h9v-74z" />
    <glyph glyph-name="Agrave" unicode="&#xc0;" horiz-adv-x="589" 
d="M323 765l-99 99l6 6l99 -99zM295 669l-185 -473h370zM484 188h-378l-73 -188h-20v9h15l263 674h7l269 -681l-8 -4z" />
    <glyph glyph-name="Aacute" unicode="&#xc1;" horiz-adv-x="589" 
d="M268 765l-6 6l99 99l6 -6zM295 669l-185 -473h370zM484 188h-378l-73 -188h-20v9h15l263 674h7l269 -681l-8 -4z" />
    <glyph glyph-name="Acircumflex" unicode="&#xc2;" horiz-adv-x="589" 
d="M163 757l-6 6l131 107h13l131 -107l-6 -6l-128 104h-7zM295 669l-185 -473h370zM484 188h-378l-73 -188h-20v9h15l263 674h7l269 -681l-8 -4z" />
    <glyph glyph-name="Atilde" unicode="&#xc3;" horiz-adv-x="589" 
d="M412 850q-9 -49 -53 -49q-22 0 -41 11l-55 30q-16 8 -32 8q-35 0 -44 -42l-2 -10l-9 2l2 10q10 49 53 49q20 0 36 -9l55 -30q15 -10 37 -10q36 0 44 41l2 10l9 -1zM295 669l-185 -473h370zM484 188h-378l-73 -188h-20v9h15l263 674h7l269 -681l-8 -4z" />
    <glyph glyph-name="Adieresis" unicode="&#xc4;" horiz-adv-x="589" 
d="M187 808q0 5 4.5 9t9.5 4t9 -4t4 -9t-4 -9.5t-9 -4.5t-9.5 4.5t-4.5 9.5zM375 808q0 5 4 9t9 4t9.5 -4t4.5 -9t-4.5 -9.5t-9.5 -4.5t-9 4.5t-4 9.5zM295 669l-185 -473h370zM484 188h-378l-73 -188h-20v9h15l263 674h7l269 -681l-8 -4z" />
    <glyph glyph-name="Aring" unicode="&#xc5;" horiz-adv-x="589" 
d="M341 805q-22 21 -46 21t-46 -21q-21 -19 -21 -46q0 -25 21 -46t46 -21q24 0 46 21q21 19 21 46t-21 46zM295 669l-185 -473h370zM371 759q0 -28 -24 -52q-24 -22 -49 -24l269 -681l-8 -4l-75 190h-378l-73 -188h-20v9h15l263 674q-25 0 -49 24q-23 23 -23 52t23 52
q26 24 53 24q26 0 52 -24q24 -24 24 -52z" />
    <glyph glyph-name="AE" unicode="&#xc6;" horiz-adv-x="857" 
d="M772 670h-330v-340h165v-9h-165v-312h366v18h9v-27h-384v179h-311l-88 -179h-16v9h10l330 670h75h5h343v-27h-9v18zM433 670h-70l-237 -482h307v482z" />
    <glyph glyph-name="Ccedilla" unicode="&#xc7;" horiz-adv-x="607" 
d="M301 -54q15 8 36 8q27 0 41.5 -18t14.5 -44q0 -28 -19 -49.5t-51 -21.5q-33 0 -56 26l7 6q20 -23 49 -23t45 18.5t16 43.5q0 24 -13 39t-34 15t-40 -12l-1 -1l-15 5l20 67q-115 27 -190 120t-75 214q0 143 100.5 243.5t242.5 100.5q105 0 195 -64l2 -2v-28h-9v23
q-88 62 -188 62q-139 0 -236.5 -98t-97.5 -237t97.5 -237t236.5 -98q108 0 194 62l6 -7q-88 -63 -200 -63q-37 0 -69 7l-18 -62z" />
    <glyph glyph-name="Egrave" unicode="&#xc8;" horiz-adv-x="553" 
d="M305 765l-99 99l6 6l99 -99zM80 670v-340h241v-9h-241v-312h429v18h9v-27h-447v670h-17v9h437v-27h-9v18h-402z" />
    <glyph glyph-name="Eacute" unicode="&#xc9;" horiz-adv-x="553" 
d="M250 765l-6 6l99 99l6 -6zM80 670v-340h241v-9h-241v-312h429v18h9v-27h-447v670h-17v9h437v-27h-9v18h-402z" />
    <glyph glyph-name="Ecircumflex" unicode="&#xca;" horiz-adv-x="553" 
d="M145 757l-6 6l131 107h13l131 -107l-6 -6l-128 104h-7zM80 670v-340h241v-9h-241v-312h429v18h9v-27h-447v670h-17v9h437v-27h-9v18h-402z" />
    <glyph glyph-name="Edieresis" unicode="&#xcb;" horiz-adv-x="553" 
d="M169 808q0 5 4.5 9t9.5 4t9 -4t4 -9t-4 -9.5t-9 -4.5t-9.5 4.5t-4.5 9.5zM357 808q0 5 4 9t9 4t9.5 -4t4.5 -9t-4.5 -9.5t-9.5 -4.5t-9 4.5t-4 9.5zM80 670v-340h241v-9h-241v-312h429v18h9v-27h-447v670h-17v9h437v-27h-9v18h-402z" />
    <glyph glyph-name="Igrave" unicode="&#xcc;" horiz-adv-x="151" 
d="M104 765l-99 99l6 6l99 -99zM80 0h-9v679h9v-679z" />
    <glyph glyph-name="Iacute" unicode="&#xcd;" horiz-adv-x="151" 
d="M49 765l-6 6l99 99l6 -6zM80 0h-9v679h9v-679z" />
    <glyph glyph-name="Icircumflex" unicode="&#xce;" horiz-adv-x="151" 
d="M80 0h-9v679h9v-679zM-11 793l-6 6l87 72h12l87 -72l-7 -6l-83 69h-7z" />
    <glyph glyph-name="Idieresis" unicode="&#xcf;" horiz-adv-x="151" 
d="M80 0h-9v679h9v-679zM4 808q0 5 4.5 9t9.5 4t9 -4t4 -9t-4 -9t-9 -4t-9.5 4t-4.5 9zM121 808q0 5 4 9t9 4t9 -4t4 -9t-4 -9t-9 -4t-9 4t-4 9z" />
    <glyph glyph-name="Eth" unicode="&#xd0;" horiz-adv-x="660" 
d="M80 9h215q133 0 227 98t94 232t-94.5 232.5t-226.5 98.5h-215v-313h206v-9h-206v-339zM54 679h241q136 0 233 -101.5t97 -238.5t-97 -238t-233 -101h-224v348h-53v9h53v313h-17v9z" />
    <glyph glyph-name="Ntilde" unicode="&#xd1;" horiz-adv-x="616" 
d="M447 850q-9 -49 -53 -49q-22 0 -41 11l-55 30q-16 8 -32 8q-35 0 -44 -42l-2 -10l-9 2l2 10q10 49 53 49q20 0 36 -9l55 -30q15 -10 37 -10q36 0 44 41l2 10l9 -1zM545 679v-683h-10l-455 670v-662h-9v666h-17v9h28l454 -669v669h9z" />
    <glyph glyph-name="Ograve" unicode="&#xd2;" horiz-adv-x="758" 
d="M407 765l-99 99l6 6l99 -99zM379 674q-139 0 -236.5 -98t-97.5 -237t97.5 -237t236.5 -98t237 98t98 237t-98 237t-237 98zM379 683q142 0 243 -101t101 -243t-101 -242.5t-243 -100.5t-242.5 100.5t-100.5 242.5t100.5 243t242.5 101z" />
    <glyph glyph-name="Oacute" unicode="&#xd3;" horiz-adv-x="758" 
d="M352 765l-6 6l99 99l6 -6zM379 674q-139 0 -236.5 -98t-97.5 -237t97.5 -237t236.5 -98t237 98t98 237t-98 237t-237 98zM379 683q142 0 243 -101t101 -243t-101 -242.5t-243 -100.5t-242.5 100.5t-100.5 242.5t100.5 243t242.5 101z" />
    <glyph glyph-name="Ocircumflex" unicode="&#xd4;" horiz-adv-x="758" 
d="M248 757l-6 6l131 107h13l131 -107l-6 -6l-128 104h-7zM379 674q-139 0 -236.5 -98t-97.5 -237t97.5 -237t236.5 -98t237 98t98 237t-98 237t-237 98zM379 683q142 0 243 -101t101 -243t-101 -242.5t-243 -100.5t-242.5 100.5t-100.5 242.5t100.5 243t242.5 101z" />
    <glyph glyph-name="Otilde" unicode="&#xd5;" horiz-adv-x="758" 
d="M496 850q-9 -49 -53 -49q-22 0 -41 11l-55 30q-16 8 -32 8q-35 0 -44 -42l-2 -10l-9 2l2 10q10 49 53 49q20 0 36 -9l55 -30q15 -10 37 -10q36 0 44 41l2 10l9 -1zM379 674q-139 0 -236.5 -98t-97.5 -237t97.5 -237t236.5 -98t237 98t98 237t-98 237t-237 98zM379 683
q142 0 243 -101t101 -243t-101 -242.5t-243 -100.5t-242.5 100.5t-100.5 242.5t100.5 243t242.5 101z" />
    <glyph glyph-name="Odieresis" unicode="&#xd6;" horiz-adv-x="758" 
d="M272 808q0 5 4.5 9t9.5 4t9 -4t4 -9t-4 -9.5t-9 -4.5t-9.5 4.5t-4.5 9.5zM460 808q0 5 4 9t9 4t9.5 -4t4.5 -9t-4.5 -9.5t-9.5 -4.5t-9 4.5t-4 9.5zM379 674q-139 0 -236.5 -98t-97.5 -237t97.5 -237t236.5 -98t237 98t98 237t-98 237t-237 98zM379 683q142 0 243 -101
t101 -243t-101 -242.5t-243 -100.5t-242.5 100.5t-100.5 242.5t100.5 243t242.5 101z" />
    <glyph glyph-name="multiply" unicode="&#xd7;" horiz-adv-x="303" 
d="M255 432l7 -7l-104 -104l104 -103l-7 -7l-103 104l-104 -104l-7 7l105 103l-105 104l7 7l104 -104z" />
    <glyph glyph-name="Oslash" unicode="&#xd8;" horiz-adv-x="758" 
d="M698 664l6 -6l-78 -79q97 -100 97 -240q0 -142 -101 -242.5t-243 -100.5q-139 0 -239 97l-79 -78l-6 6l78 79q-97 100 -97 239q0 142 100.5 243t242.5 101q139 0 240 -98zM379 674q-139 0 -236.5 -98t-97.5 -237q0 -136 95 -233l473 473q-97 95 -234 95zM619 573
l-473 -473q98 -96 233 -96q139 0 237 98t98 237q0 137 -95 234z" />
    <glyph glyph-name="Ugrave" unicode="&#xd9;" horiz-adv-x="616" 
d="M336 765l-99 99l6 6l99 -99zM545 232q0 -98 -69.5 -167t-167.5 -69t-167.5 69t-69.5 167v438h-17v9h26v-447q0 -94 67 -161t161 -67t161 67t67 161v447h9v-447z" />
    <glyph glyph-name="Uacute" unicode="&#xda;" horiz-adv-x="616" 
d="M281 765l-6 6l99 99l6 -6zM545 232q0 -98 -69.5 -167t-167.5 -69t-167.5 69t-69.5 167v438h-17v9h26v-447q0 -94 67 -161t161 -67t161 67t67 161v447h9v-447z" />
    <glyph glyph-name="Ucircumflex" unicode="&#xdb;" horiz-adv-x="616" 
d="M176 757l-6 6l131 107h13l131 -107l-6 -6l-128 104h-7zM545 232q0 -98 -69.5 -167t-167.5 -69t-167.5 69t-69.5 167v438h-17v9h26v-447q0 -94 67 -161t161 -67t161 67t67 161v447h9v-447z" />
    <glyph glyph-name="Udieresis" unicode="&#xdc;" horiz-adv-x="616" 
d="M201 808q0 5 4.5 9t9.5 4t9 -4t4 -9t-4 -9.5t-9 -4.5t-9.5 4.5t-4.5 9.5zM389 808q0 5 4 9t9 4t9.5 -4t4.5 -9t-4.5 -9.5t-9.5 -4.5t-9 4.5t-4 9.5zM545 232q0 -98 -69.5 -167t-167.5 -69t-167.5 69t-69.5 167v438h-17v9h26v-447q0 -94 67 -161t161 -67t161 67t67 161
v447h9v-447z" />
    <glyph glyph-name="Yacute" unicode="&#xdd;" horiz-adv-x="580" 
d="M268 765l-6 6l99 99l6 -6zM562 670l-258 -424v-246h-9v246l-261 424h-16v9h21l260 -422l255 414v8h8v-9z" />
    <glyph glyph-name="Thorn" unicode="&#xde;" horiz-adv-x="544" 
d="M80 152v-152h-9v679h9v-81h206q92 0 157.5 -65.5t65.5 -157.5t-65.5 -157.5t-157.5 -65.5h-206zM286 161q88 0 151 62.5t63 151.5t-63 151.5t-151 62.5h-206v-428h206z" />
    <glyph glyph-name="germandbls" unicode="&#xdf;" horiz-adv-x="500" 
d="M170 73q25 -33 68 -51t88 -18q59 0 98.5 27.5t39.5 75.5q0 149 -283 268l-2 1v17h4q19 0 44 8.5t51 25t43.5 47.5t17.5 71q0 54 -38 91.5t-91 37.5q-54 0 -92 -37.5t-38 -91.5v-545h-9v455h-40v9h40v81q0 57 41 97.5t98 40.5t97.5 -40t40.5 -98q0 -41 -17.5 -73.5
t-44 -50.5t-52 -27t-46.5 -10v-2q285 -120 285 -275q0 -52 -43 -81.5t-104 -29.5q-48 0 -92.5 18.5t-71.5 54.5l-1 1v19h9v-16z" />
    <glyph glyph-name="agrave" unicode="&#xe0;" horiz-adv-x="500" 
d="M107 412v19l2 1q62 37 154 37q75 0 125 -35.5t50 -112.5v-312h17v-9h-26v91q-29 -44 -89 -69.5t-121 -25.5q-78 0 -130.5 39t-52.5 105q0 53 47.5 86t135.5 33h210v62q0 40 -15 68.5t-40 43t-52.5 21t-58.5 6.5q-87 0 -147 -34v-14h-9zM429 250h-210q-85 0 -129.5 -30.5
t-44.5 -79.5q0 -62 49.5 -99t124.5 -37q65 0 126.5 28.5t83.5 75.5v142zM291 551l-99 99l6 6l99 -99z" />
    <glyph glyph-name="aacute" unicode="&#xe1;" horiz-adv-x="500" 
d="M107 412v19l2 1q62 37 154 37q75 0 125 -35.5t50 -112.5v-312h17v-9h-26v91q-29 -44 -89 -69.5t-121 -25.5q-78 0 -130.5 39t-52.5 105q0 53 47.5 86t135.5 33h210v62q0 40 -15 68.5t-40 43t-52.5 21t-58.5 6.5q-87 0 -147 -34v-14h-9zM429 250h-210q-85 0 -129.5 -30.5
t-44.5 -79.5q0 -62 49.5 -99t124.5 -37q65 0 126.5 28.5t83.5 75.5v142zM236 551l-6 6l99 99l6 -6z" />
    <glyph glyph-name="acircumflex" unicode="&#xe2;" horiz-adv-x="500" 
d="M132 543l-6 6l131 107h13l131 -107l-6 -6l-128 104h-7zM107 412v19l2 1q62 37 154 37q75 0 125 -35.5t50 -112.5v-312h17v-9h-26v91q-29 -44 -89 -69.5t-121 -25.5q-78 0 -130.5 39t-52.5 105q0 53 47.5 86t135.5 33h210v62q0 40 -15 68.5t-40 43t-52.5 21t-58.5 6.5
q-87 0 -147 -34v-14h-9zM429 250h-210q-85 0 -129.5 -30.5t-44.5 -79.5q0 -62 49.5 -99t124.5 -37q65 0 126.5 28.5t83.5 75.5v142z" />
    <glyph glyph-name="atilde" unicode="&#xe3;" horiz-adv-x="500" 
d="M380 636q-9 -49 -53 -49q-22 0 -41 11l-55 30q-16 8 -32 8q-35 0 -44 -42l-2 -10l-9 2l2 10q10 49 53 49q20 0 36 -9l55 -30q15 -10 37 -10q36 0 44 41l2 10l9 -1zM107 412v19l2 1q62 37 154 37q75 0 125 -35.5t50 -112.5v-312h17v-9h-26v91q-29 -44 -89 -69.5
t-121 -25.5q-78 0 -130.5 39t-52.5 105q0 53 47.5 86t135.5 33h210v62q0 40 -15 68.5t-40 43t-52.5 21t-58.5 6.5q-87 0 -147 -34v-14h-9zM429 250h-210q-85 0 -129.5 -30.5t-44.5 -79.5q0 -62 49.5 -99t124.5 -37q65 0 126.5 28.5t83.5 75.5v142z" />
    <glyph glyph-name="adieresis" unicode="&#xe4;" horiz-adv-x="500" 
d="M156 594q0 5 4.5 9t9.5 4t9 -4t4 -9t-4 -9.5t-9 -4.5t-9.5 4.5t-4.5 9.5zM344 594q0 5 4 9t9 4t9.5 -4t4.5 -9t-4.5 -9.5t-9.5 -4.5t-9 4.5t-4 9.5zM107 412v19l2 1q62 37 154 37q75 0 125 -35.5t50 -112.5v-312h17v-9h-26v91q-29 -44 -89 -69.5t-121 -25.5
q-78 0 -130.5 39t-52.5 105q0 53 47.5 86t135.5 33h210v62q0 40 -15 68.5t-40 43t-52.5 21t-58.5 6.5q-87 0 -147 -34v-14h-9zM429 250h-210q-85 0 -129.5 -30.5t-44.5 -79.5q0 -62 49.5 -99t124.5 -37q65 0 126.5 28.5t83.5 75.5v142z" />
    <glyph glyph-name="aring" unicode="&#xe5;" horiz-adv-x="500" 
d="M309 635q-22 21 -46 21t-46 -21q-21 -19 -21 -46q0 -25 21 -46t46 -21q24 0 46 21q21 19 21 46t-21 46zM339 589q0 -28 -24 -52q-26 -24 -52 -24q-28 0 -52 24t-24 52q0 29 24 53q25 23 52 23t52 -23q24 -24 24 -53zM107 412v19l2 1q62 37 154 37q75 0 125 -35.5
t50 -112.5v-312h17v-9h-26v91q-29 -44 -89 -69.5t-121 -25.5q-78 0 -130.5 39t-52.5 105q0 53 47.5 86t135.5 33h210v62q0 40 -15 68.5t-40 43t-52.5 21t-58.5 6.5q-87 0 -147 -34v-14h-9zM429 250h-210q-85 0 -129.5 -30.5t-44.5 -79.5q0 -62 49.5 -99t124.5 -37
q65 0 126.5 28.5t83.5 75.5v142z" />
    <glyph glyph-name="ae" unicode="&#xe6;" horiz-adv-x="892" 
d="M429 241h-210q-86 0 -130 -26.5t-44 -74.5q0 -62 49.5 -99t124.5 -37q65 0 126.5 28.5t83.5 75.5v124v9zM107 412v19l2 1q62 37 154 37q75 0 125 -35.5t50 -112.5v-25q21 75 84.5 124t142.5 49q59 0 111.5 -28.5t85.5 -76.5l1 -3l-2 -2q-1 -1 -25.5 -21t-33.5 -27
t-34.5 -24t-42 -24.5t-39.5 -14.5t-44 -7h-204v-9q0 -95 66.5 -161.5t160.5 -66.5q98 0 166 73l7 -6q-70 -75 -173 -75q-80 0 -143 48.5t-84 123.5v-168h-9v89q-28 -44 -88.5 -68.5t-121.5 -24.5q-78 0 -130.5 39t-52.5 105q0 52 47 81t136 29h210v71q0 40 -15 68.5t-40 43
t-52.5 21t-58.5 6.5q-87 0 -147 -34v-14h-9zM643 250q34 0 77.5 21t63.5 36.5t59 47.5q6 5 9 7q-31 45 -80.5 71.5t-106.5 26.5q-89 0 -154.5 -60.5t-72.5 -149.5h205z" />
    <glyph glyph-name="ccedilla" unicode="&#xe7;" horiz-adv-x="482" 
d="M235 -63q15 8 35 8q26 0 41 -18.5t15 -44.5q0 -28 -18.5 -49t-50.5 -21q-34 0 -56 25l7 5q18 -21 49 -21q29 0 44.5 18t15.5 43q0 23 -13 38.5t-34 15.5q-20 0 -39 -12l-1 -1l-15 5l20 70q-85 14 -142 80t-57 154q0 98 69.5 167.5t166.5 69.5q95 0 164 -66l2 -1v-23h-9
v18q-68 63 -157 63q-94 0 -160.5 -66.5t-66.5 -161.5t66.5 -161.5t160.5 -66.5q98 0 166 73l8 -6q-70 -75 -174 -75q-19 0 -28 1l-19 -65z" />
    <glyph glyph-name="egrave" unicode="&#xe8;" horiz-adv-x="500" 
d="M300 551l-99 99l6 6l99 -99zM250 241q22 0 45.5 7.5t50.5 25.5t40.5 27.5t42.5 34.5t30 26q-31 45 -80.5 71.5t-106.5 26.5q-91 0 -157 -63.5t-70 -155.5h205zM45 232q0 -95 66.5 -161.5t160.5 -66.5q98 0 166 73l8 -6q-70 -75 -174 -75q-98 0 -167 69t-69 167
q0 97 69.5 167t166.5 70q59 0 111.5 -28.5t85.5 -76.5l2 -3l-3 -2l-39 -33q-39 -33 -58 -46.5t-55.5 -30.5t-66.5 -17h-204z" />
    <glyph glyph-name="eacute" unicode="&#xe9;" horiz-adv-x="500" 
d="M245 551l-6 6l99 99l6 -6zM250 241q22 0 45.5 7.5t50.5 25.5t40.5 27.5t42.5 34.5t30 26q-31 45 -80.5 71.5t-106.5 26.5q-91 0 -157 -63.5t-70 -155.5h205zM45 232q0 -95 66.5 -161.5t160.5 -66.5q98 0 166 73l8 -6q-70 -75 -174 -75q-98 0 -167 69t-69 167
q0 97 69.5 167t166.5 70q59 0 111.5 -28.5t85.5 -76.5l2 -3l-3 -2l-39 -33q-39 -33 -58 -46.5t-55.5 -30.5t-66.5 -17h-204z" />
    <glyph glyph-name="ecircumflex" unicode="&#xea;" horiz-adv-x="500" 
d="M141 543l-6 6l131 107h13l131 -107l-6 -6l-128 104h-7zM250 241q22 0 45.5 7.5t50.5 25.5t40.5 27.5t42.5 34.5t30 26q-31 45 -80.5 71.5t-106.5 26.5q-91 0 -157 -63.5t-70 -155.5h205zM45 232q0 -95 66.5 -161.5t160.5 -66.5q98 0 166 73l8 -6q-70 -75 -174 -75
q-98 0 -167 69t-69 167q0 97 69.5 167t166.5 70q59 0 111.5 -28.5t85.5 -76.5l2 -3l-3 -2l-39 -33q-39 -33 -58 -46.5t-55.5 -30.5t-66.5 -17h-204z" />
    <glyph glyph-name="edieresis" unicode="&#xeb;" horiz-adv-x="500" 
d="M165 594q0 5 4.5 9t9.5 4t9 -4t4 -9t-4 -9.5t-9 -4.5t-9.5 4.5t-4.5 9.5zM353 594q0 5 4 9t9 4t9.5 -4t4.5 -9t-4.5 -9.5t-9.5 -4.5t-9 4.5t-4 9.5zM250 241q22 0 45.5 7.5t50.5 25.5t40.5 27.5t42.5 34.5t30 26q-31 45 -80.5 71.5t-106.5 26.5q-91 0 -157 -63.5
t-70 -155.5h205zM45 232q0 -95 66.5 -161.5t160.5 -66.5q98 0 166 73l8 -6q-70 -75 -174 -75q-98 0 -167 69t-69 167q0 97 69.5 167t166.5 70q59 0 111.5 -28.5t85.5 -76.5l2 -3l-3 -2l-39 -33q-39 -33 -58 -46.5t-55.5 -30.5t-66.5 -17h-204z" />
    <glyph glyph-name="igrave" unicode="&#xec;" horiz-adv-x="151" 
d="M113 551l-99 99l6 6l99 -99zM71 455h-17v9h26v-464h-9v455z" />
    <glyph glyph-name="iacute" unicode="&#xed;" horiz-adv-x="151" 
d="M58 551l-6 6l99 99l6 -6zM71 455h-17v9h26v-464h-9v455z" />
    <glyph glyph-name="icircumflex" unicode="&#xee;" horiz-adv-x="151" 
d="M-47 543l-6 6l131 107h13l131 -107l-6 -6l-128 104h-7zM71 455h-17v9h26v-464h-9v455z" />
    <glyph glyph-name="idieresis" unicode="&#xef;" horiz-adv-x="142" 
d="M71 455h-17v9h26v-464h-9v455zM13 594q0 5 4.5 9t9.5 4t9 -4t4 -9t-4 -9.5t-9 -4.5t-9.5 4.5t-4.5 9.5zM112 594q0 5 4 9t9 4t9 -4t4 -9t-4 -9.5t-9 -4.5t-9 4.5t-4 9.5z" />
    <glyph glyph-name="eth" unicode="&#xf0;" horiz-adv-x="437" 
d="M210 4q66 0 124 61t59 164v10q-3 101 -61 161t-122 60t-114.5 -61.5t-50.5 -166.5t50.5 -166.5t114.5 -61.5zM210 -4q-68 0 -121 63.5t-53 172.5t53 173t121 64q47 0 94 -32.5t74 -90.5l11 -28l1 1l-3 30q-18 160 -90 232l-2 2l-79 -32l-4 8l75 31l-6 4q-33 27 -77 44
l2 8q54 -20 88 -51l2 -2l86 34l3 -8l-81 -32l4 -5q91 -96 94 -342v-17q-3 -104 -63.5 -165.5t-128.5 -61.5z" />
    <glyph glyph-name="ntilde" unicode="&#xf1;" 
d="M394 636q-9 -49 -53 -49q-22 0 -41 11l-55 30q-16 8 -32 8q-35 0 -44 -42l-2 -10l-9 2l2 10q10 49 53 49q20 0 36 -9l55 -30q15 -10 37 -10q36 0 44 41l2 10l9 -1zM308 469q76 0 120.5 -39.5t44.5 -108.5v-312h18v-9h-27v321q0 65 -42 102t-114 37q-93 0 -160.5 -71
t-67.5 -175v-214h-9v455h-17v9h26v-179q22 82 85 133t143 51z" />
    <glyph glyph-name="ograve" unicode="&#xf2;" horiz-adv-x="544" 
d="M300 551l-99 99l6 6l99 -99zM272 469q98 0 167.5 -69.5t69.5 -167.5t-69.5 -167t-167.5 -69t-167 69t-69 167t69 167.5t167 69.5zM45 232q0 -95 66.5 -161.5t160.5 -66.5t161 67t67 161t-67 161t-161 67t-160.5 -66.5t-66.5 -161.5z" />
    <glyph glyph-name="oacute" unicode="&#xf3;" horiz-adv-x="544" 
d="M245 551l-6 6l99 99l6 -6zM272 469q98 0 167.5 -69.5t69.5 -167.5t-69.5 -167t-167.5 -69t-167 69t-69 167t69 167.5t167 69.5zM45 232q0 -95 66.5 -161.5t160.5 -66.5t161 67t67 161t-67 161t-161 67t-160.5 -66.5t-66.5 -161.5z" />
    <glyph glyph-name="ocircumflex" unicode="&#xf4;" horiz-adv-x="544" 
d="M141 543l-6 6l131 107h13l131 -107l-6 -6l-128 104h-7zM272 469q98 0 167.5 -69.5t69.5 -167.5t-69.5 -167t-167.5 -69t-167 69t-69 167t69 167.5t167 69.5zM45 232q0 -95 66.5 -161.5t160.5 -66.5t161 67t67 161t-67 161t-161 67t-160.5 -66.5t-66.5 -161.5z" />
    <glyph glyph-name="otilde" unicode="&#xf5;" horiz-adv-x="544" 
d="M389 636q-9 -49 -53 -49q-22 0 -41 11l-55 30q-16 8 -32 8q-35 0 -44 -42l-2 -10l-9 2l2 10q10 49 53 49q20 0 36 -9l55 -30q15 -10 37 -10q36 0 44 41l2 10l9 -1zM272 469q98 0 167.5 -69.5t69.5 -167.5t-69.5 -167t-167.5 -69t-167 69t-69 167t69 167.5t167 69.5z
M45 232q0 -95 66.5 -161.5t160.5 -66.5t161 67t67 161t-67 161t-161 67t-160.5 -66.5t-66.5 -161.5z" />
    <glyph glyph-name="odieresis" unicode="&#xf6;" horiz-adv-x="544" 
d="M165 594q0 5 4.5 9t9.5 4t9 -4t4 -9t-4 -9.5t-9 -4.5t-9.5 4.5t-4.5 9.5zM353 594q0 5 4 9t9 4t9.5 -4t4.5 -9t-4.5 -9.5t-9.5 -4.5t-9 4.5t-4 9.5zM272 469q98 0 167.5 -69.5t69.5 -167.5t-69.5 -167t-167.5 -69t-167 69t-69 167t69 167.5t167 69.5zM45 232
q0 -95 66.5 -161.5t160.5 -66.5t161 67t67 161t-67 161t-161 67t-160.5 -66.5t-66.5 -161.5z" />
    <glyph glyph-name="divide" unicode="&#xf7;" horiz-adv-x="357" 
d="M165 487q0 5 4.5 9t9.5 4t9 -4t4 -9t-4 -9.5t-9 -4.5t-9.5 4.5t-4.5 9.5zM165 246q0 5 4.5 9t9.5 4t9 -4t4 -9t-4 -9.5t-9 -4.5t-9.5 4.5t-4.5 9.5zM321 357h-285v9h285v-9z" />
    <glyph glyph-name="oslash" unicode="&#xf8;" horiz-adv-x="544" 
d="M501 467l7 -6l-65 -65q66 -69 66 -164q0 -98 -69.5 -167t-167.5 -69q-95 0 -164 66l-65 -65l-6 6l65 65q-66 69 -66 164q0 98 69 167.5t167 69.5q95 0 164 -66zM430 396q-67 64 -158 64q-94 0 -160.5 -66.5t-66.5 -161.5q0 -92 63 -158zM436 390l-321 -322
q67 -64 157 -64q94 0 161 67t67 161q0 91 -64 158z" />
    <glyph glyph-name="ugrave" unicode="&#xf9;" 
d="M237 -4q-76 0 -121 39t-45 108v312h-17v9h26v-321q0 -65 42.5 -102t114.5 -37q93 0 160 71t67 175v214h9v-455h18v-9h-27v180q-22 -82 -85 -133t-142 -51zM305 551l-99 99l6 6l99 -99z" />
    <glyph glyph-name="uacute" unicode="&#xfa;" 
d="M237 -4q-76 0 -121 39t-45 108v312h-17v9h26v-321q0 -65 42.5 -102t114.5 -37q93 0 160 71t67 175v214h9v-455h18v-9h-27v180q-22 -82 -85 -133t-142 -51zM250 551l-6 6l99 99l6 -6z" />
    <glyph glyph-name="ucircumflex" unicode="&#xfb;" 
d="M145 543l-6 6l131 107h13l131 -107l-6 -6l-128 104h-7zM237 -4q-76 0 -121 39t-45 108v312h-17v9h26v-321q0 -65 42.5 -102t114.5 -37q93 0 160 71t67 175v214h9v-455h18v-9h-27v180q-22 -82 -85 -133t-142 -51z" />
    <glyph glyph-name="udieresis" unicode="&#xfc;" 
d="M169 594q0 5 4.5 9t9.5 4t9 -4t4 -9t-4 -9.5t-9 -4.5t-9.5 4.5t-4.5 9.5zM357 594q0 5 4 9t9 4t9.5 -4t4.5 -9t-4.5 -9.5t-9.5 -4.5t-9 4.5t-4 9.5zM237 -4q-76 0 -121 39t-45 108v312h-17v9h26v-321q0 -65 42.5 -102t114.5 -37q93 0 160 71t67 175v214h9v-455h18v-9h-27
v180q-22 -82 -85 -133t-142 -51z" />
    <glyph glyph-name="yacute" unicode="&#xfd;" horiz-adv-x="526" 
d="M241 551l-6 6l99 99l6 -6zM18 455v9h26l218 -490l238 496l9 -5l-288 -595q-41 -84 -105 -84q-57 0 -95 56v15h8v-14q34 -48 87 -48q59 0 97 78l44 90l-219 492h-20z" />
    <glyph glyph-name="thorn" unicode="&#xfe;" 
d="M290 469q96 0 157.5 -68.5t61.5 -168.5q0 -99 -61.5 -167.5t-157.5 -68.5q-78 0 -134.5 46t-75.5 120v-376h-9v446v438h-17v9h26v-377q19 74 75.5 120.5t134.5 46.5zM80 232q0 -96 59 -162t151 -66t151 66t59 162t-59 162t-151 66t-151 -66t-59 -162z" />
    <glyph glyph-name="ydieresis" unicode="&#xff;" horiz-adv-x="526" 
d="M160 594q0 5 4.5 9t9.5 4t9 -4t4 -9t-4 -9.5t-9 -4.5t-9.5 4.5t-4.5 9.5zM348 594q0 5 4 9t9 4t9.5 -4t4.5 -9t-4.5 -9.5t-9.5 -4.5t-9 4.5t-4 9.5zM18 455v9h26l218 -490l238 496l9 -5l-288 -595q-41 -84 -105 -84q-57 0 -95 56v15h8v-14q34 -48 87 -48q59 0 97 78
l44 90l-219 492h-20z" />
    <glyph glyph-name="Amacron" unicode="&#x100;" horiz-adv-x="589" 
d="M437 821h-285v9h285v-9zM295 669l-185 -473h370zM484 188h-378l-73 -188h-20v9h15l263 674h7l269 -681l-8 -4z" />
    <glyph glyph-name="amacron" unicode="&#x101;" horiz-adv-x="500" 
d="M406 607h-285v9h285v-9zM107 412v19l2 1q62 37 154 37q75 0 125 -35.5t50 -112.5v-312h17v-9h-26v91q-29 -44 -89 -69.5t-121 -25.5q-78 0 -130.5 39t-52.5 105q0 53 47.5 86t135.5 33h210v62q0 40 -15 68.5t-40 43t-52.5 21t-58.5 6.5q-87 0 -147 -34v-14h-9zM429 250
h-210q-85 0 -129.5 -30.5t-44.5 -79.5q0 -62 49.5 -99t124.5 -37q65 0 126.5 28.5t83.5 75.5v142z" />
    <glyph glyph-name="Abreve" unicode="&#x102;" horiz-adv-x="589" 
d="M295 799q73 0 113 51l7 -5q-44 -55 -120 -55q-75 0 -119 55l7 5q40 -51 112 -51zM295 669l-185 -473h370zM484 188h-378l-73 -188h-20v9h15l263 674h7l269 -681l-8 -4z" />
    <glyph glyph-name="abreve" unicode="&#x103;" horiz-adv-x="500" 
d="M263 585q73 0 113 51l7 -5q-44 -55 -120 -55q-75 0 -119 55l7 5q40 -51 112 -51zM107 412v19l2 1q62 37 154 37q75 0 125 -35.5t50 -112.5v-312h17v-9h-26v91q-29 -44 -89 -69.5t-121 -25.5q-78 0 -130.5 39t-52.5 105q0 53 47.5 86t135.5 33h210v62q0 40 -15 68.5
t-40 43t-52.5 21t-58.5 6.5q-87 0 -147 -34v-14h-9zM429 250h-210q-85 0 -129.5 -30.5t-44.5 -79.5q0 -62 49.5 -99t124.5 -37q65 0 126.5 28.5t83.5 75.5v142z" />
    <glyph glyph-name="Aogonek" unicode="&#x104;" horiz-adv-x="589" 
d="M295 669l-185 -473h370zM484 188h-378l-73 -188h-20v9h15l263 674h7l269 -681q-74 -42 -90 -57q-24 -24 -24 -57q0 -25 17 -41.5t47 -16.5q26 0 50 16l5 -7q-26 -18 -55 -18q-34 0 -53.5 19.5t-19.5 47.5q0 20 6 35t25.5 30.5t32 23.5t48.5 28z" />
    <glyph glyph-name="aogonek" unicode="&#x105;" horiz-adv-x="517" 
d="M107 412v19l2 1q62 37 154 37q75 0 125 -35.5t50 -112.5v-312h17v-9q-8 -4 -25.5 -14t-24 -13.5t-19.5 -11.5t-17.5 -12.5l-12.5 -12.5t-11 -14.5t-5.5 -15.5t-2.5 -19q0 -25 17 -41t47 -16q26 0 50 16l5 -7q-26 -18 -55 -18q-34 0 -53.5 19t-19.5 47q0 20 6.5 35
t24 29.5t31.5 23t47 25.5h-8v89q-28 -44 -88.5 -68.5t-121.5 -24.5q-78 0 -130.5 39t-52.5 105q0 53 47.5 86t135.5 33h210v62q0 40 -15 68.5t-40 43t-52.5 21t-58.5 6.5q-87 0 -147 -34v-14h-9zM429 250h-210q-85 0 -129.5 -30.5t-44.5 -79.5q0 -62 49.5 -99t124.5 -37
q65 0 126.5 28.5t83.5 75.5v142z" />
    <glyph glyph-name="Cacute" unicode="&#x106;" horiz-adv-x="607" 
d="M361 765l-6 6l99 99l6 -6zM379 -4q-143 0 -243 100t-100 243t100.5 243.5t242.5 100.5q105 0 195 -64l2 -2v-28h-9v23q-88 62 -188 62q-139 0 -236.5 -98t-97.5 -237t97.5 -237t236.5 -98q108 0 194 62l6 -7q-88 -63 -200 -63z" />
    <glyph glyph-name="cacute" unicode="&#x107;" horiz-adv-x="482" 
d="M245 551l-6 6l99 99l6 -6zM272 -4q-98 0 -167 69t-69 167t69.5 167.5t166.5 69.5q95 0 164 -66l2 -1v-23h-9v18q-68 63 -157 63q-94 0 -160.5 -66.5t-66.5 -161.5t66.5 -161.5t160.5 -66.5q98 0 166 73l8 -6q-70 -75 -174 -75z" />
    <glyph glyph-name="Ccircumflex" unicode="&#x108;" horiz-adv-x="607" 
d="M252 757l-6 6l131 107h13l131 -107l-6 -6l-128 104h-7zM379 -4q-143 0 -243 100t-100 243t100.5 243.5t242.5 100.5q105 0 195 -64l2 -2v-28h-9v23q-88 62 -188 62q-139 0 -236.5 -98t-97.5 -237t97.5 -237t236.5 -98q108 0 194 62l6 -7q-88 -63 -200 -63z" />
    <glyph glyph-name="ccircumflex" unicode="&#x109;" horiz-adv-x="482" 
d="M141 543l-6 6l131 107h13l131 -107l-6 -6l-128 104h-7zM272 -4q-98 0 -167 69t-69 167t69.5 167.5t166.5 69.5q95 0 164 -66l2 -1v-23h-9v18q-68 63 -157 63q-94 0 -160.5 -66.5t-66.5 -161.5t66.5 -161.5t160.5 -66.5q98 0 166 73l8 -6q-70 -75 -174 -75z" />
    <glyph glyph-name="Cdotaccent" unicode="&#x10a;" horiz-adv-x="607" 
d="M361 821q0 5 4.5 9.5t9.5 4.5t9 -4.5t4 -9.5t-4 -9t-9 -4t-9.5 4t-4.5 9zM379 -4q-143 0 -243 100t-100 243t100.5 243.5t242.5 100.5q105 0 195 -64l2 -2v-28h-9v23q-88 62 -188 62q-139 0 -236.5 -98t-97.5 -237t97.5 -237t236.5 -98q108 0 194 62l6 -7
q-88 -63 -200 -63z" />
    <glyph glyph-name="cdotaccent" unicode="&#x10b;" horiz-adv-x="482" 
d="M259 607q0 5 4.5 9.5t9.5 4.5t9 -4.5t4 -9.5t-4 -9t-9 -4t-9.5 4t-4.5 9zM272 -4q-98 0 -167 69t-69 167t69.5 167.5t166.5 69.5q95 0 164 -66l2 -1v-23h-9v18q-68 63 -157 63q-94 0 -160.5 -66.5t-66.5 -161.5t66.5 -161.5t160.5 -66.5q98 0 166 73l8 -6
q-70 -75 -174 -75z" />
    <glyph glyph-name="Ccaron" unicode="&#x10c;" horiz-adv-x="607" 
d="M257 863l128 -104h7l128 104l6 -6l-131 -107h-13l-131 107zM379 -4q-143 0 -243 100t-100 243t100.5 243.5t242.5 100.5q105 0 195 -64l2 -2v-28h-9v23q-88 62 -188 62q-139 0 -236.5 -98t-97.5 -237t97.5 -237t236.5 -98q108 0 194 62l6 -7q-88 -63 -200 -63z" />
    <glyph glyph-name="ccaron" unicode="&#x10d;" horiz-adv-x="482" 
d="M141 649l128 -104h7l128 104l6 -6l-131 -107h-13l-131 107zM272 -4q-98 0 -167 69t-69 167t69.5 167.5t166.5 69.5q95 0 164 -66l2 -1v-23h-9v18q-68 63 -157 63q-94 0 -160.5 -66.5t-66.5 -161.5t66.5 -161.5t160.5 -66.5q98 0 166 73l8 -6q-70 -75 -174 -75z" />
    <glyph glyph-name="Dcaron" unicode="&#x10e;" horiz-adv-x="660" 
d="M163 863l128 -104h7l128 104l6 -6l-131 -107h-13l-131 107zM54 679h241q136 0 233 -101.5t97 -238.5t-97 -238t-233 -101h-224v670h-17v9zM80 9h215q133 0 227 98t94 232t-94.5 232.5t-226.5 98.5h-215v-661z" />
    <glyph glyph-name="dcaron" unicode="&#x10f;" horiz-adv-x="589" 
d="M536 665q0 5 4 9t9 4t9 -4t4 -9q0 -41 -42 -91l-6 4q15 18 25 40t10 34q-5 0 -9 4t-4 9zM464 232q0 96 -58.5 162t-151.5 66t-151 -65.5t-58 -162.5t58 -162.5t151 -65.5t151.5 66t58.5 162zM446 670v9h27v-670h18v-9h-27v162q-20 -74 -76 -120t-134 -46q-96 0 -157 68.5
t-61 167.5q0 100 61 168.5t157 68.5q78 0 134 -46.5t76 -120.5v368h-18z" />
    <glyph glyph-name="Dcroat" unicode="&#x110;" horiz-adv-x="660" 
d="M80 9h215q133 0 227 98t94 232t-94.5 232.5t-226.5 98.5h-215v-313h206v-9h-206v-339zM54 679h241q136 0 233 -101.5t97 -238.5t-97 -238t-233 -101h-224v348h-53v9h53v313h-17v9z" />
    <glyph glyph-name="dcroat" unicode="&#x111;" 
d="M250 562v9h214v99h-18v9h27v-108h45v-9h-45v-553h18v-9h-27v162q-20 -74 -76 -120t-134 -46q-96 0 -157 68.5t-61 167.5q0 100 61 168.5t157 68.5q78 0 134 -46.5t76 -120.5v260h-214zM464 232q0 96 -58.5 162t-151.5 66t-151 -65.5t-58 -162.5t58 -162.5t151 -65.5
t151.5 66t58.5 162z" />
    <glyph glyph-name="Emacron" unicode="&#x112;" horiz-adv-x="553" 
d="M419 821h-285v9h285v-9zM80 670v-340h241v-9h-241v-312h429v18h9v-27h-447v670h-17v9h437v-27h-9v18h-402z" />
    <glyph glyph-name="emacron" unicode="&#x113;" horiz-adv-x="500" 
d="M415 607h-285v9h285v-9zM250 241q22 0 45.5 7.5t50.5 25.5t40.5 27.5t42.5 34.5t30 26q-31 45 -80.5 71.5t-106.5 26.5q-91 0 -157 -63.5t-70 -155.5h205zM45 232q0 -95 66.5 -161.5t160.5 -66.5q98 0 166 73l8 -6q-70 -75 -174 -75q-98 0 -167 69t-69 167q0 97 69.5 167
t166.5 70q59 0 111.5 -28.5t85.5 -76.5l2 -3l-3 -2l-39 -33q-39 -33 -58 -46.5t-55.5 -30.5t-66.5 -17h-204z" />
    <glyph glyph-name="Ebreve" unicode="&#x114;" horiz-adv-x="553" 
d="M277 799q73 0 113 51l7 -5q-44 -55 -120 -55q-75 0 -119 55l7 5q40 -51 112 -51zM80 670v-340h241v-9h-241v-312h429v18h9v-27h-447v670h-17v9h437v-27h-9v18h-402z" />
    <glyph glyph-name="ebreve" unicode="&#x115;" horiz-adv-x="500" 
d="M272 585q73 0 113 51l7 -5q-44 -55 -120 -55q-75 0 -119 55l7 5q40 -51 112 -51zM250 241q22 0 45.5 7.5t50.5 25.5t40.5 27.5t42.5 34.5t30 26q-31 45 -80.5 71.5t-106.5 26.5q-91 0 -157 -63.5t-70 -155.5h205zM45 232q0 -95 66.5 -161.5t160.5 -66.5q98 0 166 73l8 -6
q-70 -75 -174 -75q-98 0 -167 69t-69 167q0 97 69.5 167t166.5 70q59 0 111.5 -28.5t85.5 -76.5l2 -3l-3 -2l-39 -33q-39 -33 -58 -46.5t-55.5 -30.5t-66.5 -17h-204z" />
    <glyph glyph-name="Edotaccent" unicode="&#x116;" horiz-adv-x="553" 
d="M263 821q0 5 4.5 9.5t9.5 4.5t9 -4.5t4 -9.5t-4 -9t-9 -4t-9.5 4t-4.5 9zM80 670v-340h241v-9h-241v-312h429v18h9v-27h-447v670h-17v9h437v-27h-9v18h-402z" />
    <glyph glyph-name="edotaccent" unicode="&#x117;" horiz-adv-x="500" 
d="M259 607q0 5 4.5 9.5t9.5 4.5t9 -4.5t4 -9.5t-4 -9t-9 -4t-9.5 4t-4.5 9zM250 241q22 0 45.5 7.5t50.5 25.5t40.5 27.5t42.5 34.5t30 26q-31 45 -80.5 71.5t-106.5 26.5q-91 0 -157 -63.5t-70 -155.5h205zM45 232q0 -95 66.5 -161.5t160.5 -66.5q98 0 166 73l8 -6
q-70 -75 -174 -75q-98 0 -167 69t-69 167q0 97 69.5 167t166.5 70q59 0 111.5 -28.5t85.5 -76.5l2 -3l-3 -2l-39 -33q-39 -33 -58 -46.5t-55.5 -30.5t-66.5 -17h-204z" />
    <glyph glyph-name="Eogonek" unicode="&#x118;" horiz-adv-x="553" 
d="M80 670v-340h241v-9h-241v-312h429v18h9v-23l-8 -4q-74 -42 -91 -59q-21 -23 -21 -54q0 -25 17 -41t47 -16q26 0 50 16l6 -7q-26 -18 -56 -18q-34 0 -53.5 19t-19.5 47q0 26 14.5 46.5t32 32.5t56.5 34h-421v670h-17v9h437v-27h-9v18h-402z" />
    <glyph glyph-name="eogonek" unicode="&#x119;" horiz-adv-x="500" 
d="M378 19q-13 -8 -35 -20.5t-32 -18.5t-25 -16t-21.5 -16.5t-14.5 -16.5t-10.5 -20.5t-2.5 -23.5q0 -25 17 -41t47 -16q26 0 50 16l5 -7q-26 -18 -55 -18q-34 0 -53.5 19t-19.5 47q0 37 23.5 61t78.5 55q-27 -7 -58 -7q-98 0 -167 69t-69 167q0 97 69.5 167t166.5 70
q59 0 111.5 -28.5t85.5 -76.5l2 -3l-3 -2l-39 -33q-39 -33 -58 -46.5t-55.5 -30.5t-66.5 -17h-204q0 -95 66.5 -161.5t160.5 -66.5q98 0 166 73l8 -6q-23 -25 -68 -52zM250 241q22 0 45.5 7.5t50.5 25.5t40.5 27.5t42.5 34.5t30 26q-31 45 -80.5 71.5t-106.5 26.5
q-91 0 -157 -63.5t-70 -155.5h205z" />
    <glyph glyph-name="Ecaron" unicode="&#x11a;" horiz-adv-x="553" 
d="M145 863l128 -104h7l128 104l6 -6l-131 -107h-13l-131 107zM80 670v-340h241v-9h-241v-312h429v18h9v-27h-447v670h-17v9h437v-27h-9v18h-402z" />
    <glyph glyph-name="ecaron" unicode="&#x11b;" horiz-adv-x="500" 
d="M141 649l128 -104h7l128 104l6 -6l-131 -107h-13l-131 107zM250 241q22 0 45.5 7.5t50.5 25.5t40.5 27.5t42.5 34.5t30 26q-31 45 -80.5 71.5t-106.5 26.5q-91 0 -157 -63.5t-70 -155.5h205zM45 232q0 -95 66.5 -161.5t160.5 -66.5q98 0 166 73l8 -6q-70 -75 -174 -75
q-98 0 -167 69t-69 167q0 97 69.5 167t166.5 70q59 0 111.5 -28.5t85.5 -76.5l2 -3l-3 -2l-39 -33q-39 -33 -58 -46.5t-55.5 -30.5t-66.5 -17h-204z" />
    <glyph glyph-name="Gcircumflex" unicode="&#x11c;" horiz-adv-x="642" 
d="M243 757l-6 6l131 107h13l131 -107l-6 -6l-128 104h-7zM612 321v-321h-9v96q-42 -45 -102 -72.5t-122 -27.5q-143 0 -243 100t-100 243t100.5 243.5t242.5 100.5q103 0 191 -63l1 -2v-29h-9v25q-85 60 -183 60q-139 0 -236.5 -98t-97.5 -237t97.5 -237t236.5 -98
q62 0 122.5 29t101.5 76v203h-152v9h161z" />
    <glyph glyph-name="gcircumflex" unicode="&#x11d;" horiz-adv-x="491" 
d="M110 543l-6 6l131 107h13l131 -107l-6 -6l-128 104h-7zM104 35q-32 -21 -54.5 -62.5t-22.5 -81.5q0 -96 128 -96h196q56 0 84.5 23.5t28.5 57.5q0 30 -21.5 56.5t-58.5 35.5zM85 312q0 -70 46 -108.5t110 -38.5t110 38.5t46 108.5t-46.5 109t-109.5 39q-64 0 -110 -39
t-46 -109zM70 81q0 -30 36 -38l281 -67q39 -9 62.5 -38t23.5 -62q0 -38 -31 -64t-91 -26h-196q-71 0 -104 29.5t-33 75.5q0 40 22 81.5t54 65.5q-33 12 -33 43q0 44 66 115q-51 44 -51 116q0 74 49 115.5t116 41.5q59 0 103 -31h120v-9h-108q50 -43 50 -117t-49 -115
t-116 -41q-62 0 -108 35q-19 -18 -41 -51.5t-22 -58.5z" />
    <glyph glyph-name="Gbreve" unicode="&#x11e;" horiz-adv-x="642" 
d="M388 799q73 0 113 51l7 -5q-44 -55 -120 -55q-75 0 -119 55l7 5q40 -51 112 -51zM612 321v-321h-9v96q-42 -45 -102 -72.5t-122 -27.5q-143 0 -243 100t-100 243t100.5 243.5t242.5 100.5q103 0 191 -63l1 -2v-29h-9v25q-85 60 -183 60q-139 0 -236.5 -98t-97.5 -237
t97.5 -237t236.5 -98q62 0 122.5 29t101.5 76v203h-152v9h161z" />
    <glyph glyph-name="gbreve" unicode="&#x11f;" horiz-adv-x="491" 
d="M241 585q73 0 113 51l7 -5q-44 -55 -120 -55q-75 0 -119 55l7 5q40 -51 112 -51zM104 35q-32 -21 -54.5 -62.5t-22.5 -81.5q0 -96 128 -96h196q56 0 84.5 23.5t28.5 57.5q0 30 -21.5 56.5t-58.5 35.5zM85 312q0 -70 46 -108.5t110 -38.5t110 38.5t46 108.5t-46.5 109
t-109.5 39q-64 0 -110 -39t-46 -109zM70 81q0 -30 36 -38l281 -67q39 -9 62.5 -38t23.5 -62q0 -38 -31 -64t-91 -26h-196q-71 0 -104 29.5t-33 75.5q0 40 22 81.5t54 65.5q-33 12 -33 43q0 44 66 115q-51 44 -51 116q0 74 49 115.5t116 41.5q59 0 103 -31h120v-9h-108
q50 -43 50 -117t-49 -115t-116 -41q-62 0 -108 35q-19 -18 -41 -51.5t-22 -58.5z" />
    <glyph glyph-name="Gdotaccent" unicode="&#x120;" horiz-adv-x="642" 
d="M375 821q0 5 4.5 9.5t9.5 4.5t9 -4.5t4 -9.5t-4 -9t-9 -4t-9.5 4t-4.5 9zM612 321v-321h-9v96q-42 -45 -102 -72.5t-122 -27.5q-143 0 -243 100t-100 243t100.5 243.5t242.5 100.5q103 0 191 -63l1 -2v-29h-9v25q-85 60 -183 60q-139 0 -236.5 -98t-97.5 -237t97.5 -237
t236.5 -98q62 0 122.5 29t101.5 76v203h-152v9h161z" />
    <glyph glyph-name="gdotaccent" unicode="&#x121;" horiz-adv-x="491" 
d="M227 607q0 5 4.5 9.5t9.5 4.5t9 -4.5t4 -9.5t-4 -9t-9 -4t-9.5 4t-4.5 9zM104 35q-32 -21 -54.5 -62.5t-22.5 -81.5q0 -96 128 -96h196q56 0 84.5 23.5t28.5 57.5q0 30 -21.5 56.5t-58.5 35.5zM85 312q0 -70 46 -108.5t110 -38.5t110 38.5t46 108.5t-46.5 109t-109.5 39
q-64 0 -110 -39t-46 -109zM70 81q0 -30 36 -38l281 -67q39 -9 62.5 -38t23.5 -62q0 -38 -31 -64t-91 -26h-196q-71 0 -104 29.5t-33 75.5q0 40 22 81.5t54 65.5q-33 12 -33 43q0 44 66 115q-51 44 -51 116q0 74 49 115.5t116 41.5q59 0 103 -31h120v-9h-108q50 -43 50 -117
t-49 -115t-116 -41q-62 0 -108 35q-19 -18 -41 -51.5t-22 -58.5z" />
    <glyph glyph-name="Gcommaaccent" unicode="&#x122;" horiz-adv-x="642" 
d="M336 -68q0 5 4 9t9 4t9 -4t4 -9q0 -41 -42 -91l-6 4q15 18 25 40t10 34q-5 0 -9 4t-4 9zM612 321v-321h-9v96q-42 -45 -102 -72.5t-122 -27.5q-143 0 -243 100t-100 243t100.5 243.5t242.5 100.5q103 0 191 -63l1 -2v-29h-9v25q-85 60 -183 60q-139 0 -236.5 -98
t-97.5 -237t97.5 -237t236.5 -98q62 0 122.5 29t101.5 76v203h-152v9h161z" />
    <glyph glyph-name="gcommaaccent" unicode="&#x123;" horiz-adv-x="491" 
d="M264 603q0 -5 -4 -9t-9 -4t-9 4t-4 9q0 41 42 91l6 -4q-15 -18 -25 -40t-10 -34q5 0 9 -4t4 -9zM104 35q-32 -21 -54.5 -62.5t-22.5 -81.5q0 -96 128 -96h196q56 0 84.5 23.5t28.5 57.5q0 30 -21.5 56.5t-58.5 35.5zM85 312q0 -70 46 -108.5t110 -38.5t110 38.5t46 108.5
t-46.5 109t-109.5 39q-64 0 -110 -39t-46 -109zM70 81q0 -30 36 -38l281 -67q39 -9 62.5 -38t23.5 -62q0 -38 -31 -64t-91 -26h-196q-71 0 -104 29.5t-33 75.5q0 40 22 81.5t54 65.5q-33 12 -33 43q0 44 66 115q-51 44 -51 116q0 74 49 115.5t116 41.5q59 0 103 -31h120v-9
h-108q50 -43 50 -117t-49 -115t-116 -41q-62 0 -108 35q-19 -18 -41 -51.5t-22 -58.5z" />
    <glyph glyph-name="Hcircumflex" unicode="&#x124;" horiz-adv-x="607" 
d="M172 757l-6 6l131 107h13l131 -107l-6 -6l-128 104h-7zM80 0h-9v679h9v-340h447v340h9v-679h-9v330h-447v-330z" />
    <glyph glyph-name="hcircumflex" unicode="&#x125;" 
d="M154 722l-6 6l131 107h13l131 -107l-6 -6l-128 104h-7zM308 469q76 0 120.5 -39.5t44.5 -108.5v-312h18v-9h-27v321q0 65 -42 102t-114 37q-93 0 -160.5 -71t-67.5 -175v-214h-9v670h-17v9h26v-394q22 82 85 133t143 51z" />
    <glyph glyph-name="Hbar" unicode="&#x126;" horiz-adv-x="607" 
d="M80 0h-9v500h-35v9h35v170h9v-170h447v170h9v-170h35v-9h-35v-500h-9v330h-447v-330zM527 500h-447v-161h447v161z" />
    <glyph glyph-name="hbar" unicode="&#x127;" 
d="M321 571v-9h-241v-277q22 82 85 133t143 51q76 0 120.5 -39.5t44.5 -108.5v-312h18v-9h-27v321q0 65 -42 102t-114 37q-93 0 -160.5 -71t-67.5 -175v-214h-9v562h-35v9h35v99h-17v9h26v-108h241z" />
    <glyph glyph-name="Itilde" unicode="&#x128;" horiz-adv-x="151" 
d="M80 0h-9v679h9v-679zM134 800q-14 0 -32 10l-57 32q-14 8 -27 8q-11 0 -17.5 -7.5t-7.5 -12t-4 -18.5l-8 1q3 15 5 22t10.5 15.5t21.5 8.5q18 0 32 -9l57 -32q15 -9 27 -9q22 0 29 39l8 -1q-8 -47 -37 -47z" />
    <glyph glyph-name="itilde" unicode="&#x129;" horiz-adv-x="151" 
d="M71 455h-17v9h26v-464h-9v455zM134 569q-14 0 -32 10l-57 32q-14 8 -27 8q-8 0 -13.5 -3t-9 -12t-4 -10.5t-2.5 -13.5l-8 2q3 15 5 22t10.5 15.5t21.5 8.5q16 0 32 -10l57 -32q14 -8 27 -8q22 0 29 39l8 -1q-8 -47 -37 -47z" />
    <glyph glyph-name="Imacron" unicode="&#x12a;" horiz-adv-x="151" 
d="M80 0h-9v679h9v-679zM152 821h-152v9h152v-9z" />
    <glyph glyph-name="imacron" unicode="&#x12b;" horiz-adv-x="151" 
d="M71 455h-17v9h26v-464h-9v455zM152 607h-152v9h152v-9z" />
    <glyph glyph-name="Ibreve" unicode="&#x12c;" horiz-adv-x="151" 
d="M80 0h-9v679h9v-679zM76 786q52 0 81 34l8 -5q-31 -38 -89 -38t-89 38l8 5q29 -34 81 -34z" />
    <glyph glyph-name="ibreve" unicode="&#x12d;" horiz-adv-x="151" 
d="M71 455h-17v9h26v-464h-9v455zM76 580q52 0 81 35l8 -5q-32 -39 -89 -39t-89 39l8 5q29 -35 81 -35z" />
    <glyph glyph-name="Iogonek" unicode="&#x12e;" horiz-adv-x="142" 
d="M80 -5q-47 -28 -67.5 -51.5t-20.5 -56.5q0 -25 17 -41t47 -16q26 0 50 16l5 -7q-26 -18 -55 -18q-34 0 -53.5 19t-19.5 47q0 35 21 60t67 53v679h9v-684z" />
    <glyph glyph-name="iogonek" unicode="&#x12f;" horiz-adv-x="142" 
d="M62 607q0 5 4.5 9.5t9.5 4.5t9 -4.5t4 -9.5t-4 -9t-9 -4t-9.5 4t-4.5 9zM80 -5q-47 -28 -67.5 -51.5t-20.5 -56.5q0 -25 17 -41t47 -16q26 0 50 16l5 -7q-26 -18 -55 -18q-34 0 -53.5 19t-19.5 47q0 35 21 60t67 53v455h-17v9h26v-469z" />
    <glyph glyph-name="Idotaccent" unicode="&#x130;" horiz-adv-x="151" 
d="M62 821q0 5 4.5 9.5t9.5 4.5t9 -4.5t4 -9.5t-4 -9t-9 -4t-9.5 4t-4.5 9zM80 0h-9v679h9v-679z" />
    <glyph glyph-name="dotlessi" unicode="&#x131;" horiz-adv-x="151" 
d="M71 455h-17v9h26v-464h-9v455z" />
    <glyph glyph-name="IJ" unicode="&#x132;" horiz-adv-x="508" 
d="M223 679h224v-536q0 -68 -44.5 -107.5t-106.5 -39.5q-86 0 -126 60v11h9v-9q18 -26 50 -40t67 -14q58 0 100 37.5t42 101.5v527h-215v9zM80 0h-9v679h9v-679z" />
    <glyph glyph-name="ij" unicode="&#x133;" horiz-adv-x="285" 
d="M205 607q0 5 4.5 9.5t9.5 4.5t9 -4.5t4 -9.5t-4 -9t-9 -4t-9.5 4t-4.5 9zM197 464h26v-558q0 -50 -35 -85t-85 -35q-66 0 -102 56l-1 1v14h9v-11l1 -1q33 -50 93 -50q46 0 78.5 32.5t32.5 78.5v549h-17v9zM62 607q0 5 4.5 9.5t9.5 4.5t9 -4.5t4 -9.5t-4 -9t-9 -4t-9.5 4
t-4.5 9zM71 455h-17v9h26v-464h-9v455z" />
    <glyph glyph-name="Jcircumflex" unicode="&#x134;" horiz-adv-x="348" 
d="M47 757l-6 6l131 107h13l131 -107l-6 -6l-128 104h-7zM71 679h224v-536q0 -68 -44.5 -107.5t-106.5 -39.5q-86 0 -126 60v11h9v-9q18 -26 50 -40t67 -14q58 0 100 37.5t42 101.5v527h-215v9z" />
    <glyph glyph-name="jcircumflex" unicode="&#x135;" horiz-adv-x="142" 
d="M-11 579l-6 6l87 71h12l87 -71l-7 -6l-83 68h-7zM54 464h26v-558q0 -50 -35 -85t-85 -35q-66 0 -102 56l-1 1v14h9v-11l1 -1q33 -50 93 -50q46 0 78.5 32.5t32.5 78.5v549h-17v9z" />
    <glyph glyph-name="Kcommaaccent" unicode="&#x136;" horiz-adv-x="571" 
d="M306 -63q0 5 4 9t9 4t9 -4t4 -9q0 -41 -42 -91l-6 4q15 18 25 40t10 34q-5 0 -9 4t-4 9zM464 46q31 -37 81 -37v-9q-53 0 -87 40l-257 301l-121 -143v-198h-9v679h9v-467l397 467h32v-9h-28l-274 -323z" />
    <glyph glyph-name="kcommaaccent" unicode="&#x137;" horiz-adv-x="526" 
d="M275 -63q0 5 4 9t9 4t9 -4t4 -9q0 -41 -42 -91l-6 4q15 18 25 40t10 34q-5 0 -9 4t-4 9zM71 0v670h-17v9h26v-582l348 367h36v-9h-33l-197 -208l177 -197q37 -41 89 -41v-9q-56 0 -96 44l-176 197l-148 -157v-84h-9z" />
    <glyph glyph-name="kgreenlandic" unicode="&#x138;" horiz-adv-x="526" 
d="M71 0v455h-17v9h26v-367l348 367h36v-9h-33l-197 -208l177 -197q37 -41 89 -41v-9q-56 0 -96 44l-176 197l-148 -157v-84h-9z" />
    <glyph glyph-name="Lacute" unicode="&#x139;" horiz-adv-x="553" 
d="M268 765l-6 6l99 99l6 -6zM80 9h429v18h9v-27h-447v679h9v-670z" />
    <glyph glyph-name="lacute" unicode="&#x13a;" horiz-adv-x="142" 
d="M49 730l-6 6l99 99l6 -6zM71 670h-17v9h26v-679h-9v670z" />
    <glyph glyph-name="Lcommaaccent" unicode="&#x13b;" horiz-adv-x="553" 
d="M293 -63q0 5 4 9t9 4t9 -4t4 -9q0 -41 -42 -91l-6 4q15 18 25 40t10 34q-5 0 -9 4t-4 9zM80 9h429v18h9v-27h-447v679h9v-670z" />
    <glyph glyph-name="lcommaaccent" unicode="&#x13c;" horiz-adv-x="142" 
d="M66 -63q0 5 4 9t9 4t9 -4t4 -9q0 -41 -42 -91l-6 4q15 18 25 40t10 34q-5 0 -9 4t-4 9zM71 670h-17v9h26v-679h-9v670z" />
    <glyph glyph-name="Lcaron" unicode="&#x13d;" horiz-adv-x="553" 
d="M500 670q0 5 4 9t9 4t9 -4t4 -9q0 -41 -42 -91l-6 4q15 18 25 40t10 34q-5 0 -9 4t-4 9zM80 9h429v18h9v-27h-447v679h9v-670z" />
    <glyph glyph-name="lcaron" unicode="&#x13e;" horiz-adv-x="196" 
d="M143 665q0 5 4 9t9 4t9 -4t4 -9q0 -41 -42 -91l-6 4q15 18 25 40t10 34q-5 0 -9 4t-4 9zM71 670h-17v9h26v-679h-9v670z" />
    <glyph glyph-name="Ldot" unicode="&#x13f;" horiz-adv-x="553" 
d="M344 342q0 5 4 9t9 4t9 -4t4 -9t-4 -9.5t-9 -4.5t-9 4.5t-4 9.5zM80 9h429v18h9v-27h-447v679h9v-670z" />
    <glyph glyph-name="ldot" unicode="&#x140;" horiz-adv-x="214" 
d="M139 237q0 5 4 9t9 4t9 -4t4 -9t-4 -9.5t-9 -4.5t-9 4.5t-4 9.5zM71 670h-17v9h26v-679h-9v670z" />
    <glyph glyph-name="Lslash" unicode="&#x141;" horiz-adv-x="553" 
d="M71 679h9v-419l289 224l5 -7l-294 -228v-240h429v18h9v-27h-447v242l-40 -31l-5 7l45 36v425z" />
    <glyph glyph-name="lslash" unicode="&#x142;" horiz-adv-x="214" 
d="M18 304l-6 7l86 77v282h-18v9h27v-283l88 77l6 -7l-94 -83v-383h-9v375z" />
    <glyph glyph-name="Nacute" unicode="&#x143;" horiz-adv-x="616" 
d="M303 765l-6 6l99 99l6 -6zM545 679v-683h-10l-455 670v-662h-9v666h-17v9h28l454 -669v669h9z" />
    <glyph glyph-name="nacute" unicode="&#x144;" 
d="M308 469q76 0 120.5 -39.5t44.5 -108.5v-312h18v-9h-27v321q0 65 -42 102t-114 37q-93 0 -160.5 -71t-67.5 -175v-214h-9v455h-17v9h26v-179q22 82 85 133t143 51zM245 551l-6 6l99 99l6 -6z" />
    <glyph glyph-name="Ncommaaccent" unicode="&#x145;" horiz-adv-x="616" 
d="M298 -68q0 5 4 9t9 4t9 -4t4 -9q0 -41 -42 -91l-6 4q15 18 25 40t10 34q-5 0 -9 4t-4 9zM545 679v-683h-10l-455 670v-662h-9v666h-17v9h28l454 -669v669h9z" />
    <glyph glyph-name="ncommaaccent" unicode="&#x146;" 
d="M271 -63q0 5 4 9t9 4t9 -4t4 -9q0 -41 -42 -91l-6 4q15 18 25 40t10 34q-5 0 -9 4t-4 9zM308 469q76 0 120.5 -39.5t44.5 -108.5v-312h18v-9h-27v321q0 65 -42 102t-114 37q-93 0 -160.5 -71t-67.5 -175v-214h-9v455h-17v9h26v-179q22 82 85 133t143 51z" />
    <glyph glyph-name="Ncaron" unicode="&#x147;" horiz-adv-x="616" 
d="M199 863l128 -104h7l128 104l6 -6l-131 -107h-13l-131 107zM545 679v-683h-10l-455 670v-662h-9v666h-17v9h28l454 -669v669h9z" />
    <glyph glyph-name="ncaron" unicode="&#x148;" 
d="M141 649l128 -104h7l128 104l6 -6l-131 -107h-13l-131 107zM308 469q76 0 120.5 -39.5t44.5 -108.5v-312h18v-9h-27v321q0 65 -42 102t-114 37q-93 0 -160.5 -71t-67.5 -175v-214h-9v455h-17v9h26v-179q22 82 85 133t143 51z" />
    <glyph glyph-name="napostrophe" unicode="&#x149;" horiz-adv-x="571" 
d="M344 469q76 0 120.5 -39.5t44.5 -108.5v-312h18v-9h-27v321q0 65 -42 102t-114 37q-93 0 -160.5 -71t-67.5 -175v-214h-9v455h-18v9h27v-179q22 82 85 133t143 51zM49 594q0 5 4 9t9 4t9 -4t4 -9q0 -41 -42 -91l-6 4q15 18 25 40t10 34q-5 0 -9 4t-4 9z" />
    <glyph glyph-name="Eng" unicode="&#x14a;" horiz-adv-x="526" 
d="M473 536v-415q0 -91 -76 -129l-1 -1h-17v9h15h1q69 36 69 121v415q0 65 -42 101.5t-114 36.5q-93 0 -160.5 -70.5t-67.5 -174.5v-429h-9v670h-17v9h26v-180q22 82 85 133t143 51q76 0 120.5 -39t44.5 -108z" />
    <glyph glyph-name="eng" unicode="&#x14b;" horiz-adv-x="526" 
d="M473 321v-406q0 -91 -76 -129h-1h-17v9h15h1q69 36 69 120v406q0 65 -42 102t-114 37q-93 0 -160.5 -71t-67.5 -175v-214h-9v455h-17v9h26v-179q22 82 85 133t143 51q76 0 120.5 -39.5t44.5 -108.5z" />
    <glyph glyph-name="Omacron" unicode="&#x14c;" horiz-adv-x="758" 
d="M522 821h-285v9h285v-9zM379 674q-139 0 -236.5 -98t-97.5 -237t97.5 -237t236.5 -98t237 98t98 237t-98 237t-237 98zM379 683q142 0 243 -101t101 -243t-101 -242.5t-243 -100.5t-242.5 100.5t-100.5 242.5t100.5 243t242.5 101z" />
    <glyph glyph-name="omacron" unicode="&#x14d;" horiz-adv-x="544" 
d="M415 607h-285v9h285v-9zM272 469q98 0 167.5 -69.5t69.5 -167.5t-69.5 -167t-167.5 -69t-167 69t-69 167t69 167.5t167 69.5zM45 232q0 -95 66.5 -161.5t160.5 -66.5t161 67t67 161t-67 161t-161 67t-160.5 -66.5t-66.5 -161.5z" />
    <glyph glyph-name="Obreve" unicode="&#x14e;" horiz-adv-x="758" 
d="M379 799q73 0 113 51l7 -5q-44 -55 -120 -55q-75 0 -119 55l7 5q40 -51 112 -51zM379 674q-139 0 -236.5 -98t-97.5 -237t97.5 -237t236.5 -98t237 98t98 237t-98 237t-237 98zM379 683q142 0 243 -101t101 -243t-101 -242.5t-243 -100.5t-242.5 100.5t-100.5 242.5
t100.5 243t242.5 101z" />
    <glyph glyph-name="obreve" unicode="&#x14f;" horiz-adv-x="544" 
d="M272 585q73 0 113 51l7 -5q-44 -55 -120 -55q-75 0 -119 55l7 5q40 -51 112 -51zM272 469q98 0 167.5 -69.5t69.5 -167.5t-69.5 -167t-167.5 -69t-167 69t-69 167t69 167.5t167 69.5zM45 232q0 -95 66.5 -161.5t160.5 -66.5t161 67t67 161t-67 161t-161 67t-160.5 -66.5
t-66.5 -161.5z" />
    <glyph glyph-name="Ohungarumlaut" unicode="&#x150;" horiz-adv-x="758" 
d="M273 765l-7 6l99 99l7 -6zM451 765l-6 6l99 99l6 -6zM379 674q-139 0 -236.5 -98t-97.5 -237t97.5 -237t236.5 -98t237 98t98 237t-98 237t-237 98zM379 683q142 0 243 -101t101 -243t-101 -242.5t-243 -100.5t-242.5 100.5t-100.5 242.5t100.5 243t242.5 101z" />
    <glyph glyph-name="ohungarumlaut" unicode="&#x151;" horiz-adv-x="544" 
d="M166 551l-7 6l99 99l7 -6zM344 551l-6 6l99 99l6 -6zM272 469q98 0 167.5 -69.5t69.5 -167.5t-69.5 -167t-167.5 -69t-167 69t-69 167t69 167.5t167 69.5zM45 232q0 -95 66.5 -161.5t160.5 -66.5t161 67t67 161t-67 161t-161 67t-160.5 -66.5t-66.5 -161.5z" />
    <glyph glyph-name="OE" unicode="&#x152;" horiz-adv-x="821" 
d="M393 9v661h-18q-136 0 -233 -97t-97 -234t96.5 -233.5t233.5 -96.5h18zM375 0q-140 0 -239.5 99.5t-99.5 239.5t99.5 240t239.5 100h375v-27h-9v18h-339v-340h205v-9h-205v-312h375v18h9v-27h-411z" />
    <glyph glyph-name="oe" unicode="&#x153;" horiz-adv-x="964" 
d="M45 232q0 -95 66.5 -161.5t160.5 -66.5t161 67t67 161t-67 161t-161 67t-160.5 -66.5t-66.5 -161.5zM714 241q22 0 45.5 7.5t50.5 25.5t40.5 27.5t42.5 34.5t30 26q-31 45 -80 71.5t-106 26.5q-92 0 -158 -64t-70 -155h205zM504 278q17 82 82.5 136.5t150.5 54.5
q59 0 111 -28.5t85 -76.5l2 -3l-3 -2l-39 -33q-39 -33 -58 -46.5t-55.5 -30.5t-66.5 -17h-204q0 -94 66.5 -161t161.5 -67q98 0 166 73l7 -6q-70 -75 -173 -75q-86 0 -151.5 54t-81.5 136q-16 -82 -81 -136t-151 -54q-98 0 -167 69t-69 167t69 167.5t167 69.5
q86 0 151 -54.5t81 -136.5z" />
    <glyph glyph-name="Racute" unicode="&#x154;" horiz-adv-x="571" 
d="M232 765l-6 6l99 99l6 -6zM80 312v-312h-9v670h-17v9h241q101 0 157.5 -54t56.5 -129t-56.5 -129t-157.5 -54h-31v-1q27 -8 45.5 -27t41.5 -59l112 -176q16 -25 30 -33t37 -8h24v-9h-24q-24 0 -40.5 9.5t-33.5 36.5l-112 175q-34 58 -61 74.5t-95 16.5h-108zM295 321
q97 0 151 52t54 123t-53.5 122.5t-151.5 51.5h-215v-349h215z" />
    <glyph glyph-name="racute" unicode="&#x155;" horiz-adv-x="321" 
d="M151 551l-6 6l99 99l6 -6zM281 469h5v-31h-9v22q-67 -3 -132 -82t-65 -190v-188h-9v455h-17v9h26v-200q21 89 82.5 147t118.5 58z" />
    <glyph glyph-name="Rcommaaccent" unicode="&#x156;" horiz-adv-x="571" 
d="M284 -77q0 5 4 9t9 4t9 -4t4 -9q0 -41 -42 -91l-6 4q15 18 25 40t10 34q-5 0 -9 4t-4 9zM80 312v-312h-9v670h-17v9h241q101 0 157.5 -54t56.5 -129t-56.5 -129t-157.5 -54h-31v-1q27 -8 45.5 -27t41.5 -59l112 -176q16 -25 30 -33t37 -8h24v-9h-24q-24 0 -40.5 9.5
t-33.5 36.5l-112 175q-34 58 -61 74.5t-95 16.5h-108zM295 321q97 0 151 52t54 123t-53.5 122.5t-151.5 51.5h-215v-349h215z" />
    <glyph glyph-name="rcommaaccent" unicode="&#x157;" horiz-adv-x="321" 
d="M150 -77q0 5 4 9t9 4t9 -4t4 -9q0 -41 -42 -91l-6 4q15 18 25 40t10 34q-5 0 -9 4t-4 9zM281 469h5v-31h-9v22q-67 -3 -132 -82t-65 -190v-188h-9v455h-17v9h26v-200q21 89 82.5 147t118.5 58z" />
    <glyph glyph-name="Rcaron" unicode="&#x158;" horiz-adv-x="571" 
d="M127 863l128 -104h7l128 104l6 -6l-131 -107h-13l-131 107zM80 312v-312h-9v670h-17v9h241q101 0 157.5 -54t56.5 -129t-56.5 -129t-157.5 -54h-31v-1q27 -8 45.5 -27t41.5 -59l112 -176q16 -25 30 -33t37 -8h24v-9h-24q-24 0 -40.5 9.5t-33.5 36.5l-112 175
q-34 58 -61 74.5t-95 16.5h-108zM295 321q97 0 151 52t54 123t-53.5 122.5t-151.5 51.5h-215v-349h215z" />
    <glyph glyph-name="rcaron" unicode="&#x159;" horiz-adv-x="321" 
d="M47 649l128 -104h7l128 104l6 -6l-131 -107h-13l-131 107zM281 469h5v-31h-9v22q-67 -3 -132 -82t-65 -190v-188h-9v455h-17v9h26v-200q21 89 82.5 147t118.5 58z" />
    <glyph glyph-name="Sacute" unicode="&#x15a;" horiz-adv-x="580" 
d="M272 765l-6 6l99 99l6 -6zM45 100q34 -34 104 -65t141 -31q115 0 180.5 43t65.5 105q0 32 -14 59t-32.5 45t-54 37.5t-61 30t-71.5 27.5q-123 46 -164 74q-68 46 -68 111q0 67 64 107t155 40q57 0 115.5 -20.5t98.5 -60.5v-2v-29h-8v25q-40 39 -96.5 58.5t-109.5 19.5
q-88 0 -149 -38t-61 -100q0 -23 7.5 -42t26 -35.5t34 -28t48.5 -26.5t51 -22t59 -22q45 -17 70.5 -27.5t62.5 -30.5t56.5 -39t34.5 -48t15 -63q0 -67 -68.5 -111.5t-186.5 -44.5q-74 0 -146.5 32t-106.5 67l-1 1v29h9v-25z" />
    <glyph glyph-name="sacute" unicode="&#x15b;" horiz-adv-x="437" 
d="M187 551l-6 6l99 99l6 -6zM45 73q53 -69 174 -69q82 0 128 30.5t46 72.5q0 41 -33 69.5t-80.5 44.5t-95 32.5t-80.5 44.5t-33 68q0 38 44.5 70.5t103.5 32.5q91 0 146 -55l1 -1v-20h-9v16q-52 51 -138 51q-57 0 -98 -30.5t-41 -63.5q0 -38 33 -64t80.5 -42t95 -33
t80.5 -47t33 -73q0 -47 -49 -79t-134 -32q-127 0 -182 73l-1 1v19h9v-16z" />
    <glyph glyph-name="Scircumflex" unicode="&#x15c;" horiz-adv-x="580" 
d="M168 757l-6 6l131 107h13l131 -107l-6 -6l-128 104h-7zM45 100q34 -34 104 -65t141 -31q115 0 180.5 43t65.5 105q0 32 -14 59t-32.5 45t-54 37.5t-61 30t-71.5 27.5q-123 46 -164 74q-68 46 -68 111q0 67 64 107t155 40q57 0 115.5 -20.5t98.5 -60.5v-2v-29h-8v25
q-40 39 -96.5 58.5t-109.5 19.5q-88 0 -149 -38t-61 -100q0 -23 7.5 -42t26 -35.5t34 -28t48.5 -26.5t51 -22t59 -22q45 -17 70.5 -27.5t62.5 -30.5t56.5 -39t34.5 -48t15 -63q0 -67 -68.5 -111.5t-186.5 -44.5q-74 0 -146.5 32t-106.5 67l-1 1v29h9v-25z" />
    <glyph glyph-name="scircumflex" unicode="&#x15d;" horiz-adv-x="437" 
d="M83 543l-6 6l131 107h13l131 -107l-6 -6l-128 104h-7zM45 73q53 -69 174 -69q82 0 128 30.5t46 72.5q0 41 -33 69.5t-80.5 44.5t-95 32.5t-80.5 44.5t-33 68q0 38 44.5 70.5t103.5 32.5q91 0 146 -55l1 -1v-20h-9v16q-52 51 -138 51q-57 0 -98 -30.5t-41 -63.5
q0 -38 33 -64t80.5 -42t95 -33t80.5 -47t33 -73q0 -47 -49 -79t-134 -32q-127 0 -182 73l-1 1v19h9v-16z" />
    <glyph glyph-name="Scedilla" unicode="&#x15e;" horiz-adv-x="580" 
d="M284 -63q15 8 36 8q26 0 41 -18.5t15 -44.5q0 -28 -18.5 -49t-51.5 -21q-34 0 -56 25l7 5q18 -21 49 -21q29 0 45 18t16 43q0 23 -13 38.5t-34 15.5q-20 0 -39 -12l-2 -1l-15 5l20 68q-73 1 -143 32.5t-104 66.5l-1 1v29h9v-25q34 -34 104 -65t141 -31q115 0 180.5 43
t65.5 105q0 32 -14 59t-32.5 45t-54 37.5t-61 30t-71.5 27.5q-123 46 -164 74q-68 46 -68 111q0 67 64 107t155 40q57 0 115.5 -20.5t98.5 -60.5v-2v-29h-8v25q-40 39 -96.5 58.5t-109.5 19.5q-88 0 -149 -38t-61 -100q0 -23 7.5 -42t26 -35.5t34 -28t48.5 -26.5t51 -22
t59 -22q45 -17 70.5 -27.5t62.5 -30.5t56.5 -39t34.5 -48t15 -63q0 -66 -68 -110.5t-184 -45.5l-18 -64z" />
    <glyph glyph-name="scedilla" unicode="&#x15f;" horiz-adv-x="437" 
d="M208 -63q15 8 36 8q26 0 41 -18.5t15 -44.5q0 -28 -18.5 -49t-51.5 -21q-34 0 -56 25l7 5q18 -21 49 -21q29 0 45 18t16 43q0 23 -13 38.5t-34 15.5q-20 0 -39 -12l-2 -1l-15 5l20 68q-119 4 -171 73l-1 1v19h9v-16q53 -69 174 -69q82 0 128 30.5t46 72.5q0 41 -33 69.5
t-80.5 44.5t-95 32.5t-80.5 44.5t-33 68q0 38 44.5 70.5t103.5 32.5q91 0 146 -55l1 -1v-20h-9v16q-52 51 -138 51q-57 0 -98 -30.5t-41 -63.5q0 -38 33 -64t80.5 -42t95 -33t80.5 -47t33 -73q0 -47 -49 -79t-134 -32h-2l-18 -64z" />
    <glyph glyph-name="Scaron" unicode="&#x160;" horiz-adv-x="580" 
d="M168 863l128 -104h7l128 104l6 -6l-131 -107h-13l-131 107zM45 100q34 -34 104 -65t141 -31q115 0 180.5 43t65.5 105q0 32 -14 59t-32.5 45t-54 37.5t-61 30t-71.5 27.5q-123 46 -164 74q-68 46 -68 111q0 67 64 107t155 40q57 0 115.5 -20.5t98.5 -60.5v-2v-29h-8v25
q-40 39 -96.5 58.5t-109.5 19.5q-88 0 -149 -38t-61 -100q0 -23 7.5 -42t26 -35.5t34 -28t48.5 -26.5t51 -22t59 -22q45 -17 70.5 -27.5t62.5 -30.5t56.5 -39t34.5 -48t15 -63q0 -67 -68.5 -111.5t-186.5 -44.5q-74 0 -146.5 32t-106.5 67l-1 1v29h9v-25z" />
    <glyph glyph-name="scaron" unicode="&#x161;" horiz-adv-x="437" 
d="M83 649l128 -104h7l128 104l6 -6l-131 -107h-13l-131 107zM45 73q53 -69 174 -69q82 0 128 30.5t46 72.5q0 41 -33 69.5t-80.5 44.5t-95 32.5t-80.5 44.5t-33 68q0 38 44.5 70.5t103.5 32.5q91 0 146 -55l1 -1v-20h-9v16q-52 51 -138 51q-57 0 -98 -30.5t-41 -63.5
q0 -38 33 -64t80.5 -42t95 -33t80.5 -47t33 -73q0 -47 -49 -79t-134 -32q-127 0 -182 73l-1 1v19h9v-16z" />
    <glyph glyph-name="Tcommaaccent" unicode="&#x162;" horiz-adv-x="580" 
d="M284 -59q15 8 36 8q27 0 41.5 -18t14.5 -44q0 -28 -19 -49.5t-51 -21.5q-33 0 -56 26l7 5q19 -22 49 -22q29 0 45 18.5t16 43.5q0 23 -13 38.5t-34 15.5q-18 0 -39 -13h-2l-15 5l22 73v664h-241v-18h-9v27h509v-27h-9v18h-241v-670h-2l-18 -64z" />
    <glyph glyph-name="tcommaaccent" unicode="&#x163;" horiz-adv-x="392" 
d="M190 -54q15 8 36 8q27 0 41.5 -18t14.5 -44q0 -28 -19 -49.5t-51 -21.5q-33 0 -56 26l7 6q20 -23 49 -23t45 18.5t16 43.5q0 24 -13 39t-34 15q-20 0 -39 -12l-1 -1l-15 5l19 66q-40 15 -66 50.5t-26 79.5v321h-62v9h62v107h9v-107h214v-9h-214v-321q0 -53 38.5 -91.5
t91.5 -38.5q35 0 64.5 17.5t46.5 46.5v12h9v-14l-1 -1q-18 -31 -50 -50t-69 -19q-18 0 -38 5l-18 -60z" />
    <glyph glyph-name="Tcaron" unicode="&#x164;" horiz-adv-x="580" 
d="M159 872l128 -104h7l128 104l6 -6l-131 -107h-13l-131 107zM36 679h509v-27h-9v18h-241v-670h-9v670h-241v-18h-9v27z" />
    <glyph glyph-name="tcaron" unicode="&#x165;" horiz-adv-x="446" 
d="M393 594q0 5 4 9t9 4t9 -4t4 -9q0 -41 -42 -91l-6 4q15 18 25 40t10 34q-5 0 -9 4t-4 9zM107 134q0 -54 38.5 -92t91.5 -38q72 0 111 64v12h9v-14v-1q-18 -31 -50 -50t-70 -19q-57 0 -98 40.5t-41 97.5v321h-62v9h62v107h9v-107h214v-9h-214v-321z" />
    <glyph glyph-name="Tbar" unicode="&#x166;" horiz-adv-x="580" 
d="M36 679h509v-27h-9v18h-241v-161h107v-9h-107v-500h-9v500h-107v9h107v161h-241v-18h-9v27z" />
    <glyph glyph-name="tbar" unicode="&#x167;" horiz-adv-x="392" 
d="M71 312v9h27v134h-62v9h62v107h9v-107h214v-9h-214v-134h179v-9h-179v-178q0 -53 38.5 -91.5t91.5 -38.5q72 0 111 64v12h9v-14v-1q-18 -31 -50 -50t-70 -19q-57 0 -98 40.5t-41 97.5v178h-27z" />
    <glyph glyph-name="Utilde" unicode="&#x168;" horiz-adv-x="616" 
d="M425 850q-9 -49 -53 -49q-22 0 -41 11l-55 30q-16 8 -32 8q-35 0 -44 -42l-2 -10l-9 2l2 10q10 49 53 49q20 0 36 -9l55 -30q15 -10 37 -10q36 0 44 41l2 10l9 -1zM545 232q0 -98 -69.5 -167t-167.5 -69t-167.5 69t-69.5 167v438h-17v9h26v-447q0 -94 67 -161t161 -67
t161 67t67 161v447h9v-447z" />
    <glyph glyph-name="utilde" unicode="&#x169;" 
d="M394 636q-9 -49 -53 -49q-22 0 -41 11l-55 30q-16 8 -32 8q-35 0 -44 -42l-2 -10l-9 2l2 10q10 49 53 49q20 0 36 -9l55 -30q15 -10 37 -10q36 0 44 41l2 10l9 -1zM237 -4q-76 0 -121 39t-45 108v312h-17v9h26v-321q0 -65 42.5 -102t114.5 -37q93 0 160 71t67 175v214h9
v-455h18v-9h-27v180q-22 -82 -85 -133t-142 -51z" />
    <glyph glyph-name="Umacron" unicode="&#x16a;" horiz-adv-x="616" 
d="M451 821h-285v9h285v-9zM545 232q0 -98 -69.5 -167t-167.5 -69t-167.5 69t-69.5 167v438h-17v9h26v-447q0 -94 67 -161t161 -67t161 67t67 161v447h9v-447z" />
    <glyph glyph-name="umacron" unicode="&#x16b;" 
d="M419 607h-285v9h285v-9zM237 -4q-76 0 -121 39t-45 108v312h-17v9h26v-321q0 -65 42.5 -102t114.5 -37q93 0 160 71t67 175v214h9v-455h18v-9h-27v180q-22 -82 -85 -133t-142 -51z" />
    <glyph glyph-name="Ubreve" unicode="&#x16c;" horiz-adv-x="616" 
d="M308 799q73 0 113 51l7 -5q-44 -55 -120 -55q-75 0 -119 55l7 5q40 -51 112 -51zM545 232q0 -98 -69.5 -167t-167.5 -69t-167.5 69t-69.5 167v438h-17v9h26v-447q0 -94 67 -161t161 -67t161 67t67 161v447h9v-447z" />
    <glyph glyph-name="ubreve" unicode="&#x16d;" 
d="M277 585q73 0 113 51l7 -5q-44 -55 -120 -55q-75 0 -119 55l7 5q40 -51 112 -51zM237 -4q-76 0 -121 39t-45 108v312h-17v9h26v-321q0 -65 42.5 -102t114.5 -37q93 0 160 71t67 175v214h9v-455h18v-9h-27v180q-22 -82 -85 -133t-142 -51z" />
    <glyph glyph-name="Uring" unicode="&#x16e;" horiz-adv-x="616" 
d="M354 849q-22 21 -46 21t-46 -21q-21 -19 -21 -46q0 -25 21 -46t46 -21q24 0 46 21q21 19 21 46t-21 46zM384 803q0 -28 -24 -52q-26 -24 -52 -24q-28 0 -52 24t-24 52q0 29 24 53q25 23 52 23t52 -23q24 -24 24 -53zM545 232q0 -98 -69.5 -167t-167.5 -69t-167.5 69
t-69.5 167v438h-17v9h26v-447q0 -94 67 -161t161 -67t161 67t67 161v447h9v-447z" />
    <glyph glyph-name="uring" unicode="&#x16f;" 
d="M323 635q-22 21 -46 21t-46 -21q-21 -19 -21 -46q0 -25 21 -46t46 -21q24 0 46 21q21 19 21 46t-21 46zM353 589q0 -28 -24 -52q-26 -24 -52 -24q-28 0 -52 24t-24 52q0 29 24 53q25 23 52 23t52 -23q24 -24 24 -53zM237 -4q-76 0 -121 39t-45 108v312h-17v9h26v-321
q0 -65 42.5 -102t114.5 -37q93 0 160 71t67 175v214h9v-455h18v-9h-27v180q-22 -82 -85 -133t-142 -51z" />
    <glyph glyph-name="Uhungarumlaut" unicode="&#x170;" horiz-adv-x="616" 
d="M201 765l-7 6l99 99l7 -6zM379 765l-6 6l99 99l6 -6zM545 232q0 -98 -69.5 -167t-167.5 -69t-167.5 69t-69.5 167v438h-17v9h26v-447q0 -94 67 -161t161 -67t161 67t67 161v447h9v-447z" />
    <glyph glyph-name="uhungarumlaut" unicode="&#x171;" 
d="M237 -4q-76 0 -121 39t-45 108v312h-17v9h26v-321q0 -65 42.5 -102t114.5 -37q93 0 160 71t67 175v214h9v-455h18v-9h-27v180q-22 -82 -85 -133t-142 -51zM170 551l-7 6l99 99l7 -6zM348 551l-6 6l99 99l6 -6z" />
    <glyph glyph-name="Uogonek" unicode="&#x172;" horiz-adv-x="616" 
d="M369 4q-30 -8 -61 -8q-98 0 -167.5 69t-69.5 167v438h-17v9h26v-447q0 -94 67 -161t161 -67t161 67t67 161v447h9v-447q0 -67 -35 -123.5t-93 -86.5q-88 -52 -109 -72q-29 -28 -29 -63q0 -25 17 -41t47 -16q26 0 50 16l6 -7q-26 -18 -56 -18q-34 0 -53.5 19t-19.5 47
q0 36 23.5 61t75.5 56z" />
    <glyph glyph-name="uogonek" unicode="&#x173;" horiz-adv-x="553" 
d="M464 0v180q-22 -82 -85 -133t-142 -51q-76 0 -121 39t-45 108v312h-17v9h26v-321q0 -65 42.5 -102t114.5 -37q93 0 160 71t67 175v214h9v-455h18v-9q-9 -5 -26 -14.5t-24 -13t-19.5 -11.5t-17.5 -12.5t-13 -12.5t-11 -14.5t-5.5 -15.5t-2.5 -19q0 -25 17 -41t48 -16
q26 0 50 16l5 -7q-26 -18 -55 -18q-34 0 -54 19t-20 47q0 20 6.5 35t25 29.5t32 22.5t46.5 26h-9z" />
    <glyph glyph-name="Wcircumflex" unicode="&#x174;" horiz-adv-x="919" 
d="M342 757l-6 6l131 107h13l131 -107l-6 -6l-128 104h-7zM465 512v95h9v-95l182 -501l247 669l8 -3l-251 -681h-8l-182 501l-186 -501h-8l-244 674h-14v9h21l241 -668z" />
    <glyph glyph-name="wcircumflex" unicode="&#x175;" horiz-adv-x="785" 
d="M275 543l-6 6l131 107h13l131 -107l-6 -6l-128 104h-7zM768 464v-19l-197 -454h-8l-157 362l-156 -362h-9l-201 464h-18v9h25l199 -460l155 361l1 1v80h9v-80v-1l156 -361l192 443v17h9z" />
    <glyph glyph-name="Ycircumflex" unicode="&#x176;" horiz-adv-x="580" 
d="M163 757l-6 6l131 107h13l131 -107l-6 -6l-128 104h-7zM562 670l-258 -424v-246h-9v246l-261 424h-16v9h21l260 -422l255 414v8h8v-9z" />
    <glyph glyph-name="ycircumflex" unicode="&#x177;" horiz-adv-x="526" 
d="M136 543l-6 6l131 107h13l131 -107l-6 -6l-128 104h-7zM18 455v9h26l218 -490l238 496l9 -5l-288 -595q-41 -84 -105 -84q-57 0 -95 56v15h8v-14q34 -48 87 -48q59 0 97 78l44 90l-219 492h-20z" />
    <glyph glyph-name="Ydieresis" unicode="&#x178;" horiz-adv-x="580" 
d="M187 808q0 5 4.5 9t9.5 4t9 -4t4 -9t-4 -9.5t-9 -4.5t-9.5 4.5t-4.5 9.5zM375 808q0 5 4 9t9 4t9.5 -4t4.5 -9t-4.5 -9.5t-9.5 -4.5t-9 4.5t-4 9.5zM562 670l-258 -424v-246h-9v246l-261 424h-16v9h21l260 -422l255 414v8h8v-9z" />
    <glyph glyph-name="Zacute" unicode="&#x179;" horiz-adv-x="571" 
d="M259 765l-6 6l99 99l6 -6zM518 679v-10l-471 -660h480v18h9v-27h-500v9l471 661h-445v-18h-8v27h464z" />
    <glyph glyph-name="zacute" unicode="&#x17a;" horiz-adv-x="500" 
d="M223 551l-6 6l99 99l6 -6zM54 438v26h392v-11l-401 -444h410v18h9v-27h-428v12l401 443h-375v-17h-8z" />
    <glyph glyph-name="Zdotaccent" unicode="&#x17b;" horiz-adv-x="571" 
d="M272 821q0 5 4.5 9.5t9.5 4.5t9 -4.5t4 -9.5t-4 -9t-9 -4t-9.5 4t-4.5 9zM518 679v-10l-471 -660h480v18h9v-27h-500v9l471 661h-445v-18h-8v27h464z" />
    <glyph glyph-name="zdotaccent" unicode="&#x17c;" horiz-adv-x="500" 
d="M236 607q0 5 4.5 9.5t9.5 4.5t9 -4.5t4 -9.5t-4 -9t-9 -4t-9.5 4t-4.5 9zM54 438v26h392v-11l-401 -444h410v18h9v-27h-428v12l401 443h-375v-17h-8z" />
    <glyph glyph-name="Zcaron" unicode="&#x17d;" horiz-adv-x="571" 
d="M154 863l128 -104h7l128 104l6 -6l-131 -107h-13l-131 107zM518 679v-10l-471 -660h480v18h9v-27h-500v9l471 661h-445v-18h-8v27h464z" />
    <glyph glyph-name="zcaron" unicode="&#x17e;" horiz-adv-x="500" 
d="M118 649l128 -104h7l128 104l6 -6l-131 -107h-13l-131 107zM54 438v26h392v-11l-401 -444h410v18h9v-27h-428v12l401 443h-375v-17h-8z" />
    <glyph glyph-name="florin" unicode="&#x192;" horiz-adv-x="500" 
d="M250 -94q0 -50 -35.5 -85t-85.5 -35q-65 0 -102 55v2v14h9v-11l2 -4q34 -47 91 -47q46 0 79 32.5t33 78.5v478h-134v9h134v143q0 50 35.5 85t85.5 35q65 0 101 -55l-1 1v-2l2 -2v-4h-9v2l-2 4q-34 47 -91 47q-46 0 -79 -32.5t-33 -78.5v-143h143v-9h-143v-478z" />
    <glyph glyph-name="uni01CD" unicode="&#x1cd;" horiz-adv-x="589" 
d="M163 863l128 -104h7l128 104l6 -6l-131 -107h-13l-131 107zM295 669l-185 -473h370zM484 188h-378l-73 -188h-20v9h15l263 674h7l269 -681l-8 -4z" />
    <glyph glyph-name="uni01CE" unicode="&#x1ce;" horiz-adv-x="500" 
d="M132 649l128 -104h7l128 104l6 -6l-131 -107h-13l-131 107zM107 412v19l2 1q62 37 154 37q75 0 125 -35.5t50 -112.5v-312h17v-9h-26v91q-29 -44 -89 -69.5t-121 -25.5q-78 0 -130.5 39t-52.5 105q0 53 47.5 86t135.5 33h210v62q0 40 -15 68.5t-40 43t-52.5 21t-58.5 6.5
q-87 0 -147 -34v-14h-9zM429 250h-210q-85 0 -129.5 -30.5t-44.5 -79.5q0 -62 49.5 -99t124.5 -37q65 0 126.5 28.5t83.5 75.5v142z" />
    <glyph glyph-name="uni01CF" unicode="&#x1cf;" horiz-adv-x="151" 
d="M-56 863l128 -104h7l128 104l6 -6l-131 -107h-13l-131 107zM80 0h-9v679h9v-679z" />
    <glyph glyph-name="uni01D0" unicode="&#x1d0;" horiz-adv-x="151" 
d="M-56 649l128 -104h7l128 104l6 -6l-131 -107h-13l-131 107zM71 455h-17v9h26v-464h-9v455z" />
    <glyph glyph-name="uni01D1" unicode="&#x1d1;" horiz-adv-x="758" 
d="M248 863l128 -104h7l128 104l6 -6l-131 -107h-13l-131 107zM379 674q-139 0 -236.5 -98t-97.5 -237t97.5 -237t236.5 -98t237 98t98 237t-98 237t-237 98zM379 683q142 0 243 -101t101 -243t-101 -242.5t-243 -100.5t-242.5 100.5t-100.5 242.5t100.5 243t242.5 101z" />
    <glyph glyph-name="uni01D2" unicode="&#x1d2;" horiz-adv-x="544" 
d="M141 649l128 -104h7l128 104l6 -6l-131 -107h-13l-131 107zM272 469q98 0 167.5 -69.5t69.5 -167.5t-69.5 -167t-167.5 -69t-167 69t-69 167t69 167.5t167 69.5zM45 232q0 -95 66.5 -161.5t160.5 -66.5t161 67t67 161t-67 161t-161 67t-160.5 -66.5t-66.5 -161.5z" />
    <glyph glyph-name="uni01D3" unicode="&#x1d3;" horiz-adv-x="616" 
d="M181 863l128 -104h7l128 104l6 -6l-131 -107h-13l-131 107zM545 232q0 -98 -69.5 -167t-167.5 -69t-167.5 69t-69.5 167v438h-17v9h26v-447q0 -94 67 -161t161 -67t161 67t67 161v447h9v-447z" />
    <glyph glyph-name="uni01D4" unicode="&#x1d4;" 
d="M145 649l128 -104h7l128 104l6 -6l-131 -107h-13l-131 107zM237 -4q-76 0 -121 39t-45 108v312h-17v9h26v-321q0 -65 42.5 -102t114.5 -37q93 0 160 71t67 175v214h9v-455h18v-9h-27v180q-22 -82 -85 -133t-142 -51z" />
    <glyph glyph-name="Gcaron" unicode="&#x1e6;" horiz-adv-x="642" 
d="M252 863l128 -104h7l128 104l6 -6l-131 -107h-13l-131 107zM612 321v-321h-9v96q-42 -45 -102 -72.5t-122 -27.5q-143 0 -243 100t-100 243t100.5 243.5t242.5 100.5q103 0 191 -63l1 -2v-29h-9v25q-85 60 -183 60q-139 0 -236.5 -98t-97.5 -237t97.5 -237t236.5 -98
q62 0 122.5 29t101.5 76v203h-152v9h161z" />
    <glyph glyph-name="gcaron" unicode="&#x1e7;" horiz-adv-x="491" 
d="M110 649l128 -104h7l128 104l6 -6l-131 -107h-13l-131 107zM104 35q-32 -21 -54.5 -62.5t-22.5 -81.5q0 -96 128 -96h196q56 0 84.5 23.5t28.5 57.5q0 30 -21.5 56.5t-58.5 35.5zM85 312q0 -70 46 -108.5t110 -38.5t110 38.5t46 108.5t-46.5 109t-109.5 39
q-64 0 -110 -39t-46 -109zM70 81q0 -30 36 -38l281 -67q39 -9 62.5 -38t23.5 -62q0 -38 -31 -64t-91 -26h-196q-71 0 -104 29.5t-33 75.5q0 40 22 81.5t54 65.5q-33 12 -33 43q0 44 66 115q-51 44 -51 116q0 74 49 115.5t116 41.5q59 0 103 -31h120v-9h-108q50 -43 50 -117
t-49 -115t-116 -41q-62 0 -108 35q-19 -18 -41 -51.5t-22 -58.5z" />
    <glyph glyph-name="uni01E8" unicode="&#x1e8;" horiz-adv-x="571" 
d="M159 863l128 -104h7l128 104l6 -6l-131 -107h-13l-131 107zM464 46q31 -37 81 -37v-9q-53 0 -87 40l-257 301l-121 -143v-198h-9v679h9v-467l397 467h32v-9h-28l-274 -323z" />
    <glyph glyph-name="uni01E9" unicode="&#x1e9;" horiz-adv-x="526" 
d="M141 828l128 -104h7l128 104l6 -6l-131 -107h-13l-131 107zM71 0v670h-17v9h26v-582l348 367h36v-9h-33l-197 -208l177 -197q37 -41 89 -41v-9q-56 0 -96 44l-176 197l-148 -157v-84h-9z" />
    <glyph glyph-name="uni01EA" unicode="&#x1ea;" horiz-adv-x="758" 
d="M379 683q142 0 243 -101t101 -243q0 -104 -57 -189.5t-149 -125.5q-11 -7 -35 -20.5t-33.5 -19t-26.5 -16.5t-24 -18.5t-16 -18t-12 -21.5t-3 -23q0 -25 17 -41t47 -16q26 0 50 16l5 -7q-26 -18 -55 -18q-34 0 -53.5 19t-19.5 47q0 20 7.5 36t27 32t34.5 25.5t48 28.5
q-43 -13 -96 -13q-142 0 -242.5 100.5t-100.5 242.5t100.5 243t242.5 101zM379 674q-139 0 -236.5 -98t-97.5 -237t97.5 -237t236.5 -98t237 98t98 237t-98 237t-237 98z" />
    <glyph glyph-name="uni01EB" unicode="&#x1eb;" horiz-adv-x="544" 
d="M45 232q0 -95 66.5 -161.5t160.5 -66.5t161 67t67 161t-67 161t-161 67t-160.5 -66.5t-66.5 -161.5zM272 469q98 0 167.5 -69.5t69.5 -167.5q0 -67 -34.5 -122.5t-91.5 -86.5q-90 -52 -112 -73q-29 -28 -29 -63q0 -25 17 -41t48 -16q26 0 50 16l5 -7q-26 -18 -55 -18
q-34 0 -54 19t-20 47q0 36 24.5 61t77.5 56q-32 -8 -63 -8q-98 0 -167 69t-69 167t69 167.5t167 69.5z" />
    <glyph glyph-name="uni01EC" unicode="&#x1ec;" horiz-adv-x="758" 
d="M522 733h-285v9h285v-9zM379 683q142 0 243 -101t101 -243q0 -104 -57 -189.5t-149 -125.5q-11 -7 -35 -20.5t-33.5 -19t-26.5 -16.5t-24 -18.5t-16 -18t-12 -21.5t-3 -23q0 -25 17 -41t47 -16q26 0 50 16l5 -7q-26 -18 -55 -18q-34 0 -53.5 19t-19.5 47q0 20 7.5 36
t27 32t34.5 25.5t48 28.5q-43 -13 -96 -13q-142 0 -242.5 100.5t-100.5 242.5t100.5 243t242.5 101zM379 674q-139 0 -236.5 -98t-97.5 -237t97.5 -237t236.5 -98t237 98t98 237t-98 237t-237 98z" />
    <glyph glyph-name="uni01ED" unicode="&#x1ed;" horiz-adv-x="544" 
d="M415 519h-285v9h285v-9zM45 232q0 -95 66.5 -161.5t160.5 -66.5t161 67t67 161t-67 161t-161 67t-160.5 -66.5t-66.5 -161.5zM272 469q98 0 167.5 -69.5t69.5 -167.5q0 -67 -34.5 -122.5t-91.5 -86.5q-90 -52 -112 -73q-29 -28 -29 -63q0 -25 17 -41t48 -16q26 0 50 16
l5 -7q-26 -18 -55 -18q-34 0 -54 19t-20 47q0 36 24.5 61t77.5 56q-32 -8 -63 -8q-98 0 -167 69t-69 167t69 167.5t167 69.5z" />
    <glyph glyph-name="uni01F4" unicode="&#x1f4;" horiz-adv-x="642" 
d="M357 765l-6 6l99 99l6 -6zM612 321v-321h-9v96q-42 -45 -102 -72.5t-122 -27.5q-143 0 -243 100t-100 243t100.5 243.5t242.5 100.5q103 0 191 -63l1 -2v-29h-9v25q-85 60 -183 60q-139 0 -236.5 -98t-97.5 -237t97.5 -237t236.5 -98q62 0 122.5 29t101.5 76v203h-152v9
h161z" />
    <glyph glyph-name="uni01F5" unicode="&#x1f5;" horiz-adv-x="491" 
d="M214 551l-6 6l99 99l6 -6zM104 35q-32 -21 -54.5 -62.5t-22.5 -81.5q0 -96 128 -96h196q56 0 84.5 23.5t28.5 57.5q0 30 -21.5 56.5t-58.5 35.5zM85 312q0 -70 46 -108.5t110 -38.5t110 38.5t46 108.5t-46.5 109t-109.5 39q-64 0 -110 -39t-46 -109zM70 81q0 -30 36 -38
l281 -67q39 -9 62.5 -38t23.5 -62q0 -38 -31 -64t-91 -26h-196q-71 0 -104 29.5t-33 75.5q0 40 22 81.5t54 65.5q-33 12 -33 43q0 44 66 115q-51 44 -51 116q0 74 49 115.5t116 41.5q59 0 103 -31h120v-9h-108q50 -43 50 -117t-49 -115t-116 -41q-62 0 -108 35
q-19 -18 -41 -51.5t-22 -58.5z" />
    <glyph glyph-name="uni0200" unicode="&#x200;" horiz-adv-x="589" 
d="M231 765l-99 99l6 6l99 -99zM409 765l-99 99l7 6l99 -99zM295 669l-185 -473h370zM484 188h-378l-73 -188h-20v9h15l263 674h7l269 -681l-8 -4z" />
    <glyph glyph-name="uni0201" unicode="&#x201;" horiz-adv-x="500" 
d="M107 412v19l2 1q62 37 154 37q75 0 125 -35.5t50 -112.5v-312h17v-9h-26v91q-29 -44 -89 -69.5t-121 -25.5q-78 0 -130.5 39t-52.5 105q0 53 47.5 86t135.5 33h210v62q0 40 -15 68.5t-40 43t-52.5 21t-58.5 6.5q-87 0 -147 -34v-14h-9zM429 250h-210q-85 0 -129.5 -30.5
t-44.5 -79.5q0 -62 49.5 -99t124.5 -37q65 0 126.5 28.5t83.5 75.5v142zM200 551l-99 99l6 6l99 -99zM378 551l-99 99l7 6l99 -99z" />
    <glyph glyph-name="Scommaaccent" unicode="&#x218;" horiz-adv-x="580" 
d="M288 -68q0 5 4 9t9 4t9 -4t4 -9q0 -41 -42 -91l-6 4q15 18 25 40t10 34q-5 0 -9 4t-4 9zM45 100q34 -34 104 -65t141 -31q115 0 180.5 43t65.5 105q0 32 -14 59t-32.5 45t-54 37.5t-61 30t-71.5 27.5q-123 46 -164 74q-68 46 -68 111q0 67 64 107t155 40
q57 0 115.5 -20.5t98.5 -60.5v-2v-29h-8v25q-40 39 -96.5 58.5t-109.5 19.5q-88 0 -149 -38t-61 -100q0 -23 7.5 -42t26 -35.5t34 -28t48.5 -26.5t51 -22t59 -22q45 -17 70.5 -27.5t62.5 -30.5t56.5 -39t34.5 -48t15 -63q0 -67 -68.5 -111.5t-186.5 -44.5q-74 0 -146.5 32
t-106.5 67l-1 1v29h9v-25z" />
    <glyph glyph-name="scommaaccent" unicode="&#x219;" horiz-adv-x="437" 
d="M216 -68q0 5 4 9t9 4t9 -4t4 -9q0 -41 -42 -91l-6 4q15 18 25 40t10 34q-5 0 -9 4t-4 9zM45 73q53 -69 174 -69q82 0 128 30.5t46 72.5q0 41 -33 69.5t-80.5 44.5t-95 32.5t-80.5 44.5t-33 68q0 38 44.5 70.5t103.5 32.5q91 0 146 -55l1 -1v-20h-9v16q-52 51 -138 51
q-57 0 -98 -30.5t-41 -63.5q0 -38 33 -64t80.5 -42t95 -33t80.5 -47t33 -73q0 -47 -49 -79t-134 -32q-127 0 -182 73l-1 1v19h9v-16z" />
    <glyph glyph-name="uni021A" unicode="&#x21a;" horiz-adv-x="580" 
d="M288 -63q0 5 4 9t9 4t9 -4t4 -9q0 -41 -42 -91l-6 4q15 18 25 40t10 34q-5 0 -9 4t-4 9zM36 679h509v-27h-9v18h-241v-670h-9v670h-241v-18h-9v27z" />
    <glyph glyph-name="uni021B" unicode="&#x21b;" horiz-adv-x="392" 
d="M194 -68q0 5 4 9t9 4t9 -4t4 -9q0 -41 -42 -91l-6 4q15 18 25 40t10 34q-5 0 -9 4t-4 9zM107 134q0 -54 38.5 -92t91.5 -38q72 0 111 64v12h9v-14v-1q-18 -31 -50 -50t-70 -19q-57 0 -98 40.5t-41 97.5v321h-62v9h62v107h9v-107h214v-9h-214v-321z" />
    <glyph glyph-name="uni0226" unicode="&#x226;" horiz-adv-x="589" 
d="M281 821q0 5 4.5 9.5t9.5 4.5t9 -4.5t4 -9.5t-4 -9t-9 -4t-9.5 4t-4.5 9zM295 669l-185 -473h370zM484 188h-378l-73 -188h-20v9h15l263 674h7l269 -681l-8 -4z" />
    <glyph glyph-name="uni0227" unicode="&#x227;" horiz-adv-x="500" 
d="M250 607q0 5 4.5 9.5t9.5 4.5t9 -4.5t4 -9.5t-4 -9t-9 -4t-9.5 4t-4.5 9zM107 412v19l2 1q62 37 154 37q75 0 125 -35.5t50 -112.5v-312h17v-9h-26v91q-29 -44 -89 -69.5t-121 -25.5q-78 0 -130.5 39t-52.5 105q0 53 47.5 86t135.5 33h210v62q0 40 -15 68.5t-40 43
t-52.5 21t-58.5 6.5q-87 0 -147 -34v-14h-9zM429 250h-210q-85 0 -129.5 -30.5t-44.5 -79.5q0 -62 49.5 -99t124.5 -37q65 0 126.5 28.5t83.5 75.5v142z" />
    <glyph glyph-name="uni0237" unicode="&#x237;" horiz-adv-x="142" 
d="M54 464h26v-558q0 -50 -35 -85t-85 -35q-66 0 -102 56l-1 1v14h9v-11l1 -1q33 -50 93 -50q46 0 78.5 32.5t32.5 78.5v549h-17v9z" />
    <glyph glyph-name="circumflex" unicode="&#x2c6;" horiz-adv-x="392" 
d="M65 543l-6 6l131 107h13l131 -107l-6 -6l-128 104h-7z" />
    <glyph glyph-name="caron" unicode="&#x2c7;" horiz-adv-x="392" 
d="M65 649l128 -104h7l128 104l6 -6l-131 -107h-13l-131 107z" />
    <glyph glyph-name="uni02C9" unicode="&#x2c9;" horiz-adv-x="357" 
d="M321 607h-285v9h285v-9z" />
    <glyph glyph-name="uni02CA" unicode="&#x2ca;" horiz-adv-x="214" 
d="M54 551l-7 6l99 99l7 -6z" />
    <glyph glyph-name="uni02CB" unicode="&#x2cb;" horiz-adv-x="214" 
d="M147 551l-99 99l6 6l99 -99z" />
    <glyph glyph-name="breve" unicode="&#x2d8;" horiz-adv-x="285" 
d="M143 585q73 0 113 51l7 -5q-44 -55 -120 -55t-120 55l8 5q40 -51 112 -51z" />
    <glyph glyph-name="dotaccent" unicode="&#x2d9;" horiz-adv-x="142" 
d="M58 607q0 5 4 9.5t9 4.5t9.5 -4.5t4.5 -9.5t-4.5 -9t-9.5 -4t-9 4t-4 9z" />
    <glyph glyph-name="ring" unicode="&#x2da;" horiz-adv-x="250" 
d="M171 635q-22 21 -46 21t-46 -21q-21 -19 -21 -46q0 -25 21 -46t46 -21q24 0 46 21q21 19 21 46t-21 46zM201 589q0 -28 -24 -52q-26 -24 -52 -24q-28 0 -52 24t-24 52q0 29 24 53q25 23 52 23t52 -23q24 -24 24 -53z" />
    <glyph glyph-name="ogonek" unicode="&#x2db;" horiz-adv-x="250" 
d="M199 17q-15 -9 -40 -23t-36 -20.5t-26.5 -17.5t-22 -19.5t-11.5 -21t-5 -27.5q0 -25 17 -41.5t47 -16.5q26 0 50 16l6 -7q-26 -18 -56 -18q-34 0 -53.5 19.5t-19.5 47.5q0 16 5.5 29.5t12 23t23 21.5t27.5 18.5t37.5 21.5t40.5 23z" />
    <glyph glyph-name="tilde" unicode="&#x2dc;" horiz-adv-x="285" 
d="M260 636q-9 -49 -53 -49q-22 0 -41 11l-55 30q-16 8 -32 8q-35 0 -44 -42l-2 -10l-9 2l2 10q10 49 53 49q20 0 36 -9l55 -30q15 -10 37 -10q36 0 44 41l1 10l9 -1z" />
    <glyph glyph-name="hungarumlaut" unicode="&#x2dd;" horiz-adv-x="392" 
d="M61 551l-7 6l100 99l6 -6zM239 551l-6 6l99 99l6 -6z" />
    <glyph glyph-name="uni02F5" unicode="&#x2f5;" horiz-adv-x="392" 
d="M154 551l-100 99l7 6l99 -99zM332 551l-99 99l6 6l99 -99z" />
    <glyph glyph-name="gravecomb" unicode="&#x300;" horiz-adv-x="0" 
d="M-106 551l-99 99l6 6l99 -99z" />
    <glyph glyph-name="acutecomb" unicode="&#x301;" horiz-adv-x="0" 
d="M-161 551l-6 6l99 99l6 -6z" />
    <glyph glyph-name="uni0302" unicode="&#x302;" horiz-adv-x="0" 
d="M-328 543l-6 6l131 107h13l131 -107l-6 -6l-128 104h-7z" />
    <glyph glyph-name="tildecomb" unicode="&#x303;" horiz-adv-x="0" 
d="M-26 636q-9 -49 -53 -49q-22 0 -41 11l-55 30q-16 8 -32 8q-35 0 -44 -42l-2 -10l-9 2l2 10q10 49 53 49q20 0 36 -9l55 -30q15 -10 37 -10q36 0 44 41l2 10l9 -1z" />
    <glyph glyph-name="uni0304" unicode="&#x304;" horiz-adv-x="0" 
d="M-36 607h-285v9h285v-9z" />
    <glyph glyph-name="uni0305" unicode="&#x305;" horiz-adv-x="0" 
d="M0 607h-357v9h357v-9z" />
    <glyph glyph-name="uni0306" unicode="&#x306;" horiz-adv-x="0" 
d="M-143 585q73 0 113 51l7 -5q-44 -55 -120 -55q-75 0 -119 55l7 5q40 -51 112 -51z" />
    <glyph glyph-name="uni0307" unicode="&#x307;" horiz-adv-x="0" 
d="M-85 607q0 5 4.5 9.5t9.5 4.5t9 -4.5t4 -9.5t-4 -9t-9 -4t-9.5 4t-4.5 9z" />
    <glyph glyph-name="uni0308" unicode="&#x308;" horiz-adv-x="0" 
d="M-286 594q0 5 4.5 9t9.5 4t9 -4t4 -9t-4 -9.5t-9 -4.5t-9.5 4.5t-4.5 9.5zM-98 594q0 5 4 9t9 4t9.5 -4t4.5 -9t-4.5 -9.5t-9.5 -4.5t-9 4.5t-4 9.5z" />
    <glyph glyph-name="hookabovecomb" unicode="&#x309;" horiz-adv-x="142" 
d="M27 598q0 19 12.5 32t31.5 13t32 -13t13 -32q0 -34 -14.5 -117t-30.5 -83t-30 83t-14 117z" />
    <glyph glyph-name="uni030A" unicode="&#x30a;" horiz-adv-x="0" 
d="M-79 635q-22 21 -46 21t-46 -21q-21 -19 -21 -46q0 -25 21 -46t46 -21q24 0 46 21q21 19 21 46t-21 46zM-49 589q0 -28 -24 -52q-26 -24 -52 -24q-28 0 -52 24t-24 52q0 29 24 53q25 23 52 23t52 -23q24 -24 24 -53z" />
    <glyph glyph-name="uni030B" unicode="&#x30b;" horiz-adv-x="0" 
d="M-321 551l-7 6l99 99l7 -6zM-143 551l-6 6l99 99l6 -6z" />
    <glyph glyph-name="uni030C" unicode="&#x30c;" horiz-adv-x="0" 
d="M-328 649l128 -104h7l128 104l6 -6l-131 -107h-13l-131 107z" />
    <glyph glyph-name="uni030D" unicode="&#x30d;" horiz-adv-x="142" 
d="M58 607q0 5 4 9.5t9 4.5t9.5 -4.5t4.5 -9.5t-4.5 -9t-9.5 -4t-9 4t-4 9z" />
    <glyph glyph-name="uni030F" unicode="&#x30f;" horiz-adv-x="0" 
d="M-224 551l-99 99l6 6l99 -99zM-46 551l-99 99l7 6l99 -99z" />
    <glyph glyph-name="uni0311" unicode="&#x311;" horiz-adv-x="0" 
d="M-143 629q-74 0 -112 -48l-6 5q42 52 118 52q77 0 119 -52l-7 -5q-38 48 -112 48z" />
    <glyph glyph-name="Omega" unicode="&#x3a9;" horiz-adv-x="723" 
d="M71 27h8v-18h171v42l-8 3q-92 37 -149 119t-57 184q0 135 95.5 230.5t230.5 95.5t230.5 -95.5t95.5 -230.5q0 -102 -57 -184t-149 -119l-9 -3v-42h170v18h8v-27h-187v57l14 5q89 36 145 116t56 179q0 131 -93 224t-224 93t-224 -93t-93 -224q0 -99 55.5 -179t144.5 -116
l14 -5v-57h-188v27z" />
    <glyph glyph-name="pi" unicode="&#x3c0;" 
d="M500 464v-9h-98v-397q0 -20 14.5 -34.5t34.5 -14.5h27v-9h-27q-24 0 -41 17t-17 41v397h-277v-455h-9v455h-71v9h464z" />
    <glyph glyph-name="Wgrave" unicode="&#x1e80;" horiz-adv-x="919" 
d="M501 765l-99 99l6 6l99 -99zM465 512v95h9v-95l182 -501l247 669l8 -3l-251 -681h-8l-182 501l-186 -501h-8l-244 674h-14v9h21l241 -668z" />
    <glyph glyph-name="wgrave" unicode="&#x1e81;" horiz-adv-x="785" 
d="M434 551l-99 99l6 6l99 -99zM768 464v-19l-197 -454h-8l-157 362l-156 -362h-9l-201 464h-18v9h25l199 -460l155 361l1 1v80h9v-80v-1l156 -361l192 443v17h9z" />
    <glyph glyph-name="Wacute" unicode="&#x1e82;" horiz-adv-x="919" 
d="M446 765l-6 6l99 99l6 -6zM465 512v95h9v-95l182 -501l247 669l8 -3l-251 -681h-8l-182 501l-186 -501h-8l-244 674h-14v9h21l241 -668z" />
    <glyph glyph-name="wacute" unicode="&#x1e83;" horiz-adv-x="785" 
d="M379 551l-6 6l99 99l6 -6zM768 464v-19l-197 -454h-8l-157 362l-156 -362h-9l-201 464h-18v9h25l199 -460l155 361l1 1v80h9v-80v-1l156 -361l192 443v17h9z" />
    <glyph glyph-name="Wdieresis" unicode="&#x1e84;" horiz-adv-x="919" 
d="M366 808q0 5 4.5 9t9.5 4t9 -4t4 -9t-4 -9.5t-9 -4.5t-9.5 4.5t-4.5 9.5zM554 808q0 5 4 9t9 4t9.5 -4t4.5 -9t-4.5 -9.5t-9.5 -4.5t-9 4.5t-4 9.5zM465 512v95h9v-95l182 -501l247 669l8 -3l-251 -681h-8l-182 501l-186 -501h-8l-244 674h-14v9h21l241 -668z" />
    <glyph glyph-name="wdieresis" unicode="&#x1e85;" horiz-adv-x="785" 
d="M299 594q0 5 4.5 9t9.5 4t9 -4t4 -9t-4 -9.5t-9 -4.5t-9.5 4.5t-4.5 9.5zM487 594q0 5 4 9t9 4t9.5 -4t4.5 -9t-4.5 -9.5t-9.5 -4.5t-9 4.5t-4 9.5zM768 464v-19l-197 -454h-8l-157 362l-156 -362h-9l-201 464h-18v9h25l199 -460l155 361l1 1v80h9v-80v-1l156 -361
l192 443v17h9z" />
    <glyph glyph-name="uni1E86" unicode="&#x1e86;" horiz-adv-x="919" 
d="M460 821q0 5 4.5 9.5t9.5 4.5t9 -4.5t4 -9.5t-4 -9t-9 -4t-9.5 4t-4.5 9zM465 512v95h9v-95l182 -501l247 669l8 -3l-251 -681h-8l-182 501l-186 -501h-8l-244 674h-14v9h21l241 -668z" />
    <glyph glyph-name="uni1E87" unicode="&#x1e87;" horiz-adv-x="785" 
d="M393 607q0 5 4.5 9.5t9.5 4.5t9 -4.5t4 -9.5t-4 -9t-9 -4t-9.5 4t-4.5 9zM768 464v-19l-197 -454h-8l-157 362l-156 -362h-9l-201 464h-18v9h25l199 -460l155 361l1 1v80h9v-80v-1l156 -361l192 443v17h9z" />
    <glyph glyph-name="uni1E8E" unicode="&#x1e8e;" horiz-adv-x="580" 
d="M281 821q0 5 4.5 9.5t9.5 4.5t9 -4.5t4 -9.5t-4 -9t-9 -4t-9.5 4t-4.5 9zM562 670l-258 -424v-246h-9v246l-261 424h-16v9h21l260 -422l255 414v8h8v-9z" />
    <glyph glyph-name="uni1E8F" unicode="&#x1e8f;" horiz-adv-x="526" 
d="M254 607q0 5 4.5 9.5t9.5 4.5t9 -4.5t4 -9.5t-4 -9t-9 -4t-9.5 4t-4.5 9zM18 455v9h26l218 -490l238 496l9 -5l-288 -595q-41 -84 -105 -84q-57 0 -95 56v15h8v-14q34 -48 87 -48q59 0 97 78l44 90l-219 492h-20z" />
    <glyph glyph-name="uni1E9E" unicode="&#x1e9e;" horiz-adv-x="607" 
d="M183 73q26 -33 78.5 -51t113.5 -18q80 0 136 28.5t56 74.5q0 41 -37 71t-89.5 49t-104.5 38t-89 49t-37 70q0 59 54 88t141 29q31 0 73 -5v18q0 76 -62.5 118.5t-147.5 42.5q-79 0 -135.5 -35t-56.5 -95v-545h-9v455h-36v9h36v81q0 65 60 101.5t141 36.5q88 0 153.5 -44
t65.5 -125v-28l-5 1q-45 5 -77 5q-85 0 -135.5 -27t-50.5 -81q0 -38 37 -66t89.5 -46.5t104.5 -38t89 -51.5t37 -75q0 -52 -60 -81.5t-141 -29.5q-63 0 -118 18.5t-82 54.5l-1 1v19h9v-16z" />
    <glyph glyph-name="Ygrave" unicode="&#x1ef2;" horiz-adv-x="580" 
d="M323 765l-99 99l6 6l99 -99zM562 670l-258 -424v-246h-9v246l-261 424h-16v9h21l260 -422l255 414v8h8v-9z" />
    <glyph glyph-name="ygrave" unicode="&#x1ef3;" horiz-adv-x="526" 
d="M296 551l-99 99l6 6l99 -99zM18 455v9h26l218 -490l238 496l9 -5l-288 -595q-41 -84 -105 -84q-57 0 -95 56v15h8v-14q34 -48 87 -48q59 0 97 78l44 90l-219 492h-20z" />
    <glyph glyph-name="uni2000" unicode="&#x2000;" horiz-adv-x="464" 
 />
    <glyph glyph-name="uni2001" unicode="&#x2001;" horiz-adv-x="892" 
 />
    <glyph glyph-name="uni2002" unicode="&#x2002;" horiz-adv-x="464" 
 />
    <glyph glyph-name="uni2003" unicode="&#x2003;" horiz-adv-x="892" 
 />
    <glyph glyph-name="uni2004" unicode="&#x2004;" horiz-adv-x="321" 
 />
    <glyph glyph-name="uni2005" unicode="&#x2005;" horiz-adv-x="250" 
 />
    <glyph glyph-name="uni2006" unicode="&#x2006;" horiz-adv-x="142" 
 />
    <glyph glyph-name="uni2007" unicode="&#x2007;" 
 />
    <glyph glyph-name="uni2008" unicode="&#x2008;" horiz-adv-x="178" 
 />
    <glyph glyph-name="uni2009" unicode="&#x2009;" horiz-adv-x="178" 
 />
    <glyph glyph-name="uni200A" unicode="&#x200a;" horiz-adv-x="71" 
 />
    <glyph glyph-name="uni200B" unicode="&#x200b;" horiz-adv-x="0" 
 />
    <glyph glyph-name="uni2010" unicode="&#x2010;" horiz-adv-x="321" 
d="M286 277h-250v9h250v-9z" />
    <glyph glyph-name="uni2011" unicode="&#x2011;" horiz-adv-x="321" 
d="M286 277h-250v9h250v-9z" />
    <glyph glyph-name="figuredash" unicode="&#x2012;" 
d="M500 277h-464v9h464v-9z" />
    <glyph glyph-name="endash" unicode="&#x2013;" horiz-adv-x="464" 
d="M429 277h-393v9h393v-9z" />
    <glyph glyph-name="emdash" unicode="&#x2014;" horiz-adv-x="892" 
d="M857 277h-821v9h821v-9z" />
    <glyph glyph-name="afii00208" unicode="&#x2015;" horiz-adv-x="1000" 
d="M964 277h-928v9h928v-9z" />
    <glyph glyph-name="quoteleft" unicode="&#x2018;" horiz-adv-x="133" 
d="M62 579q0 -5 -4 -9t-9 -4t-9 4t-4 9q0 41 42 91l6 -4q-15 -18 -25 -40t-10 -34q5 0 9 -4t4 -9z" />
    <glyph glyph-name="quoteright" unicode="&#x2019;" horiz-adv-x="133" 
d="M54 657q0 5 4 9t9 4t9 -4t4 -9q0 -41 -42 -91l-6 4q15 18 25 40t10 34q-5 0 -9 4t-4 9z" />
    <glyph glyph-name="quotesinglbase" unicode="&#x201a;" horiz-adv-x="133" 
d="M54 9q0 5 4 9t9 4t9 -4t4 -9q0 -41 -42 -91l-6 4q15 18 25 40t10 34q-5 0 -9 4t-4 9z" />
    <glyph glyph-name="quotereversed" unicode="&#x201b;" horiz-adv-x="133" 
d="M62 657q0 -5 -4 -9t-9 -4q0 -33 35 -73l-5 -5q-43 51 -43 91q0 5 4 9.5t9 4.5t9 -4.5t4 -9.5z" />
    <glyph glyph-name="quotedblleft" unicode="&#x201c;" horiz-adv-x="196" 
d="M63 579q0 -5 -4 -9t-9 -4t-9.5 4t-4.5 9q0 40 43 91l5 -4q-34 -39 -34 -74q5 0 9 -4t4 -9zM125 579q0 -5 -4 -9t-9 -4t-9 4t-4 9q0 41 42 91l6 -4q-15 -18 -25 -40t-10 -34q5 0 9 -4t4 -9z" />
    <glyph glyph-name="quotedblright" unicode="&#x201d;" horiz-adv-x="196" 
d="M116 657q0 5 4 9t9 4t9.5 -4t4.5 -9q0 -40 -43 -91l-5 4q34 39 34 74q-5 0 -9 4t-4 9zM54 657q0 5 4 9t9 4t9 -4t4 -9q0 -41 -42 -91l-6 4q15 18 25 40t10 34q-5 0 -9 4t-4 9z" />
    <glyph glyph-name="quotedblbase" unicode="&#x201e;" horiz-adv-x="196" 
d="M116 9q0 5 4 9t9 4t9.5 -4t4.5 -9q0 -40 -43 -91l-5 4q34 39 34 74q-5 0 -9 4t-4 9zM54 9q0 5 4 9t9 4t9 -4t4 -9q0 -41 -42 -91l-6 4q15 18 25 40t10 34q-5 0 -9 4t-4 9z" />
    <glyph glyph-name="uni201F" unicode="&#x201f;" horiz-adv-x="196" 
d="M62 657q0 -5 -4 -9t-9 -4q0 -33 35 -73l-5 -5q-43 51 -43 91q0 5 4 9.5t9 4.5t9 -4.5t4 -9.5zM125 657q0 -5 -4 -9t-9 -4q0 -34 34 -73l-5 -5q-43 51 -43 91q0 5 4.5 9.5t9.5 4.5t9 -4.5t4 -9.5z" />
    <glyph glyph-name="dagger" unicode="&#x2020;" 
d="M36 440v13l229 -4l-3 230h12l-3 -230l229 4v-13l-229 4l3 -587h-12l3 587z" />
    <glyph glyph-name="daggerdbl" unicode="&#x2021;" 
d="M271 444v-352l229 4v-13l-229 4l3 -230h-12l3 230l-229 -4v13l229 -4v352l-229 -4v13l229 -4l-3 230h12l-3 -230l229 4v-13z" />
    <glyph glyph-name="bullet" unicode="&#x2022;" horiz-adv-x="232" 
d="M36 232q0 33 23.5 56.5t56.5 23.5t56.5 -23.5t23.5 -56.5t-23.5 -56.5t-56.5 -23.5t-56.5 23.5t-23.5 56.5z" />
    <glyph glyph-name="uni2023" unicode="&#x2023;" horiz-adv-x="214" 
d="M36 321l143 -89l-143 -89v178z" />
    <glyph glyph-name="onedotenleader" unicode="&#x2024;" horiz-adv-x="116" 
d="M45 9q0 5 4 9t9 4t9 -4t4 -9t-4 -9t-9 -4t-9 4t-4 9z" />
    <glyph glyph-name="twodotenleader" unicode="&#x2025;" horiz-adv-x="214" 
d="M143 9q0 5 4 9t9 4t9.5 -4t4.5 -9t-4.5 -9t-9.5 -4t-9 4t-4 9zM45 9q0 5 4 9t9 4t9 -4t4 -9t-4 -9t-9 -4t-9 4t-4 9z" />
    <glyph glyph-name="ellipsis" unicode="&#x2026;" horiz-adv-x="312" 
d="M241 9q0 5 4 9t9 4t9.5 -4t4.5 -9t-4.5 -9t-9.5 -4t-9 4t-4 9zM143 9q0 5 4 9t9 4t9.5 -4t4.5 -9t-4.5 -9t-9.5 -4t-9 4t-4 9zM45 9q0 5 4 9t9 4t9 -4t4 -9t-4 -9t-9 -4t-9 4t-4 9z" />
    <glyph glyph-name="perthousand" unicode="&#x2030;" horiz-adv-x="901" 
d="M754 210q-49 0 -75.5 -30.5t-26.5 -72.5t26.5 -72.5t75.5 -30.5t76 30.5t27 72.5t-27 72.5t-76 30.5zM866 107q0 -46 -29.5 -78.5t-82.5 -32.5t-82 32.5t-29 78.5t29 79t82 33t82.5 -33t29.5 -79zM147 638q-49 0 -75.5 -30t-26.5 -72t26.5 -72.5t75.5 -30.5t76 30.5
t27 72.5t-27 72t-76 30zM259 536q0 -46 -29.5 -79t-82.5 -33t-82 33t-29 79t29 78.5t82 32.5t82.5 -33t29.5 -78zM469 210q-49 0 -76 -30.5t-27 -72.5t27 -72.5t76 -30.5t75.5 30.5t26.5 72.5t-26.5 72.5t-75.5 30.5zM580 107q0 -46 -29 -78.5t-82 -32.5t-82.5 32.5
t-29.5 78.5t29.5 79t82.5 33t82 -33t29 -79zM63 33l-6 6l500 571l6 -6z" />
    <glyph glyph-name="guilsinglleft" unicode="&#x2039;" horiz-adv-x="178" 
d="M27 231l123 -149l-7 -6l-125 151v10l125 153l7 -6l-123 -150v-3z" />
    <glyph glyph-name="guilsinglright" unicode="&#x203a;" horiz-adv-x="178" 
d="M152 231v3l-123 150l6 6l126 -153v-10l-126 -151l-6 6z" />
    <glyph glyph-name="fraction" unicode="&#x2044;" horiz-adv-x="107" 
d="M-193 33l-7 6l500 571l7 -6z" />
    <glyph glyph-name="zero.superior" unicode="&#x2070;" horiz-adv-x="330" 
d="M165 817q-48 0 -84 -50t-36 -136q0 -91 36.5 -144.5t83.5 -53.5q48 0 84.5 53.5t36.5 144.5q0 86 -36.5 136t-84.5 50zM165 826q53 0 91.5 -53t38.5 -142q0 -93 -39 -150t-91 -57q-53 0 -91 57t-38 150q0 89 38.5 142t90.5 53z" />
    <glyph glyph-name="four.superior" unicode="&#x2074;" horiz-adv-x="294" 
d="M214 679h9v-148h36v-9h-36v-93h-9v93h-196v11q74 111 102 171t29 118h9q-1 -60 -28.5 -118.5t-98.5 -165.5l-5 -7h188v148z" />
    <glyph glyph-name="five.superior" unicode="&#x2075;" horiz-adv-x="294" 
d="M36 626l12 192l1 4h190v-27h-9v18h-174l-9 -167l8 10q18 20 44 32.5t48 12.5q43 0 77.5 -36.5t34.5 -101.5q0 -67 -35.5 -103t-80.5 -36q-31 0 -61.5 16.5t-45.5 43.5v1v13h9v-10v-1q14 -24 42 -39t56 -15q41 0 74 33t33 97q0 62 -32 95.5t-71 33.5q-28 0 -59 -19.5
t-42 -48.5z" />
    <glyph glyph-name="six.superior" unicode="&#x2076;" horiz-adv-x="294" 
d="M153 701q42 0 74 -36.5t32 -101.5t-32 -102t-74 -37t-78.5 35.5t-38.5 97.5v8q0 261 110 261q10 0 20 -2t18 -4.5t15.5 -6.5t12.5 -8l10 -8t8 -7l6 -6l2 -3v-13h-9v10l-1 1q-31 38 -81 38q-84 0 -99 -171l-2 -20h2q43 75 105 75zM45 566v-8q1 -60 34.5 -92.5t73.5 -32.5
q38 0 67.5 34t29.5 96t-29.5 95.5t-67.5 33.5q-40 0 -73.5 -33t-34.5 -93z" />
    <glyph glyph-name="seven.superior" unicode="&#x2077;" horiz-adv-x="258" 
d="M18 822h223v-11l-49 -67q-76 -103 -76 -315h-9q0 214 78 320l47 64h-205v-18h-9v27z" />
    <glyph glyph-name="eight.superior" unicode="&#x2078;" horiz-adv-x="294" 
d="M250 538q0 43 -30 73.5t-73 30.5t-72.5 -30.5t-29.5 -73.5t30 -74t72 -31t72.5 31t30.5 74zM66 734q0 -34 23.5 -58.5t57.5 -24.5t58 24.5t24 58.5t-24 58.5t-58 24.5t-57.5 -24.5t-23.5 -58.5zM147 424q-46 0 -78.5 33.5t-32.5 80.5q0 36 19.5 64.5t51.5 40.5l9 4l-9 4
q-23 11 -36.5 33.5t-13.5 49.5q0 37 26.5 64.5t63.5 27.5t64 -27.5t27 -64.5q0 -27 -14 -49.5t-37 -33.5l-9 -4l10 -4q32 -12 51.5 -40.5t19.5 -64.5q0 -47 -33 -80.5t-79 -33.5z" />
    <glyph glyph-name="nine.superior" unicode="&#x2079;" horiz-adv-x="294" 
d="M142 545q-42 0 -74 36.5t-32 101.5t32 102t74 37t78.5 -35.5t38.5 -97.5v-8q0 -261 -112 -261q-12 0 -23 2t-19.5 6t-15.5 8.5t-13 9.5t-9.5 8.5t-6.5 7.5l-3 3v13h9v-10l1 -1q31 -38 80 -38q83 0 99 171l2 19h-1q-1 -3 -3.5 -8t-12 -18t-21 -22.5t-30 -17.5t-38.5 -8z
M250 680v8q-1 60 -34.5 92.5t-73.5 32.5q-38 0 -67.5 -34t-29.5 -96t29.5 -95.5t67.5 -33.5q40 0 73.5 33t34.5 93z" />
    <glyph glyph-name="zero.sub" unicode="&#x2080;" horiz-adv-x="330" 
d="M165 174q-48 0 -84 -50t-36 -136q0 -91 36.5 -144.5t83.5 -53.5q48 0 84.5 53.5t36.5 144.5q0 86 -36.5 136t-84.5 50zM165 183q53 0 91.5 -53t38.5 -142q0 -93 -39 -150t-91 -57q-53 0 -91 57t-38 150q0 89 38.5 142t90.5 53z" />
    <glyph glyph-name="one.sub" unicode="&#x2081;" horiz-adv-x="151" 
d="M34 126l-6 6l41 47h11v-393h-9v382z" />
    <glyph glyph-name="two.sub" unicode="&#x2082;" horiz-adv-x="294" 
d="M259 -214h-223v19l134 136q44 44 62 73t18 57q0 43 -30 73t-73 30q-41 0 -71 -28.5t-31 -69.5h-9q1 45 33.5 76t77.5 31q47 0 79.5 -32.5t32.5 -79.5q0 -31 -19 -61.5t-64 -75.5l-131 -132v-7h205v17h9v-26z" />
    <glyph glyph-name="three.sub" unicode="&#x2083;" horiz-adv-x="294" 
d="M36 -105h9q0 -43 30 -74t72 -31t72.5 31t30.5 74t-30 73.5t-73 30.5v9q34 0 58 24.5t24 58.5t-24 58.5t-58 24.5t-57.5 -24.5t-23.5 -58.5h-9q0 37 26.5 64.5t63.5 27.5t64 -27.5t27 -64.5q0 -57 -51 -83l-9 -4l10 -4q32 -12 51.5 -40.5t19.5 -64.5q0 -47 -33 -80.5
t-79 -33.5t-78.5 33.5t-32.5 80.5z" />
    <glyph glyph-name="four.sub" unicode="&#x2084;" horiz-adv-x="294" 
d="M214 36h9v-148h36v-9h-36v-93h-9v93h-196v11q74 111 102 171t29 118h9q-1 -60 -28.5 -118.5t-98.5 -165.5l-5 -7h188v148z" />
    <glyph glyph-name="five.sub" unicode="&#x2085;" horiz-adv-x="294" 
d="M36 -17l12 192l1 4h190v-27h-9v18h-174l-9 -167l8 10q18 20 44 32.5t48 12.5q43 0 77.5 -36.5t34.5 -101.5q0 -67 -35.5 -103t-80.5 -36q-31 0 -61.5 16.5t-45.5 43.5v1v13h9v-10v-1q14 -24 42 -39t56 -15q41 0 74 33t33 97q0 62 -32 95.5t-71 33.5q-28 0 -59 -19.5
t-42 -48.5z" />
    <glyph glyph-name="six.sub" unicode="&#x2086;" horiz-adv-x="294" 
d="M153 58q42 0 74 -36.5t32 -101.5t-32 -102t-74 -37t-78.5 35.5t-38.5 97.5v8q0 261 110 261q10 0 20 -2t18 -4.5t15.5 -6.5t12.5 -8l10 -8t8 -7l6 -6l2 -3v-13h-9v10l-1 1q-31 38 -81 38q-84 0 -99 -171l-2 -20h2q43 75 105 75zM45 -77v-8q1 -60 34.5 -92.5t73.5 -32.5
q38 0 67.5 34t29.5 96t-29.5 95.5t-67.5 33.5q-40 0 -73.5 -33t-34.5 -93z" />
    <glyph glyph-name="seven.sub" unicode="&#x2087;" horiz-adv-x="258" 
d="M18 179h223v-11l-49 -67q-76 -103 -76 -315h-9q0 214 78 320l47 64h-205v-18h-9v27z" />
    <glyph glyph-name="eight.sub" unicode="&#x2088;" horiz-adv-x="294" 
d="M250 -105q0 43 -30 73.5t-73 30.5t-72.5 -30.5t-29.5 -73.5t30 -74t72 -31t72.5 31t30.5 74zM66 91q0 -34 23.5 -58.5t57.5 -24.5t58 24.5t24 58.5t-24 58.5t-58 24.5t-57.5 -24.5t-23.5 -58.5zM147 -219q-46 0 -78.5 33.5t-32.5 80.5q0 36 19.5 64.5t51.5 40.5l9 4l-9 4
q-23 11 -36.5 33.5t-13.5 49.5q0 37 26.5 64.5t63.5 27.5t64 -27.5t27 -64.5q0 -57 -51 -83l-9 -4l10 -4q32 -12 51.5 -40.5t19.5 -64.5q0 -47 -33 -80.5t-79 -33.5z" />
    <glyph glyph-name="nine.sub" unicode="&#x2089;" horiz-adv-x="294" 
d="M142 -98q-42 0 -74 36.5t-32 101.5t32 102t74 37t78.5 -35.5t38.5 -97.5v-8q0 -261 -112 -261q-12 0 -23 2t-19.5 6t-15.5 8.5t-13 9.5t-9.5 8.5l-6.5 6.5l-3 4v13h9v-10l1 -1q31 -38 80 -38q83 0 99 171l2 19h-1q-1 -3 -3.5 -8t-12 -18t-21 -22.5t-30 -17.5t-38.5 -8z
M250 37v8q-1 60 -34.5 92.5t-73.5 32.5q-38 0 -67.5 -34t-29.5 -96t29.5 -95.5t67.5 -33.5q40 0 73.5 33t34.5 93z" />
    <glyph glyph-name="Euro" unicode="&#x20ac;" horiz-adv-x="642" 
d="M478 393l-2 -9h-393q-3 -22 -3 -46q0 -29 4 -52h376l-2 -9h-372q22 -117 114.5 -195t214.5 -78q110 0 194 61l5 -7q-88 -63 -199 -63q-126 0 -221 80t-117 202h-61l2 9h57q-4 23 -4 52q0 24 3 46h-40l2 9h40q20 124 115.5 206.5t223.5 82.5q105 0 195 -64l2 -2v-28h-9v24
q-87 61 -188 61q-124 0 -217 -80t-113 -200h393z" />
    <glyph glyph-name="trademark" unicode="&#x2122;" horiz-adv-x="964" 
d="M638 257l-183 397l-45 -386h-7v14l46 390h8l189 -411l190 411h8l52 -397l-8 -1l-50 380l-183 -397h-17zM357 670v-9h-143v-393h-9v393h-143v9h295z" />
    <glyph glyph-name="uni2126" unicode="&#x2126;" horiz-adv-x="723" 
d="M71 27h8v-18h171v42l-8 3q-92 37 -149 119t-57 184q0 135 95.5 230.5t230.5 95.5t230.5 -95.5t95.5 -230.5q0 -102 -57 -184t-149 -119l-9 -3v-42h170v18h8v-27h-187v57l14 5q89 36 145 116t56 179q0 131 -93 224t-224 93t-224 -93t-93 -224q0 -99 55.5 -179t144.5 -116
l14 -5v-57h-188v27z" />
    <glyph glyph-name="arrowleft" unicode="&#x2190;" horiz-adv-x="714" 
d="M679 232v-9h-631l123 -149l-7 -5l-128 155v7l128 156l7 -6l-123 -149h631z" />
    <glyph glyph-name="arrowup" unicode="&#x2191;" horiz-adv-x="366" 
d="M188 0h-9v630l-150 -123l-5 7l155 129h8l155 -129l-5 -7l-149 123v-630z" />
    <glyph glyph-name="arrowright" unicode="&#x2192;" horiz-adv-x="714" 
d="M36 232h630l-123 149l7 6l129 -156v-7l-129 -155l-7 5l123 149h-630v9z" />
    <glyph glyph-name="arrowdown" unicode="&#x2193;" horiz-adv-x="366" 
d="M188 643v-631l149 124l5 -7l-155 -129h-8l-155 129l5 7l150 -124v631h9z" />
    <glyph glyph-name="arrowboth" unicode="&#x2194;" horiz-adv-x="714" 
d="M48 223l123 -149l-7 -5l-128 155v7l128 156l7 -6l-123 -149h613h5l-123 149l7 6l129 -156v-7l-129 -155l-7 5l123 149h-5h-613z" />
    <glyph glyph-name="arrowupdn" unicode="&#x2195;" horiz-adv-x="366" 
d="M179 630l-150 -123l-5 7l155 129h8l155 -129l-5 -7l-149 123v-618l149 124l5 -7l-155 -129h-8l-155 129l5 7l150 -124v618z" />
    <glyph glyph-name="arrowdblleft" unicode="&#x21d0;" horiz-adv-x="714" 
d="M99 161h580v-9h-573l63 -76l-7 -5l-126 153v7l126 154l7 -6l-63 -75h573v-9h-580l-50 -61v-13z" />
    <glyph glyph-name="arrowdblup" unicode="&#x21d1;" horiz-adv-x="366" 
d="M116 579v-579h-9v572l-80 -66l-6 7l158 130h8l158 -130l-6 -7l-80 66v-572h-9v579l-61 50h-12z" />
    <glyph glyph-name="arrowdblright" unicode="&#x21d2;" horiz-adv-x="714" 
d="M615 161l50 60v13l-50 61h-579v9h572l-62 75l7 6l126 -154v-7l-126 -153l-7 5l62 76h-572v9h579z" />
    <glyph glyph-name="arrowdbldown" unicode="&#x21d3;" horiz-adv-x="366" 
d="M116 63l61 -50h12l61 50v580h9v-572l80 66l6 -8l-158 -129h-8l-158 129l6 8l80 -66v572h9v-580z" />
    <glyph glyph-name="arrowdblboth" unicode="&#x21d4;" horiz-adv-x="714" 
d="M99 161h516l50 60v13l-50 61h-516l-50 -61v-13zM106 152l63 -76l-7 -5l-126 153v7l126 154l7 -6l-63 -75h502l-62 75l7 6l126 -154v-7l-126 -153l-7 5l62 76h-502z" />
    <glyph glyph-name="uni21D5" unicode="&#x21d5;" horiz-adv-x="366" 
d="M116 579v-516l61 -50h12l61 50v516l-61 50h-12zM107 572l-80 -66l-6 7l158 130h8l158 -130l-6 -7l-80 66v-501l80 66l6 -8l-158 -129h-8l-158 129l6 8l80 -66v501z" />
    <glyph glyph-name="partialdiff" unicode="&#x2202;" horiz-adv-x="446" 
d="M223 460q-65 0 -119.5 -61.5t-54.5 -166.5q0 -107 43 -167.5t104 -60.5q90 0 145.5 81.5t55.5 194.5q0 59 -5 103q-38 36 -84.5 56.5t-84.5 20.5zM391 395q-29 243 -168 243q-47 0 -85 -31v-18h-9v23l2 1q41 34 92 34q52 0 89.5 -33t57 -89t28 -116t8.5 -129
q0 -116 -57.5 -200t-152.5 -84q-66 0 -111 63t-45 173q0 108 57 172.5t126 64.5q38 0 84 -19.5t84 -54.5z" />
    <glyph glyph-name="emptyset" unicode="&#x2205;" horiz-adv-x="687" 
d="M79 50l-6 7l50 50q-87 89 -87 214q0 127 90 217.5t218 90.5q125 0 215 -87l49 50l7 -7l-50 -49q87 -89 87 -215q0 -127 -90 -217.5t-218 -90.5q-126 0 -215 87zM559 529l-423 -422q88 -85 208 -85q124 0 211.5 87.5t87.5 211.5q0 121 -84 208zM552 536q-87 85 -208 85
q-124 0 -211.5 -88t-87.5 -212q0 -121 84 -208z" />
    <glyph glyph-name="uni2206" unicode="&#x2206;" horiz-adv-x="500" 
d="M252 545h-22l-182 -536h386zM275 571l192 -571h-434l192 571h50z" />
    <glyph glyph-name="uni220A" unicode="&#x220a;" horiz-adv-x="446" 
d="M254 58q-75 0 -129 54t-54 129t54 129t129 54h121v-9h-121q-70 0 -120 -48t-54 -117v-4h295v-9h-295v-5q4 -69 54 -117t120 -48h121v-9h-121z" />
    <glyph glyph-name="product" unicode="&#x220f;" horiz-adv-x="589" 
d="M36 -179v858h518v-858h-9v849h-500v-849h-9z" />
    <glyph glyph-name="summation" unicode="&#x2211;" horiz-adv-x="589" 
d="M549 -152v-27h-509v12l372 414v6l-372 414v12h509v-27h-9v18h-490l371 -414v-12l-371 -414h490v18h9z" />
    <glyph glyph-name="minus" unicode="&#x2212;" horiz-adv-x="464" 
d="M429 321h-393v9h393v-9z" />
    <glyph glyph-name="radical" unicode="&#x221a;" horiz-adv-x="482" 
d="M30 165l91 23l69 -194l209 694h83v-9h-76l-209 -694h-12l-71 194l-81 -22z" />
    <glyph glyph-name="infinity" unicode="&#x221e;" horiz-adv-x="973" 
d="M480 250l-14 15q-2 2 -20.5 21t-23 23t-22 20t-25.5 21t-25 17.5t-29.5 16.5t-30 11t-35 9t-36.5 2q-81 0 -127.5 -44t-46.5 -112t46.5 -112t127.5 -44q19 0 36.5 2t35 9t30 11t29.5 16.5t25 17.5t25.5 21t22 20t23 23t20.5 21zM493 250l15 -15l21 -21l22.5 -22.5
t22 -20.5t25 -21t25 -17.5t29.5 -16.5t30 -11t34.5 -8.5t36.5 -2.5q81 0 128 44.5t47 111.5t-47 111.5t-128 44.5q-19 0 -36.5 -2.5t-34.5 -8.5t-30 -11t-29.5 -16.5t-25 -17.5t-25 -21t-22 -20.5l-22.5 -22.5l-21 -21zM472 229q-3 -3 -20.5 -21t-23 -23t-22.5 -21
t-26 -21.5t-26 -17.5t-30 -17t-31 -11.5t-36 -9t-38 -2.5q-84 0 -133.5 47t-49.5 118t49.5 118t133.5 47q22 0 44 -4.5t37.5 -8.5t36 -16.5t30.5 -18t30.5 -24t25 -23l26 -26l23.5 -23.5l15 -15l14 15l23.5 23.5l26 26t25 23t30.5 24t30.5 18t36 16.5t37.5 8.5t44 4.5
q84 0 134 -47t50 -118t-50 -118t-134 -47q-20 0 -38 2.5t-36 9t-31 11.5t-30 17t-26 17.5t-26 21.5t-22.5 21t-23 23t-20.5 21l-14 15z" />
    <glyph glyph-name="logicaland" unicode="&#x2227;" horiz-adv-x="464" 
d="M230 371l-182 -298l-9 5l185 301h16l185 -301l-8 -5l-182 298h-5z" />
    <glyph glyph-name="logicalor" unicode="&#x2228;" horiz-adv-x="464" 
d="M230 94h5l182 297l8 -4l-185 -302h-16l-185 302l9 4z" />
    <glyph glyph-name="intersection" unicode="&#x2229;" horiz-adv-x="437" 
d="M36 183q1 75 54.5 129t128.5 54t129 -53.5t54 -129.5v-112h-9v112q0 72 -51 123t-123 51t-123 -51t-51 -123v-112h-9v112z" />
    <glyph glyph-name="union" unicode="&#x222a;" horiz-adv-x="437" 
d="M36 246v111h9v-111q0 -72 51 -123.5t123 -51.5t123 51.5t51 123.5v111h9v-111q0 -76 -54 -130t-129 -54t-128.5 54.5t-54.5 129.5z" />
    <glyph glyph-name="integral" unicode="&#x222b;" horiz-adv-x="321" 
d="M74 -170q26 0 44 18t19 45l39 786q2 30 22 50.5t49 20.5q23 0 39 -11l-6 -7q-14 9 -33 9q-25 0 -43 -17.5t-19 -44.5l-39 -786q-2 -30 -22.5 -51t-49.5 -21q-22 0 -38 11l5 7q14 -9 33 -9z" />
    <glyph glyph-name="uni222C" unicode="&#x222c;" horiz-adv-x="500" 
d="M253 -170q25 0 42.5 18t19.5 45l39 786q2 30 22.5 50.5t49.5 20.5q22 0 38 -11l-5 -7q-14 9 -33 9q-26 0 -44 -17.5t-19 -44.5l-39 -786q-2 -30 -22 -51t-49 -21q-23 0 -39 11l6 7q14 -9 33 -9zM74 -170q26 0 44 18t19 45l39 786q2 30 22 50.5t49 20.5q23 0 39 -11l-6 -7
q-14 9 -33 9q-25 0 -43 -17.5t-19 -44.5l-39 -786q-2 -30 -22.5 -51t-49.5 -21q-22 0 -38 11l5 7q14 -9 33 -9z" />
    <glyph glyph-name="uni222D" unicode="&#x222d;" horiz-adv-x="678" 
d="M253 -170q25 0 42.5 18t19.5 45l39 786q2 30 22.5 50.5t49.5 20.5q22 0 38 -11l-5 -7q-14 9 -33 9q-26 0 -44 -17.5t-19 -44.5l-39 -786q-2 -30 -22 -51t-49 -21q-23 0 -39 11l6 7q14 -9 33 -9zM431 -170q25 0 43 18t20 45l39 786q2 30 22 50.5t49 20.5q22 0 39 -11
l-5 -7q-14 9 -34 9q-26 0 -43 -17.5t-19 -44.5l-39 -786q-2 -30 -22.5 -51t-49.5 -21q-21 0 -38 11l5 7q14 -9 33 -9zM74 -170q26 0 44 18t19 45l39 786q2 30 22 50.5t49 20.5q23 0 39 -11l-6 -7q-14 9 -33 9q-25 0 -43 -17.5t-19 -44.5l-39 -786q-2 -30 -22.5 -51
t-49.5 -21q-22 0 -38 11l5 7q14 -9 33 -9z" />
    <glyph glyph-name="similar" unicode="&#x223c;" horiz-adv-x="375" 
d="M90 350q18 0 39 -7l120 -41q20 -7 36 -7q35 0 53 43l9 -4q-21 -48 -62 -48q-18 0 -39 7l-120 41q-20 7 -36 7q-35 0 -53 -43l-9 4q21 48 62 48z" />
    <glyph glyph-name="uni223D" unicode="&#x223d;" horiz-adv-x="375" 
d="M285 359q41 0 62 -48l-9 -4q-18 43 -53 43q-16 0 -36 -7l-120 -41q-21 -7 -39 -7q-41 0 -62 48l9 3q17 -42 53 -42q16 0 36 7l120 41q21 7 39 7z" />
    <glyph glyph-name="approxequal" unicode="&#x2248;" horiz-adv-x="375" 
d="M285 214q-18 0 -39 7l-120 41q-22 8 -36 8q-35 0 -53 -43l-9 3q21 49 62 49q15 0 39 -8l120 -41q20 -7 36 -7q35 0 53 43l9 -4q-21 -48 -62 -48zM285 357q-18 0 -39 7l-120 41q-20 7 -36 7q-36 0 -53 -42l-9 3q21 48 62 48q18 0 39 -7l120 -41q20 -7 36 -7q35 0 53 43
l9 -4q-21 -48 -62 -48z" />
    <glyph glyph-name="notequal" unicode="&#x2260;" horiz-adv-x="464" 
d="M357 549l7 -5l-83 -142h148v-9h-153l-94 -161h247v-9h-251l-64 -108l-7 6l60 102h-131v9h136l94 161h-230v9h235z" />
    <glyph glyph-name="lessequal" unicode="&#x2264;" horiz-adv-x="303" 
d="M279 496l4 -8l-238 -161v-11l238 -169l-4 -7l-243 171v21zM286 36h-250v9h250v-9z" />
    <glyph glyph-name="greaterequal" unicode="&#x2265;" horiz-adv-x="303" 
d="M25 496l243 -164v-21l-243 -171l-4 7l238 169v11l-238 161zM18 36v9h250v-9h-250z" />
    <glyph glyph-name="propersubset" unicode="&#x2282;" horiz-adv-x="428" 
d="M254 54q-75 1 -129 54.5t-54 128.5t53.5 129t129.5 54h103v-9h-103q-72 0 -123 -51t-51 -123t51 -123.5t123 -51.5h103v-8h-103z" />
    <glyph glyph-name="uni22C0" unicode="&#x22c0;" horiz-adv-x="696" 
d="M359 670h-21l-293 -841l-9 3l294 847h36l295 -847l-9 -3z" />
    <glyph glyph-name="uni22C1" unicode="&#x22c1;" horiz-adv-x="696" 
d="M359 -170l293 841l9 -3l-295 -847h-36l-294 847l9 3l293 -841h21z" />
    <glyph glyph-name="uni2300" unicode="&#x2300;" horiz-adv-x="544" 
d="M456 512l7 -7l-46 -45q56 -58 56 -139q0 -83 -59 -141.5t-142 -58.5q-80 0 -138 56l-46 -47l-7 8l47 45q-57 59 -57 138q0 83 59 142t142 59q81 0 139 -56zM404 460q-56 53 -132 53q-79 0 -135.5 -56.5t-56.5 -135.5q0 -75 54 -132zM411 454l-271 -271q57 -54 132 -54
q79 0 135.5 56.5t56.5 135.5q0 77 -53 133z" />
    <glyph glyph-name="lozenge" unicode="&#x25ca;" horiz-adv-x="428" 
d="M234 679l159 -340l-159 -339h-39l-159 339l159 340h39zM228 670h-27l-156 -331l156 -330h27l155 330z" />
    <glyph glyph-name="t.apr" unicode="&#xe000;" horiz-adv-x="392" 
d="M107 134q0 -54 38.5 -92t91.5 -38q72 0 111 64v12h9v-14v-1q-18 -31 -50 -50t-70 -19q-57 0 -98 40.5t-41 97.5v321h-62v9h62v107h9v-107h268v-9h-268v-321z" />
    <glyph glyph-name="f.apr" unicode="&#xe001;" horiz-adv-x="321" 
d="M321 661v-18h-9v12q-32 19 -66 19q-54 0 -92 -37.5t-38 -91.5v-81h170v-9h-170v-455h-9v455h-71v9h71v81q0 57 41 97.5t98 40.5q42 0 75 -22z" />
    <glyph glyph-name="zero.dnom" unicode="&#xe002;" horiz-adv-x="330" 
d="M165 353q-48 0 -84 -50t-36 -136q0 -91 36.5 -144.5t83.5 -53.5q48 0 84.5 53.5t36.5 144.5q0 86 -36.5 136t-84.5 50zM165 362q53 0 91.5 -53t38.5 -142q0 -93 -39 -150t-91 -57q-53 0 -91 57t-38 150q0 89 38.5 142t90.5 53z" />
    <glyph glyph-name="one.dnom" unicode="&#xe003;" horiz-adv-x="151" 
d="M34 305l-6 6l41 47h11v-393h-9v382z" />
    <glyph glyph-name="two.dnom" unicode="&#xe004;" horiz-adv-x="294" 
d="M259 -35h-223v19l134 136q44 44 62 73t18 57q0 43 -30 73t-73 30q-41 0 -71 -28.5t-31 -69.5h-9q1 45 33.5 76t77.5 31q47 0 79.5 -33t32.5 -79q0 -31 -19 -61.5t-64 -75.5l-131 -132v-7h205v17h9v-26z" />
    <glyph glyph-name="three.dnom" unicode="&#xe005;" horiz-adv-x="294" 
d="M36 74h9q0 -43 30 -74t72 -31t72.5 31t30.5 74t-30 73.5t-73 30.5v9q34 0 58 24.5t24 58.5t-24 58.5t-58 24.5t-57.5 -24.5t-23.5 -58.5h-9q0 37 26.5 64.5t63.5 27.5t64 -27.5t27 -64.5q0 -27 -14 -49.5t-37 -33.5l-9 -4l10 -4q32 -12 51.5 -40.5t19.5 -64.5
q0 -47 -33 -80.5t-79 -33.5t-78.5 33.5t-32.5 80.5z" />
    <glyph glyph-name="four.dnom" unicode="&#xe006;" horiz-adv-x="294" 
d="M214 215h9v-148h36v-9h-36v-93h-9v93h-196v11q74 111 102 171t29 118h9q-1 -60 -28.5 -118.5t-98.5 -165.5l-5 -7h188v148z" />
    <glyph glyph-name="five.dnom" unicode="&#xe007;" horiz-adv-x="294" 
d="M36 162l12 192l1 4h190v-27h-9v18h-174l-9 -167l8 10q18 20 44 32.5t48 12.5q43 0 77.5 -36.5t34.5 -101.5q0 -67 -35.5 -103t-80.5 -36q-31 0 -61.5 16.5t-45.5 43.5v1v13h9v-10v-1q14 -24 42 -39t56 -15q41 0 74 33t33 97q0 62 -32 95.5t-71 33.5q-28 0 -59 -19.5
t-42 -48.5z" />
    <glyph glyph-name="six.dnom" unicode="&#xe008;" horiz-adv-x="294" 
d="M153 237q42 0 74 -36.5t32 -101.5t-32 -102t-74 -37t-78.5 35.5t-38.5 97.5v8q0 261 110 261q10 0 20 -2t18 -4.5t15.5 -6.5t12.5 -8l10 -8t8 -7l6 -6l2 -3v-13h-9v10l-1 1q-31 38 -81 38q-84 0 -99 -171l-2 -20h2q43 75 105 75zM45 102v-8q1 -60 34.5 -92.5t73.5 -32.5
q38 0 67.5 34t29.5 96t-29.5 95.5t-67.5 33.5q-40 0 -73.5 -33t-34.5 -93z" />
    <glyph glyph-name="seven.dnom" unicode="&#xe009;" horiz-adv-x="258" 
d="M18 358h223v-11l-49 -67q-76 -103 -76 -315h-9q0 214 78 320l47 64h-205v-18h-9v27z" />
    <glyph glyph-name="eight.dnom" unicode="&#xe00a;" horiz-adv-x="294" 
d="M250 74q0 43 -30 73.5t-73 30.5t-72.5 -30.5t-29.5 -73.5t30 -74t72 -31t72.5 31t30.5 74zM66 270q0 -34 23.5 -58.5t57.5 -24.5t58 24.5t24 58.5t-24 58.5t-58 24.5t-57.5 -24.5t-23.5 -58.5zM147 -40q-46 0 -78.5 33.5t-32.5 80.5q0 36 19.5 64.5t51.5 40.5l9 4l-9 4
q-23 11 -36.5 33.5t-13.5 49.5q0 37 26.5 64.5t63.5 27.5t64 -27.5t27 -64.5q0 -27 -14 -49.5t-37 -33.5l-9 -4l10 -4q32 -12 51.5 -40.5t19.5 -64.5q0 -47 -33 -80.5t-79 -33.5z" />
    <glyph glyph-name="nine.dnom" unicode="&#xe00b;" horiz-adv-x="294" 
d="M142 81q-42 0 -74 36.5t-32 101.5t32 102t74 37t78.5 -35.5t38.5 -97.5v-8q0 -261 -112 -261q-12 0 -23 2t-19.5 6t-15.5 8.5t-13 9.5t-9.5 8.5t-6.5 7.5l-3 3v13h9v-10l1 -1q31 -38 80 -38q83 0 99 171l2 19h-1q-1 -3 -3.5 -8t-12 -18t-21 -22.5t-30 -17.5t-38.5 -8z
M250 216v8q-1 60 -34.5 92.5t-73.5 32.5q-38 0 -67.5 -34t-29.5 -96t29.5 -95.5t67.5 -33.5q40 0 73.5 33t34.5 93z" />
    <glyph glyph-name="zero.numr" unicode="&#xe00c;" horiz-adv-x="330" 
d="M165 674q-48 0 -84 -50t-36 -136q0 -91 36.5 -144.5t83.5 -53.5q48 0 84.5 53.5t36.5 144.5q0 86 -36.5 136t-84.5 50zM165 683q53 0 91.5 -53t38.5 -142q0 -93 -39 -150t-91 -57q-53 0 -91 57t-38 150q0 89 38.5 142t90.5 53z" />
    <glyph glyph-name="one.numr" unicode="&#xe00d;" horiz-adv-x="151" 
d="M34 626l-6 6l41 47h11v-393h-9v382z" />
    <glyph glyph-name="two.numr" unicode="&#xe00e;" horiz-adv-x="294" 
d="M259 286h-223v19l134 136q44 44 62 73t18 57q0 43 -30 73t-73 30q-41 0 -71 -28.5t-31 -69.5h-9q1 45 33.5 76t77.5 31q47 0 79.5 -32.5t32.5 -79.5q0 -31 -19 -61.5t-64 -75.5l-131 -132v-7h205v17h9v-26z" />
    <glyph glyph-name="three.numr" unicode="&#xe00f;" horiz-adv-x="294" 
d="M36 395h9q0 -43 30 -74t72 -31t72.5 31t30.5 74t-30 73.5t-73 30.5v9q34 0 58 24.5t24 58.5t-24 58.5t-58 24.5t-57.5 -24.5t-23.5 -58.5h-9q0 37 26.5 64.5t63.5 27.5t64 -27.5t27 -64.5q0 -57 -51 -83l-9 -4l10 -4q32 -12 51.5 -40.5t19.5 -64.5q0 -47 -33 -80.5
t-79 -33.5t-78.5 33.5t-32.5 80.5z" />
    <glyph glyph-name="four.numr" unicode="&#xe010;" horiz-adv-x="294" 
d="M214 536h9v-148h36v-9h-36v-93h-9v93h-196v11q74 111 102 171t29 118h9q-1 -60 -28.5 -118.5t-98.5 -165.5l-5 -7h188v148z" />
    <glyph glyph-name="five.numr" unicode="&#xe011;" horiz-adv-x="294" 
d="M36 483l12 192l1 4h190v-27h-9v18h-174l-9 -167l8 10q18 20 44 32.5t48 12.5q43 0 77.5 -36.5t34.5 -101.5q0 -67 -35.5 -103t-80.5 -36q-31 0 -61.5 16.5t-45.5 43.5v1v13h9v-10v-1q14 -24 42 -39t56 -15q41 0 74 33t33 97q0 62 -32 95.5t-71 33.5q-28 0 -59 -19.5
t-42 -48.5z" />
    <glyph glyph-name="six.numr" unicode="&#xe012;" horiz-adv-x="294" 
d="M153 558q42 0 74 -36.5t32 -101.5t-32 -102t-74 -37t-78.5 35.5t-38.5 97.5v8q0 261 110 261q10 0 20 -2t18 -4.5t15.5 -6.5t12.5 -8l10 -8t8 -7l6 -6l2 -3v-13h-9v10l-1 1q-31 38 -81 38q-84 0 -99 -171l-2 -20h2q43 75 105 75zM45 423v-8q1 -60 34.5 -92.5t73.5 -32.5
q38 0 67.5 34t29.5 96t-29.5 95.5t-67.5 33.5q-40 0 -73.5 -33t-34.5 -93z" />
    <glyph glyph-name="seven.numr" unicode="&#xe013;" horiz-adv-x="258" 
d="M18 679h223v-11l-49 -67q-76 -103 -76 -315h-9q0 214 78 320l47 64h-205v-18h-9v27z" />
    <glyph glyph-name="eight.numr" unicode="&#xe014;" horiz-adv-x="294" 
d="M250 395q0 43 -30 73.5t-73 30.5t-72.5 -30.5t-29.5 -73.5t30 -74t72 -31t72.5 31t30.5 74zM66 591q0 -34 23.5 -58.5t57.5 -24.5t58 24.5t24 58.5t-24 58.5t-58 24.5t-57.5 -24.5t-23.5 -58.5zM147 281q-46 0 -78.5 33.5t-32.5 80.5q0 36 19.5 64.5t51.5 40.5l9 4l-9 4
q-23 11 -36.5 33.5t-13.5 49.5q0 37 26.5 64.5t63.5 27.5t64 -27.5t27 -64.5q0 -57 -51 -83l-9 -4l10 -4q32 -12 51.5 -40.5t19.5 -64.5q0 -47 -33 -80.5t-79 -33.5z" />
    <glyph glyph-name="nine.numr" unicode="&#xe015;" horiz-adv-x="294" 
d="M142 402q-42 0 -74 36.5t-32 101.5t32 102t74 37t78.5 -35.5t38.5 -97.5v-8q0 -261 -112 -261q-12 0 -23 2t-19.5 6t-15.5 8.5t-13 9.5t-9.5 8.5l-6.5 6.5l-3 4v13h9v-10l1 -1q31 -38 80 -38q83 0 99 171l2 19h-1q-1 -3 -3.5 -8t-12 -18t-21 -22.5t-30 -17.5t-38.5 -8z
M250 537v8q-1 60 -34.5 92.5t-73.5 32.5q-38 0 -67.5 -34t-29.5 -96t29.5 -95.5t67.5 -33.5q40 0 73.5 33t34.5 93z" />
    <glyph glyph-name="j.alw" unicode="&#xe016;" horiz-adv-x="196" 
d="M98 607q0 5 4.5 9.5t9.5 4.5t9 -4.5t4 -9.5t-4 -9t-9 -4t-9.5 4t-4.5 9zM0 -205q44 2 75.5 34t31.5 77v549h-18v9h27v-558q0 -49 -34 -83.5t-82 -36.5v9z" />
    <glyph glyph-name="jcircumflex.alw" unicode="&#xe017;" horiz-adv-x="196" 
d="M25 579l-6 6l86 71h13l86 -71l-6 -6l-83 68h-7zM0 -205q44 2 75.5 34t31.5 77v549h-18v9h27v-558q0 -49 -34 -83.5t-82 -36.5v9z" />
    <glyph glyph-name="uni0237.alw" unicode="&#xe018;" horiz-adv-x="196" 
d="M0 -205q44 2 75.5 34t31.5 77v549h-18v9h27v-558q0 -49 -34 -83.5t-82 -36.5v9z" />
    <glyph glyph-name="tcommaaccent.apr" unicode="&#xe019;" horiz-adv-x="392" 
d="M190 -63q15 8 36 8q26 0 41 -18.5t15 -44.5q0 -28 -18.5 -49t-51.5 -21q-34 0 -56 25l7 5q18 -21 49 -21q29 0 45 18t16 43q0 23 -13 38.5t-34 15.5q-20 0 -39 -12l-2 -1l-14 5l23 74q-42 14 -69 50t-27 82v321h-62v9h62v107h9v-107h268v-9h-268v-321q0 -54 38.5 -92
t91.5 -38q72 0 111 64v12h9v-14v-1q-18 -31 -50 -50t-70 -19q-20 0 -35 4l-21 -68z" />
    <glyph glyph-name="tbar.apr" unicode="&#xe01a;" horiz-adv-x="392" 
d="M71 312v9h27v134h-62v9h62v107h9v-107h268v-9h-268v-134h179v-9h-179v-178q0 -53 38.5 -91.5t91.5 -38.5q72 0 111 64v12h9v-14v-1q-18 -31 -50 -50t-70 -19q-57 0 -98 40.5t-41 97.5v178h-27z" />
    <glyph glyph-name="uni021B.apr" unicode="&#xe01b;" horiz-adv-x="392" 
d="M195 -68q0 5 4 9.5t9 4.5t9 -4.5t4 -9.5q0 -41 -42 -91l-8 6q31 36 39 72h-2q-5 0 -9 4t-4 9zM107 134q0 -54 38.5 -92t91.5 -38q72 0 111 64v12h9v-14v-1q-18 -31 -50 -50t-70 -19q-57 0 -98 40.5t-41 97.5v321h-62v9h62v107h9v-107h268v-9h-268v-321z" />
    <glyph glyph-name="Euro.dnom" unicode="&#xefee;" horiz-adv-x="428" 
d="M358 323l-7 4q-47 26 -84 26q-67 0 -119 -45t-64 -112h203l-1 -8h-204q-2 -18 -2 -27t2 -27h205l-1 -9h-202q13 -67 64.5 -111.5t119.5 -44.5q59 0 111 38l5 -7q-54 -40 -116 -40q-71 0 -125.5 47t-67.5 118h-39l1 9h36q-2 18 -2 27t2 27h-37l1 8h38q13 71 67 118.5
t125 47.5q42 0 89 -27l11 -7v-29h-9v24z" />
    <glyph glyph-name="Euro.numr" unicode="&#xefef;" horiz-adv-x="482" 
d="M358 635l-7 4q-47 26 -84 26q-67 0 -119 -45t-64 -112h203l-1 -8h-204q-2 -18 -2 -27t2 -27h205l-1 -9h-202q13 -67 64.5 -111.5t119.5 -44.5q59 0 111 38l5 -7q-54 -40 -116 -40q-71 0 -125.5 47t-67.5 118h-39l1 9h36q-2 18 -2 27t2 27h-37l1 8h38q13 71 67 118.5
t125 47.5q42 0 89 -27l11 -7v-29h-9v24z" />
    <glyph glyph-name="dollar.dnom" unicode="&#xeff0;" horiz-adv-x="401" 
d="M205 -89h-9v48q-46 1 -91 23.5t-68 46.5h-1v16h9v-12q22 -22 65 -43t86 -22v203q-34 8 -54 15t-43 18.5t-34 29t-11 40.5q0 36 43 62t99 26v49h9v-49q75 -3 124 -52l1 -2v-20h-9v16q-48 47 -116 50v-175q33 -8 48.5 -12.5t41.5 -15t38.5 -21.5t22.5 -28.5t10 -40.5
q0 -44 -42.5 -72.5t-118.5 -29.5v-48zM196 180v174q-54 0 -94 -24.5t-40 -55.5q0 -39 34 -58.5t100 -35.5zM205 170v-202q74 1 113 27.5t39 65.5q0 21 -9.5 37t-21.5 26t-36 20t-39.5 14t-45.5 12z" />
    <glyph glyph-name="dollar.numr" unicode="&#xeff1;" horiz-adv-x="401" 
d="M205 232h-9v48q-46 1 -91 23.5t-68 46.5h-1v16h9v-12q22 -22 65 -43t86 -22v203q-34 8 -54 15t-43 18.5t-34 29t-11 40.5q0 36 43 62t99 26v49h9v-49q75 -3 124 -52l1 -2v-20h-9v16q-48 47 -116 50v-175q33 -8 48.5 -12.5t41.5 -15t38.5 -21.5t22.5 -28.5t10 -40.5
q0 -44 -42.5 -72.5t-118.5 -29.5v-48zM196 501v174q-54 0 -94 -24.5t-40 -55.5q0 -39 34 -58.5t100 -35.5zM205 491v-202q74 1 113 27.5t39 65.5q0 21 -9.5 37t-21.5 26t-36 20t-39.5 14t-45.5 12z" />
    <glyph glyph-name="comma.dnom" unicode="&#xeff2;" horiz-adv-x="133" 
d="M54 -18q0 5 4 9.5t9 4.5t9 -4.5t4 -9.5q0 -41 -42 -91l-8 6q31 36 39 72h-2q-5 0 -9 4t-4 9z" />
    <glyph glyph-name="comma.numr" unicode="&#xeff3;" horiz-adv-x="133" 
d="M54 303q0 5 4 9.5t9 4.5t9 -4.5t4 -9.5q0 -41 -42 -91l-8 6q31 36 39 72h-2q-5 0 -9 4t-4 9z" />
    <glyph glyph-name="hyphen.dnom" unicode="&#xeff4;" horiz-adv-x="357" 
d="M321 170h-285v9h285v-9z" />
    <glyph glyph-name="hyphen.numr" unicode="&#xeff5;" horiz-adv-x="357" 
d="M321 464h-285v9h285v-9z" />
    <glyph glyph-name="period.dnom" unicode="&#xeff6;" horiz-adv-x="125" 
d="M45 -13q0 5 4 9t9 4t9 -4t4 -9t-4 -9.5t-9 -4.5t-9 4.5t-4 9.5z" />
    <glyph glyph-name="period.numr" unicode="&#xeff7;" horiz-adv-x="125" 
d="M45 308q0 5 4 9t9 4t9 -4t4 -9t-4 -9.5t-9 -4.5t-9 4.5t-4 9.5z" />
    <glyph glyph-name="cent.dnom" unicode="&#xeff8;" horiz-adv-x="330" 
d="M188 -54h-9v66q-59 3 -101 46.5t-42 102.5t42 102.5t101 46.5v65h9v-65q63 -2 106 -48l1 -1v-20h-9v16q-39 42 -98 44v-280q56 1 95 44l7 -5q-43 -47 -102 -48v-66zM179 21v280q-56 -3 -95 -43.5t-39 -96.5t39 -96.5t95 -43.5z" />
    <glyph glyph-name="cent.numr" unicode="&#xeff9;" horiz-adv-x="330" 
d="M188 267h-9v66q-59 3 -101 46.5t-42 102.5t42 102.5t101 46.5v65h9v-65q63 -2 106 -48l1 -1v-20h-9v16q-39 42 -98 44v-280q56 1 95 44l7 -5q-43 -47 -102 -48v-66zM179 342v280q-56 -3 -95 -43.5t-39 -96.5t39 -96.5t95 -43.5z" />
    <glyph glyph-name="sterling.dnom" unicode="&#xeffa;" horiz-adv-x="348" 
d="M22 -36v9q34 0 58 24t24 59v87h-55v9h55v118q0 38 27 65t65 27q52 0 79 -46l-7 -5q-24 42 -72 42q-34 0 -58.5 -24.5t-24.5 -58.5v-118h115v-9h-115v-87q0 -58 -51 -83h259v-9h-299z" />
    <glyph glyph-name="sterling.numr" unicode="&#xeffb;" horiz-adv-x="392" 
d="M22 285v9q34 0 58 24t24 59v87h-55v9h55v118q0 38 27 65t65 27q52 0 79 -46l-7 -5q-24 42 -72 42q-34 0 -58.5 -24t-24.5 -59v-118h115v-9h-115v-87q0 -58 -51 -83h259v-9h-299z" />
    <glyph glyph-name="parenleft.dnom" unicode="&#xeffc;" horiz-adv-x="160" 
d="M36 169q0 198 104 329l7 -5q-102 -129 -102 -324q0 -193 102 -322l-7 -6q-104 130 -104 328z" />
    <glyph glyph-name="parenright.dnom" unicode="&#xeffd;" horiz-adv-x="160" 
d="M125 169q0 -198 -104 -328l-7 6q102 129 102 322q0 195 -102 324l7 5q104 -131 104 -329z" />
    <glyph glyph-name="parenleft.numr" unicode="&#xeffe;" horiz-adv-x="178" 
d="M36 490q0 198 104 329l7 -5q-102 -129 -102 -324q0 -193 102 -322l-7 -6q-104 130 -104 328z" />
    <glyph glyph-name="parenright.numr" unicode="&#xefff;" horiz-adv-x="178" 
d="M125 490q0 -198 -104 -328l-7 6q102 129 102 322q0 195 -102 324l7 5q104 -131 104 -329z" />
    <glyph glyph-name="uniF000" unicode="&#xf000;" horiz-adv-x="285" 
d="M107 884h-71v9h107v-9h-27v-205h98v-9h-98v-206h98v-9h-98v-446h98v-9h-98v-205h27v-9h-83v-9h-9v9h-15v9h71v1089z" />
    </font>
</defs>
</svg>
